<?xml version="1.0" encoding="utf-8"?>
<!-- Generator: Adobe Illustrator 18.0.0, SVG Export Plug-In . SVG Version: 6.00 Build 0)  -->
<!DOCTYPE svg PUBLIC "-//W3C//DTD SVG 1.1//EN" "http://www.w3.org/Graphics/SVG/1.1/DTD/svg11.dtd">
<svg version="1.1" id="Layer_1" xmlns="http://www.w3.org/2000/svg" xmlns:xlink="http://www.w3.org/1999/xlink" x="0px" y="0px"
	 viewBox="0 0 841.9 595.3" enable-background="new 0 0 841.9 595.3" xml:space="preserve">
<g>
	<g>
		<path fill="#F26522" d="M549.2,107.4c-10.7,5.3-33.1,15.5-56.8,20.5c-7.6,1.6-13.5,7.5-14.8,15.2c-1.1,6.2-1.7,14-0.6,22
			c1.2,8.9,8.6,15.6,17.6,16.1c13.7,0.8,36.5,4.8,55.2,21.6c5.7,5.1,14.1,6.1,20.9,2.6c8.3-4.2,19-11.2,27.7-22.4
			c5-6.5,5.5-15.5,0.8-22.2c-4.4-6.3-9.3-15.9-10.3-28.7c-0.4-4.5-2.2-8.7-5.4-11.8c-4.1-4.1-10.3-9.4-17.6-13
			C560.6,104.8,554.4,104.8,549.2,107.4z"/>
		<path fill="#F7941E" d="M570.3,181.5c27.7-10.8,1.9-42.2,13.1-61c-4.1-4.1-10.3-9.4-17.6-13c-5.2-2.6-11.4-2.6-16.6,0
			c-10.7,5.3-33.1,15.5-56.8,20.5c-1.8,0.4-3.5,1-5,1.8v0c0,0,22.8-4.7,37.6,20.5C539.6,175.4,542.6,192.2,570.3,181.5z"/>
		<g>
			<circle fill="#E6E7E8" cx="562.5" cy="158" r="11.7"/>
			<circle fill="#414042" cx="562.5" cy="158" r="7.8"/>
		</g>
		<path fill="#DE5426" d="M598.4,183.1c2.5-3.2,3.8-7,4-10.8c-8,7.9-22,20.7-32.1,25.2c-14.9,6.7-26.6-12.1-56.1-20.8
			c-14.2-4.2-24.9-3.2-32.1-1.1c3.2,3.3,7.6,5.4,12.5,5.6c13.7,0.8,36.5,4.8,55.2,21.6c5.7,5.1,14.1,6.1,20.9,2.6
			C579,201.3,589.7,194.3,598.4,183.1z"/>
	</g>
	<g>
		<path fill="#D95D98" d="M193.8,128.9c0,0-6-3.4-9.4-12.7s-18.1-10.7-26.8-3.4c-8.7,7.4-49.6,8.7-66.4,16.1
			c-16.8,7.4-47.5,10.1-46.5,28.8s16.4,21.5,19,15.4c2.7-6,35,5.4,44,12.1c9,6.7,36.5,24.1,59.3,18.8s10.1-21.5,12.7-29.5
			C182.5,166.4,203.2,141.6,193.8,128.9z"/>
		<path fill="#F05D96" d="M151.8,135.1c-17.8-9.1-48.2-3.5-70.4-2.6c-16.7,5.2-37.4,9.8-36.6,25.3c0.9,18.8,16.4,21.5,19,15.4
			c0,0-5.8-9.1,11.5-16.6s22.7,14.6,50.2,21.3S178.9,148.9,151.8,135.1z"/>
		<g>
			<circle fill="#E6E7E8" cx="140.1" cy="156.5" r="11.7"/>
			<circle fill="#414042" cx="140.1" cy="156.5" r="7.8"/>
		</g>
		<path fill="#DB3D78" d="M179.8,181.2c-0.4-2.5-0.6-4.8,0-6.7c2.7-8,23.5-32.8,14.1-45.6c0,0-6-3.4-9.4-12.7
			c-2.1-5.8-8.5-8.5-15.2-8c18.9,3.4,8.1,27.7,3.1,36.5C159,168.2,179.8,181.2,179.8,181.2L179.8,181.2z"/>
	</g>
	<g>
		<path fill="#4EBA6E" d="M495,499.4c0,0-21.7-33-0.7-87.4c21-54.4,67.6-85.6,77.8-80.4s-4,38.1,14.7,56.7
			c18.7,18.6,13.7,14.9,0.8,48.1c-12.9,33.3-10.7,53.8-41.8,61.7S505.5,513,495,499.4z"/>
		<path fill="#75C485" d="M563.9,367.1c-17.1,20-61.9,34.3-52,72.6c9.9,38.3,38,49.2,48.4,18.7c10.3-30.5,24.4-64.8,33.2-63.4
			c-1.7-1.9-3.9-4.1-6.6-6.7c-12.8-12.7-10.2-32.1-10.6-44.8C575.7,348.5,573,356.4,563.9,367.1z"/>
		<g>
			<circle fill="#E6E7E8" cx="538.8" cy="431.9" r="11.7"/>
			<circle fill="#414042" cx="538.8" cy="431.9" r="7.8"/>
		</g>
	</g>
	<g>
		<path fill="#F8BE37" d="M766,473c0,0,24.1-16.1,29.5-44.9c5.4-28.8-3.4-49.6-10.7-51.6c-7.4-2-22.1,6-27.5,3.4
			c-5.4-2.7-8.9-14.3-27.7-14.3c-18.8,0-30.6,27.4-36.7,29.9c-6,2.5-27.8-7.9-29.7,0c-1.6,6.9,3.9,52.4,33.4,66.9
			c5.8,2.9,12.9,0.5,15.8-5.3c2.5-5,7.3-10.2,16.2-10.2C745.9,446.7,725.8,488.4,766,473z"/>
		<g>
			<path fill="#FFCE4B" d="M757.3,379.8c-5.4-2.7-8.9-14.3-27.7-14.3s-30.6,27.4-36.7,29.9c-1.3,0.5-3.2,0.5-5.6,0.2
				c2.5,0.4,11.9,2.7,22,13.6c11.7,12.7,17.8,24.6,34.8,19.9c25-6.9-1.6-39.2,17.2-48c0.7-0.3,1.3-0.7,1.9-1
				C760.8,380.4,758.7,380.5,757.3,379.8z"/>
			<path fill="#1B86C8" d="M686.7,395.5L686.7,395.5C686.7,395.5,686.8,395.5,686.7,395.5C686.7,395.5,686.7,395.5,686.7,395.5z"/>
		</g>
		<g>
			<circle fill="#E6E7E8" cx="736.4" cy="404.2" r="11.7"/>
			<circle fill="#414042" cx="736.4" cy="404.2" r="7.8"/>
		</g>
		<path fill="#F8B32B" d="M790.6,381.7c0.8,16.9,0.3,45.8-11.4,59.6c-17.1,20.1-27.9,30.3-33.2,17.9c-5.3-12.5-11.2-27.2-28.7-8.4
			c2.7-2.3,6.4-4,11.4-4c17.3,0-2.9,41.6,37.4,26.2c0,0,24.1-16.1,29.5-44.9C799.5,406.8,795.7,389.9,790.6,381.7z"/>
	</g>
	<g>
		<path fill="#42BFB9" d="M201.1,377.4c0,0-7.7-22.1-28.6-24.5c-20.9-2.4-57.1,9.7-82.9,3.8c-25.9-5.9-41.2,9-37,61.2
			s5.8,73.4,37.7,78.9S175,480.3,193,453.4S205.6,386,201.1,377.4z"/>
		<path fill="#5EC5BE" d="M111.9,449.4c44.6,3.5,47.1-43.9,52-62c2.3-8.6-2.6-22.3-8.4-34.2c-20.4,2-46.2,8-66,3.5
			c-1.8-0.4-3.6-0.7-5.3-0.9c2.8,7.1,4.2,17.1,1.7,30.9C79.1,423.5,67.3,446,111.9,449.4z"/>
		<g>
			<circle fill="#E6E7E8" cx="109.7" cy="413.8" r="11.7"/>
			<circle fill="#414042" cx="109.7" cy="413.8" r="7.8"/>
		</g>
		<path fill="#02ABA0" d="M52.5,418c4.1,52.1,5.8,73.4,37.7,78.9c21.8,3.8,53.4-5.4,76.9-20.1c0,0-62.3,15.2-86.5-2.7
			c-20.8-15.3-26.5-82.9-16.3-113.4C54.6,368.7,50,386.6,52.5,418z"/>
	</g>
	<g>
		<path fill="#955BA5" d="M675.5,137.1c0,0,3.4-18.8,28.8-25.5s71.1-6.7,77.1,9.4s8.6,77.1-17.5,83.8c-26.1,6.7-32.1-29.5-41.5-36.9
			C713.1,160.6,668.1,167.3,675.5,137.1z"/>
		<g>
			<circle fill="#E6E7E8" cx="752.2" cy="144.8" r="11.7"/>
			<circle fill="#414042" cx="752.2" cy="144.8" r="7.8"/>
		</g>
		<path fill="#884B9D" d="M783.5,174.9c-10.1,17.8-25.8,21.5-31.3,6.4c-7.4-20.1-18.7-27.5-48.2-28.8c-14.5-0.6-23.6-4.4-29.3-8.1
			c1.3,21.7,39.2,16.8,47.7,23.5c9.4,7.4,15.4,43.6,41.5,36.9C774.9,202,780.8,189.6,783.5,174.9z"/>
	</g>
	<g>
		<path fill="#F15D4F" d="M390.1,155c0,0-23.5-12.2-34.9-34.3S325,81.9,302.9,86.6c-22.1,4.7-33.5,44.5-19.4,44.5
			c14.1,0,12.1,12.2,12.1,12.2s-28.1,24.5-23.8,47.1c4.3,22.7,32.4,42.9,58.9,34.9C357.2,217.5,427.6,178.3,390.1,155z"/>
		<path fill="#F47E69" d="M343.9,193.8c41.2-16.8-4.3-43.6-19.5-53.6c-15.2-10.1-36.8-8.6-36.8-8.6l0,0c9.6,2.1,8,11.8,8,11.8
			s-9.3,8.1-16.3,19.2h0C291.2,162.3,302.7,210.5,343.9,193.8z"/>
		<g>
			<circle fill="#E6E7E8" cx="336.1" cy="172.3" r="11.7"/>
			<circle fill="#414042" cx="336.1" cy="172.3" r="7.8"/>
		</g>
		<path fill="#DB5447" d="M390.1,155c0,0-11-5.7-21.5-16.4c0,0,9.2,14.2,16.6,21.9c7.4,7.7,12.4,17.5-24.4,41.9
			c-36.9,24.4-76.5,16.1-88-8.4c6.4,21.1,32.9,38.9,58,31.3C357.2,217.5,427.6,178.3,390.1,155z"/>
	</g>
	<g>
		<path fill="#2E95D2" d="M407.5,369.1c0,0-6.8-7.4-22.8-6.7c-16,0.7-33.1-9-41.5-21.5c-12.5-18.5-73.1-6.7-61.7,33.5
			s-12.7,57-16.1,92.5c-3.4,35.5,59.7,59,74.4,28.2s26.9-67.7,52.6-79.8C418.2,403.3,426.3,390.6,407.5,369.1z"/>
		<path fill="#40A3DB" d="M325.6,395.6c-27.9,0-38.6-1.2-43.6-19.2c10.1,38.9-13.3,55.7-16.6,90.6c-0.3,2.9-0.1,5.6,0.4,8.3
			c3.7-2.9,9.4-6,18.4-8.7c24.6-7.4,42.4-9.4,57.3-26.8S354.4,395.6,325.6,395.6z"/>
		<g>
			<circle fill="#E6E7E8" cx="330.6" cy="417.7" r="11.7"/>
			<circle fill="#414042" cx="330.6" cy="417.7" r="7.8"/>
		</g>
		<path fill="#40A3DB" d="M345.9,376.4c-0.2,11.8,23.5,24.1,43.5-13.9c-1.5-0.1-3-0.1-4.7-0.1c-16,0.7-33.1-9-41.5-21.5
			C343.1,341,346.1,364.6,345.9,376.4z"/>
		<path fill="#1B86C8" d="M392.4,415.4c23.9-11.2,32.5-22.9,18.8-41.6c1.2,8.2,1.1,17.6-3.9,23.1c-10.1,11.4-30.2,6.8-45.6,32.6
			c-15.4,25.8-24.8,57.9-42.9,65c-10,3.9-26.4,3.5-39.2,2.3c18.7,15.3,50.2,19,60.1-1.6C354.5,464.3,366.6,427.4,392.4,415.4z"/>
	</g>
</g>
</svg>
