<svg xmlns="http://www.w3.org/2000/svg" viewBox="0 0 500 500"><g id="freepik--Mountains--inject-17"><g id="freepik--mountains--inject-17"><g id="freepik--mountains--inject-17"><path d="M466.71,148.7,423.19,67.29c-.7-1.37-3.52-1.35-4.19,0l-19.51,35.53-18-23a4.75,4.75,0,0,0-7.2,0l-18,23L310.64,34.28a4.7,4.7,0,0,0-7.55.07L265.81,92.22,236.67,56.58a4.76,4.76,0,0,0-7.14-.43L211.92,75.24,172.77,17.41a4.69,4.69,0,0,0-7.59.17L114.8,102.14,89.89,66.26c-1.92-2.76-6.68-2.59-8.32.3l-45,79V279.93H466.71Z" style="fill:#00ADB5"></path><path d="M466.71,148.7,423.19,67.29c-.7-1.37-3.52-1.35-4.19,0l-19.51,35.53-18-23a4.75,4.75,0,0,0-7.2,0l-18,23L310.64,34.28a4.7,4.7,0,0,0-7.55.07L265.81,92.22,236.67,56.58a4.76,4.76,0,0,0-7.14-.43L211.92,75.24,172.77,17.41a4.69,4.69,0,0,0-7.59.17L114.8,102.14,89.89,66.26c-1.92-2.76-6.68-2.59-8.32.3l-45,79V279.93H466.71Z" style="fill:#fff;opacity:0.7000000000000001"></path><path d="M81.09,73.52a4.3,4.3,0,0,1,4.38-.35l3.9,1.92a4.35,4.35,0,0,0,4.43-.4l1.27-1-5.18-7.46c-1.92-2.77-6.68-2.59-8.32.3L75.65,77a4.21,4.21,0,0,0,1.67-.72Z" style="fill:#fff;opacity:0.7000000000000001"></path><path d="M419.26,66.57l-7.48,14,1,1.35a2.75,2.75,0,0,0,4.12.26l3.05-3.29a2.78,2.78,0,0,1,3.9,0L424.88,80a2.73,2.73,0,0,0,4.26-.53l.26-.61-6.48-12.32A2.14,2.14,0,0,0,419.26,66.57Z" style="fill:#fff;opacity:0.7000000000000001"></path><g style="opacity:0.7000000000000001"><path d="M229.53,56.15l-7.35,8,2.49,2.46a3.34,3.34,0,0,0,4.57-.06l1.61-1.69a3.34,3.34,0,0,1,4.55-.09h0a3.29,3.29,0,0,0,4.84-.44l1.22-1.84-4.79-5.87A4.76,4.76,0,0,0,229.53,56.15Z" style="fill:#fff"></path><path d="M303.08,34.35,289.13,56l1.74,3a3.56,3.56,0,0,0,5.67.26l3.11-4.14a3.61,3.61,0,0,1,5.27-.27h0a3.64,3.64,0,0,0,5.16-.12L313.29,51a3.65,3.65,0,0,1,4.67-.54l6.28,4.25-13.6-20.4A4.72,4.72,0,0,0,303.08,34.35Z" style="fill:#fff"></path><path d="M374.34,79.84l-8,10.26L372.67,87a2.4,2.4,0,0,1,2.78.47l1.73,1.91a2.39,2.39,0,0,0,3.2.19l1.47-1.22a2.42,2.42,0,0,1,3,0l9.26,7.62h0l-12.57-16.1A4.76,4.76,0,0,0,374.34,79.84Z" style="fill:#fff"></path><path d="M165.18,17.58,156,32.94l1,1.39a4.43,4.43,0,0,0,6.39.49l2.69-2.57a4.5,4.5,0,0,1,6,0l5.78,5.47a4.48,4.48,0,0,0,6-.07l1.55-1.55L172.77,17.4A4.7,4.7,0,0,0,165.18,17.58Z" style="fill:#fff"></path></g><g style="opacity:0.30000000000000004"><polygon points="92.24 69.65 76.22 90.39 85.63 90.39 78.63 113.09 93.47 100.34 105.98 117.51 114.8 102.14 92.24 69.65" style="fill:#00ADB5"></polygon><polygon points="173.32 18.22 183.96 60.63 166.86 77.55 164.54 127.01 211.91 75.23 173.32 18.22" style="fill:#00ADB5"></polygon><polygon points="238 58.22 231.54 73.3 240.16 73.3 224.67 107.03 248.8 90.29 259.81 102.09 265.81 92.22 238 58.22" style="fill:#00ADB5"></polygon><polygon points="356.37 102.85 313.37 38.38 322.1 69.06 307.4 87.3 343.66 96.66 332 107.91 338.13 114.41 328.69 138.78 356.37 102.85" style="fill:#00ADB5"></polygon><polygon points="381.52 79.84 374.14 98.85 384.09 97.68 385.49 122.73 399.49 102.84 381.52 79.84" style="fill:#00ADB5"></polygon><polygon points="466.71 279.93 466.71 148.7 426.05 72.49 448.91 135.94 432.27 167.31 450.75 162.99 407.46 279.93 466.71 279.93" style="fill:#00ADB5"></polygon></g></g></g></g><g id="freepik--Plants--inject-17"><path d="M482.27,286.15a7.64,7.64,0,0,0-4.43-5.06,4.42,4.42,0,0,0,2.59-4.39,11.81,11.81,0,0,0-1.78-5.11,5.79,5.79,0,0,0-.58-10.95c2-2.53,3-6.33,1.05-8.92-1.57-2.13-4.51-2.7-7.15-2.68s-5.38.6-6.75,2.73a5.25,5.25,0,0,0-6.84-4.36,6.91,6.91,0,0,0,1.22-2.53,8.36,8.36,0,0,0-1-6.36,4.59,4.59,0,0,0-2.15-2.07,3.45,3.45,0,0,0-1.11-.07,21.64,21.64,0,0,0-3.51.08A8.7,8.7,0,0,0,439,226.29a7.41,7.41,0,0,0-14.64-1.87,5.45,5.45,0,0,0-10.54,1,7.66,7.66,0,0,0-6.92-8.53,4.89,4.89,0,0,0,3.57-5.19,7.31,7.31,0,0,0-3.79-5.44,4.62,4.62,0,0,0-3.52-8.13,6.5,6.5,0,0,0-6.6-5.53,8,8,0,0,0-7,5.52A8.12,8.12,0,0,0,378,207.57a11.41,11.41,0,0,0-5.87-3.25c-2.24-.33-4.8.64-5.72,2.72-.78-2.33-2.09-4.64-4.25-5.8s-5.29-.76-6.52,1.37a9.91,9.91,0,0,0-2.36-5c-.16-.18-.33-.4-.51-.58a1.53,1.53,0,0,0-.18-.18c-.18-.15-1.1-.65-1.3-.56,2.35-1,2.5-4.66.74-6.53s-4.59-2.26-7.15-2a5.71,5.71,0,1,0-11.4-.07c-1.18-2.47-5-2.48-7.05-.67s-2.78,4.65-3.32,7.33a7.81,7.81,0,0,0-9.91-1,7.44,7.44,0,0,0-6.08-9c1.79-3.33-1.83-7.54-5.61-7.62s-7.07,2.55-9.59,5.37c-5.39-2.79-12.93,2.33-12.32,8.36-3.81-4.58-12-4.22-15.45.68a7.84,7.84,0,0,0-9.46-5.29c1.61-4.93-4.73-10.25-9.31-7.8a5.86,5.86,0,1,0-11.47,1.76c-5.27-.55-9.72,6.12-7.19,10.78a6.67,6.67,0,0,0-9,1.89c.93-2.34-2-5.11-4.3-4a4.94,4.94,0,0,0-9.27-3.3c.06-2.95-3.77-4.77-6.51-3.68s-4.32,4-5,6.87c-1.79-4.12-8.62-4.52-10.87-.63a9.05,9.05,0,0,0-18-1.74,7.74,7.74,0,0,0-14.15,6c-5.4-.89-9.58,7.12-5.75,11-2.14-2.69-7.13-2-8.48,1.13,1.22-3.1-2-7-5.25-6.33A5.76,5.76,0,1,0,119,194.78c-2-3.57-7.82-2.9-10.43.25s-2.93,7.54-3.12,11.63c-2.1-1.57-5.36.31-6,2.85s.58,5.17,2,7.33a8.16,8.16,0,0,0-9.48,5,4.9,4.9,0,0,0-9-3.45c-.16-3.71-6-4.75-8.49-2s-2.22,7-.94,10.54c-2-3.11-7.45-1.59-8.84,1.84s.12,7.37,2.2,10.44c-4.13-1.06-8.56,3.34-7.54,7.48-3.47-3.35-10.5.75-9.28,5.41-1.06-3.37-6.14-3.86-8.8-1.54s-3.38,6.15-3.46,9.68c-1.19-2.55-5.33-2.12-7,.13s-1.65,5.32-1.49,8.13c-3.56-1.6-7.91,3.1-6.05,6.52a11.24,11.24,0,0,0,2.48,21.5H480.17C482,295.14,482.82,288.41,482.27,286.15Z" style="fill:#37474f"></path></g><g id="freepik--Floor--inject-17"><ellipse id="freepik--Grass--inject-17" cx="250" cy="344.72" rx="244.73" ry="149.77" style="fill:#00ADB5"></ellipse><ellipse id="freepik--grass--inject-17" cx="250" cy="344.72" rx="244.73" ry="149.77" style="fill:#fff;opacity:0.5"></ellipse><path d="M463.16,377.55l-41-9.86L394,330.38s-31.35-11.67-33.14-11.81S304,317.2,304,317.2l-85.28-31.93-9.14,16.82L119.18,309,39.6,366.6l-27,14.59C23,406.63,44.45,430.73,77,450.62,169,507,316.1,509,412.21,456.86Z" style="fill:#00ADB5;opacity:0.35000000000000003"></path></g><g id="freepik--Trees--inject-17"><g id="freepik--Pines--inject-17"><g id="freepik--Pine--inject-17"><path d="M60.91,253.23c-7.35,5.43-41,4.68-48.64,0-.67-2.93-.32-9.47.72-18.07L22,240l-8.18-11.45c1.19-8.34,2.86-18,4.81-27.82l5.6,3.12-4.79-7.18c.38-1.85.76-3.69,1.16-5.54L27,194.28,21.54,187c1.62-7.44,3.36-14.74,5.1-21.44L31.72,167s-1.91-2.87-3.93-5.84c1.78-6.6,3.57-12.45,5.24-17.09a3.78,3.78,0,0,1,7.12,0c2.26,6.23,4.71,14.71,7.12,24.22l-4.51,7.56L48,171.21c1.09,4.39,2.16,9,3.18,13.61L44,197.73l8.7-6.08c1.45,6.81,2.78,13.65,4,20.21l-7.06,7,7.84-2.52c.14.8.27,1.59.4,2.36l-7.23,9.75L58.64,224C60.82,238,61.84,249.14,60.91,253.23Z" style="fill:#00ADB5"></path><path d="M38.38,221.94l10.26-19.32L38.2,215.42l-1.61-59.94L35.34,192,28,181.4l7.08,17.14-1.27,36.94L19.92,222.64l13.74,18.21-1.17,39.66c0,2.15,7.3,2.15,7.3,0l-1.41-58.57Z" style="fill:#00ADB5"></path><path d="M38.38,221.94l10.26-19.32L38.2,215.42l-1.61-59.94L35.34,192,28,181.4l7.08,17.14-1.27,36.94L19.92,222.64l13.74,18.21-1.17,39.66c0,2.15,7.3,2.15,7.3,0l-1.41-58.57Z" style="fill:#fff;opacity:0.7000000000000001"></path></g><g id="freepik--pine--inject-17"><path d="M87.93,231.79c-4.62,3.41-25.81,2.94-30.59,0a31.09,31.09,0,0,1,.08-8l5.5,2-5.11-5.5c.58-4.81,1.5-10.62,2.64-16.76l3.11,1.3-2.71-3.43.36-1.82,7.39,3.77-6.39-8.71c1-4.79,2.06-9.58,3.16-14.07l4.81,4L66,178c.3-1.2.61-2.37.91-3.51l4.25,2.31-3.48-5.11c.92-3.27,1.84-6.18,2.7-8.57a2.38,2.38,0,0,1,4.47,0c1.3,3.59,2.69,8.33,4.08,13.68l-2.16,5,3.06-1.42c.34,1.36.67,2.76,1,4.17-1.45,4.45-3.26,10-3.26,10.15.09-.18,2.23-4,4-7.1C85.72,206.14,89.05,226.91,87.93,231.79Z" style="fill:#00ADB5"></path><path d="M87.93,231.79c-4.62,3.41-25.81,2.94-30.59,0a31.09,31.09,0,0,1,.08-8l5.5,2-5.11-5.5c.58-4.81,1.5-10.62,2.64-16.76l3.11,1.3-2.71-3.43.36-1.82,7.39,3.77-6.39-8.71c1-4.79,2.06-9.58,3.16-14.07l4.81,4L66,178c.3-1.2.61-2.37.91-3.51l4.25,2.31-3.48-5.11c.92-3.27,1.84-6.18,2.7-8.57a2.38,2.38,0,0,1,4.47,0c1.3,3.59,2.69,8.33,4.08,13.68l-2.16,5,3.06-1.42c.34,1.36.67,2.76,1,4.17-1.45,4.45-3.26,10-3.26,10.15.09-.18,2.23-4,4-7.1C85.72,206.14,89.05,226.91,87.93,231.79Z" style="opacity:0.25"></path><path d="M73.76,212.11,80.21,200l-6.56,8-1-37.69-.79,22.94-4.6-6.64,4.46,10.78-.8,23.23-8.76-8.07L70.79,224l-.73,21.32c0,1.36,4.59,1.36,4.59,0l-.89-33.21Z" style="fill:#00ADB5"></path><path d="M73.76,212.11,80.21,200l-6.56,8-1-37.69-.79,22.94-4.6-6.64,4.46,10.78-.8,23.23-8.76-8.07L70.79,224l-.73,21.32c0,1.36,4.59,1.36,4.59,0l-.89-33.21Z" style="fill:#fff;opacity:0.7000000000000001"></path></g><g id="freepik--pine--inject-17"><path d="M452.05,236.13c-5.37,4-30,3.42-35.5,0a27.46,27.46,0,0,1-.11-6.78l8.39,3.84-8-7.94c.48-4.47,1.26-9.88,2.26-15.75l3.07,1.64-2.8-3.22c.58-3.31,1.22-6.75,1.91-10.23l5,4L421.79,195c.14-.72.29-1.45.44-2.17l6.83,5.64L423.27,188c1.07-4.88,2.2-9.67,3.32-14.14l4.46,3.39c-.11-.2-1.89-3.23-3.67-6.38,1.47-5.58,2.94-10.53,4.32-14.35a2.77,2.77,0,0,1,5.2,0c1.31,3.63,2.71,8.28,4.12,13.54h0l-2.72,6,3.24-4c.88,3.37,1.75,6.94,2.59,10.6l-5.83,12.86,6.89-8.16c.11.5.23,1,.33,1.52l-2.81,6.64L446,191c1.19,5.6,2.28,11.23,3.22,16.56l-8.09,9.75,8.76-5.84c.2,1.22.39,2.43.57,3.61l-4.1,4.54,4.59-1.32C452.13,226.82,452.65,233.49,452.05,236.13Z" style="fill:#00ADB5"></path><path d="M452.05,236.13c-5.37,4-30,3.42-35.5,0a27.46,27.46,0,0,1-.11-6.78l8.39,3.84-8-7.94c.48-4.47,1.26-9.88,2.26-15.75l3.07,1.64-2.8-3.22c.58-3.31,1.22-6.75,1.91-10.23l5,4L421.79,195c.14-.72.29-1.45.44-2.17l6.83,5.64L423.27,188c1.07-4.88,2.2-9.67,3.32-14.14l4.46,3.39c-.11-.2-1.89-3.23-3.67-6.38,1.47-5.58,2.94-10.53,4.32-14.35a2.77,2.77,0,0,1,5.2,0c1.31,3.63,2.71,8.28,4.12,13.54h0l-2.72,6,3.24-4c.88,3.37,1.75,6.94,2.59,10.6l-5.83,12.86,6.89-8.16c.11.5.23,1,.33,1.52l-2.81,6.64L446,191c1.19,5.6,2.28,11.23,3.22,16.56l-8.09,9.75,8.76-5.84c.2,1.22.39,2.43.57,3.61l-4.1,4.54,4.59-1.32C452.13,226.82,452.65,233.49,452.05,236.13Z" style="opacity:0.15"></path><path d="M435.6,213.3l7.49-14.09-7.61,9.33-1.18-43.73-.91,26.61-5.34-7.7,5.17,12.51-.93,27-10.15-9.36,10,13.28-.85,24.74c0,1.57,5.33,1.57,5.33,0l-1-38.54Z" style="fill:#00ADB5"></path><path d="M435.6,213.3l7.49-14.09-7.61,9.33-1.18-43.73-.91,26.61-5.34-7.7,5.17,12.51-.93,27-10.15-9.36,10,13.28-.85,24.74c0,1.57,5.33,1.57,5.33,0l-1-38.54Z" style="fill:#fff;opacity:0.6000000000000001"></path></g><g id="freepik--pine--inject-17"><path d="M151,200.94c-5.79,3.57-31.5,4.14-37.11,0-.41-1.78-.33-5.31.13-10l5.28,2.81-4.88-6.49c.5-4.15,1.21-9,2.09-14.07l7.2,4.42-6.2-10.14c.13-.69.26-1.39.4-2.1l4.37,2.86-3.94-5.15c1-5.17,2.1-10.47,3.26-15.62l6.75,6.7L123,141.52c.43-1.8.86-3.57,1.3-5.29l5.17,3.87-3.73-9.4c1.37-5,2.73-9.52,4-13.06a2.89,2.89,0,0,1,5.43,0c1.17,3.23,2.4,7.24,3.66,11.75h0l-2.75,8.07,3.66-4.68c1.36,5.19,2.73,10.88,4,16.71l-5.24,11.42,6.36-6.22c.35,1.65.69,3.31,1,5l-2.07,3.89,2.53-1.6c1.2,6.17,2.26,12.19,3.09,17.62l-5.94,7.8,6.54-3.62C151.13,192,151.58,198.33,151,200.94Z" style="fill:#00ADB5"></path><path d="M151,200.94c-5.79,3.57-31.5,4.14-37.11,0-.41-1.78-.33-5.31.13-10l5.28,2.81-4.88-6.49c.5-4.15,1.21-9,2.09-14.07l7.2,4.42-6.2-10.14c.13-.69.26-1.39.4-2.1l4.37,2.86-3.94-5.15c1-5.17,2.1-10.47,3.26-15.62l6.75,6.7L123,141.52c.43-1.8.86-3.57,1.3-5.29l5.17,3.87-3.73-9.4c1.37-5,2.73-9.52,4-13.06a2.89,2.89,0,0,1,5.43,0c1.17,3.23,2.4,7.24,3.66,11.75h0l-2.75,8.07,3.66-4.68c1.36,5.19,2.73,10.88,4,16.71l-5.24,11.42,6.36-6.22c.35,1.65.69,3.31,1,5l-2.07,3.89,2.53-1.6c1.2,6.17,2.26,12.19,3.09,17.62l-5.94,7.8,6.54-3.62C151.13,192,151.58,198.33,151,200.94Z" style="opacity:0.25"></path><path d="M142.07,169.14l-7.79,11-.82-23.8,4.21-14.23-4.36,9.72-.88-25.5-1,36.8-4.37-5.23,4.24,10-.56,20.89-9-9L130.59,195l-.6,22.39c0,1.64,5.57,1.64,5.57,0l-1-30.09Z" style="fill:#00ADB5"></path><g style="opacity:0.7000000000000001"><path d="M142.07,169.14l-7.79,11-.82-23.8,4.21-14.23-4.36,9.72-.88-25.5-1,36.8-4.37-5.23,4.24,10-.56,20.89-9-9L130.59,195l-.6,22.39c0,1.64,5.57,1.64,5.57,0l-1-30.09Z" style="fill:#fff"></path></g></g><g id="freepik--pine--inject-17"><path d="M490.78,257.54c-7.5,4.63-40.86,5.36-48.15,0-.66-2.91-.32-9.45.73-18l9.44,4-8.71-9.67c.84-5.87,1.91-12.43,3.16-19.28l5.78,2.53-5.4-4.58c.3-1.59.6-3.19.91-4.8l9.66,5.57-8.68-10.52c1.08-5.32,2.22-10.69,3.42-15.92l5,2.68-4.07-7c1.24-5.11,3.61-14.25,4.86-18.73l5.07,4-4.29-6.79c1.26-4.37,2.51-8.29,3.7-11.58a3.74,3.74,0,0,1,7,0c1.82,5,3.76,11.5,5.69,18.79h0L472,177.21l5.23-4c1.37,5.38,2.71,11.08,4,16.9h0l-6.6,16.65,7.91-10.58c.47,2.22.93,4.45,1.39,6.67l-4.71,9.24,5.39-5.78c1.29,6.59,2.46,13,3.44,19.08h0l-10.78,16.92,11.67-11.14q.4,2.73.75,5.28l-8.13,10,8.77-4.69C491.17,249.25,491.39,254.89,490.78,257.54Z" style="fill:#00ADB5"></path><path d="M479.22,216.28l-10.11,14.31-1.06-30.88,5.45-18.46-5.65,12.61-1.14-33.08-1.28,47.74-5.68-6.78,5.51,13-.73,27.09L452.8,230.2l11.52,19.61-.78,33.06c0,2.13,7.23,2.13,7.23,0l-1.34-43.06Z" style="fill:#00ADB5"></path><g style="opacity:0.7000000000000001"><path d="M479.22,216.28l-10.11,14.31-1.06-30.88,5.45-18.46-5.65,12.61-1.14-33.08-1.28,47.74-5.68-6.78,5.51,13-.73,27.09L452.8,230.2l11.52,19.61-.78,33.06c0,2.13,7.23,2.13,7.23,0l-1.34-43.06Z" style="fill:#fff"></path></g></g><g id="freepik--pine--inject-17"><path d="M393.75,203.66c-5.72,3.52-31.1,4.08-36.64,0-.5-2.2-.26-7.1.52-13.54l7.21,4.25L358.31,185c.75-5.16,1.73-11,2.88-17l4.92,3.37-4.31-6.58c.14-.68.27-1.36.41-2l6,3.9L363,159c1.07-5.19,2.23-10.39,3.43-15.31l6.65,4.39-5.86-7.6c.33-1.33.67-2.63,1-3.9l4.86,3.66L369,133.58c1.28-4.69,2.56-8.85,3.76-12.17a2.85,2.85,0,0,1,5.36,0c1,2.79,2.07,6.17,3.15,10h0l-2.38,6.22,2.93-4,0-.06c1.6,5.8,3.2,12.38,4.7,19.17l-3.84,13.66,5.13-7.67c1,4.67,1.87,9.34,2.68,13.83h0L385,191.23l6.92-10.75C393.62,191.54,394.48,200.46,393.75,203.66Z" style="fill:#00ADB5"></path><path d="M393.75,203.66c-5.72,3.52-31.1,4.08-36.64,0-.5-2.2-.26-7.1.52-13.54l7.21,4.25L358.31,185c.75-5.16,1.73-11,2.88-17l4.92,3.37-4.31-6.58c.14-.68.27-1.36.41-2l6,3.9L363,159c1.07-5.19,2.23-10.39,3.43-15.31l6.65,4.39-5.86-7.6c.33-1.33.67-2.63,1-3.9l4.86,3.66L369,133.58c1.28-4.69,2.56-8.85,3.76-12.17a2.85,2.85,0,0,1,5.36,0c1,2.79,2.07,6.17,3.15,10h0l-2.38,6.22,2.93-4,0-.06c1.6,5.8,3.2,12.38,4.7,19.17l-3.84,13.66,5.13-7.67c1,4.67,1.87,9.34,2.68,13.83h0L385,191.23l6.92-10.75C393.62,191.54,394.48,200.46,393.75,203.66Z" style="opacity:0.15"></path><path d="M385,172.26l-7.7,10.89-.8-23.5,4.15-14.05-4.31,9.59L375.43,130l-1,36.34-4.32-5.16,4.19,9.92-.55,20.63-8.93-8.89,8.77,14.92L373,219.88c0,1.62,5.5,1.62,5.5,0l-1-29.72Z" style="fill:#00ADB5"></path><g style="opacity:0.6000000000000001"><path d="M385,172.26l-7.7,10.89-.8-23.5,4.15-14.05-4.31,9.59L375.43,130l-1,36.34-4.32-5.16,4.19,9.92-.55,20.63-8.93-8.89,8.77,14.92L373,219.88c0,1.62,5.5,1.62,5.5,0l-1-29.72Z" style="fill:#fff"></path></g></g><g id="freepik--pine--inject-17"><path d="M109.79,216.14c-5.23,3.21-28.41,3.72-33.46,0a17.81,17.81,0,0,1-.21-4.22l5.4,2.41-5-7.71c.31-3.19.82-6.94,1.46-11l5.25,2.75-4.61-6.69c.11-.65.22-1.31.34-2l8.52,4.94-7.43-11c1.15-6,2.47-12.35,3.86-18.35L88.83,169l-3.94-8c.19-.77.38-1.52.56-2.27l4.87,3.88-3.73-8.3c1.36-5.17,2.73-9.76,4-13.3a2.61,2.61,0,0,1,4.91,0c1.22,3.4,2.53,7.75,3.85,12.67l-1.47,8.93,2.81-3.73c1.23,5,2.46,10.34,3.58,15.71l-3.69,11.53,4.75-6.3c1.08,5.42,2,10.76,2.8,15.62L106,200.71l2.68-1.63c.19,1.29.36,2.55.5,3.74l-4.66,7.75,5.08-4.1C110.07,211,110.17,214.45,109.79,216.14Z" style="fill:#00ADB5"></path><path d="M109.79,216.14c-5.23,3.21-28.41,3.72-33.46,0a17.81,17.81,0,0,1-.21-4.22l5.4,2.41-5-7.71c.31-3.19.82-6.94,1.46-11l5.25,2.75-4.61-6.69c.11-.65.22-1.31.34-2l8.52,4.94-7.43-11c1.15-6,2.47-12.35,3.86-18.35L88.83,169l-3.94-8c.19-.77.38-1.52.56-2.27l4.87,3.88-3.73-8.3c1.36-5.17,2.73-9.76,4-13.3a2.61,2.61,0,0,1,4.91,0c1.22,3.4,2.53,7.75,3.85,12.67l-1.47,8.93,2.81-3.73c1.23,5,2.46,10.34,3.58,15.71l-3.69,11.53,4.75-6.3c1.08,5.42,2,10.76,2.8,15.62L106,200.71l2.68-1.63c.19,1.29.36,2.55.5,3.74l-4.66,7.75,5.08-4.1C110.07,211,110.17,214.45,109.79,216.14Z" style="opacity:0.15"></path><path d="M91.83,194.61l-7.06-13.28,7.18,8.8,1.11-41.23L93.92,174l5-7.26-4.87,11.79.88,25.4,9.57-8.82-9.45,12.52.8,27.68c0,1.48-5,1.48-5,0l1-40.69Z" style="fill:#00ADB5"></path><path d="M91.83,194.61l-7.06-13.28,7.18,8.8,1.11-41.23L93.92,174l5-7.26-4.87,11.79.88,25.4,9.57-8.82-9.45,12.52.8,27.68c0,1.48-5,1.48-5,0l1-40.69Z" style="fill:#fff;opacity:0.6000000000000001"></path></g><g id="freepik--pine--inject-17"><path d="M413.79,212.61c-5.29,3.26-28.77,3.78-33.89,0-.4-1.71-.29-5.22.18-9.86l5.26,1-4.9-4.23q.35-2.72.79-5.75l9.75,3.9-9.28-6.88c1-6.19,2.27-13.09,3.71-20l7.54,6-6.84-9.31c.59-2.75,1.21-5.48,1.84-8.14l6.12,3.82-5.39-6.88c.59-2.38,1.17-4.69,1.76-6.89l3.63,4-2.4-8.41c.92-3.2,1.82-6.07,2.69-8.46a2.63,2.63,0,0,1,5,0c1.45,4,3,9.29,4.55,15.26h0l-2.75,5.9,3.6-2.49c1.16,4.64,2.28,9.57,3.34,14.54h0l-5.54,11.43,6.43-7.05c.48,2.39.95,4.77,1.37,7.1l-3.57,5.37,4.12-2.4c.89,5,1.64,9.75,2.19,13.91h0l-5.75,9.11,6.39-3.44C414.09,207.92,414.15,211,413.79,212.61Z" style="fill:#00ADB5"></path><path d="M395.6,190.81l-7.15-13.46,7.27,8.91,1.12-41.77.88,25.42,5.09-7.36-4.94,11.95.89,25.74,9.7-8.94L398.89,204l.81,23.62c0,1.5-5.09,1.5-5.09,0l1-36.8Z" style="fill:#00ADB5"></path><path d="M395.6,190.81l-7.15-13.46,7.27,8.91,1.12-41.77.88,25.42,5.09-7.36-4.94,11.95.89,25.74,9.7-8.94L398.89,204l.81,23.62c0,1.5-5.09,1.5-5.09,0l1-36.8Z" style="fill:#fff;opacity:0.7000000000000001"></path></g></g></g><g id="freepik--Clouds--inject-17"><path id="freepik--Cloud--inject-17" d="M97.41,29.64c0-3.13-3.43-5.31-7.33-5.68-4.58-.43-7.83,1.62-7.94,5.23C79.14,28,76,28.74,76.22,32c-.78-.9-3.7-.87-4.74-.62a4.12,4.12,0,0,0-2.62,2.22,3.07,3.07,0,0,0-.27,1.69c-1.75-.57-5.72-.92-6.71.68-1.77,2.85,5.3,2.94,6.72,2.08.3,2.22,7.9,2.58,9.74.54,1.44,1.44,3.5,1.76,5.73,1.89,3.75.23,6.06-1,9-2.54,3.19,2.7,8.7,2.75,11.57-.34.74.69,2.76.9,4.37.52,1.06-.26,1.31-.71,1.31-.71a9.7,9.7,0,0,0,2,.59c2.08.43,6,0,4.33-1.9a4.87,4.87,0,0,0-3.44-.85c-.91-1.79-4.56-3.48-6.65-2-.08-2.17-2.06-3.86-4.85-4.29C100.72,28.89,98.48,28.76,97.41,29.64Z" style="fill:#f0f0f0"></path><path id="freepik--cloud--inject-17" d="M426.14,40.38a8.39,8.39,0,0,0-2.87-.53c-.93-.07-1.23-.26-1.41-.46A6.86,6.86,0,0,0,413.62,37a5.27,5.27,0,0,0-6.22-3.51c.1-2.9-3.6-6-6.92-6.72s-6-.39-7.79,1.7c-1.95-3.8-9.58-4.87-13.71-2.86-2.38,1.16-4.39,2.35-5.38,4.52a9.08,9.08,0,0,0-.89,4.33c-1.61-1.42-4.83-1.8-7-1-2.32.9-2.5,2.64-2.61,4.42a8.22,8.22,0,0,0-4.22-.08c-1.46.44-2.31,1.58-2.11,2.51-1.15-.06-3.9.87-3.59,2.09s3.5,1.23,4.68,1.19a22.26,22.26,0,0,0,3.28-.52,5.14,5.14,0,0,0,1.71.33c2,0,2.85-.88,3.17-1.62,1,2.06,4.46,3.62,6.92,4.25,4.62,1.19,11.17.47,14-3a5.22,5.22,0,0,0,1.38,1.68,8,8,0,0,0,4.28,1.73c1.91.18,7,.42,8.44-2.6,1,2,5.56,2.93,9,2.43A14.17,14.17,0,0,0,414,45.1a22.68,22.68,0,0,0,2.23-1.34,1.87,1.87,0,0,1,1.89-.13,11.28,11.28,0,0,0,7.54,0C427.55,42.82,428,41.2,426.14,40.38Z" style="fill:#f0f0f0"></path></g><g id="freepik--Shadow--inject-17"><g id="freepik--shadow--inject-17" style="opacity:0.35000000000000003"><ellipse id="freepik--shadow--inject-17" cx="184.05" cy="461.41" rx="33.32" ry="19.24" style="fill:#00ADB5"></ellipse><ellipse id="freepik--shadow--inject-17" cx="240.92" cy="448.65" rx="43.21" ry="20.39" style="fill:#00ADB5"></ellipse></g></g><g id="freepik--Rock--inject-17"><g id="freepik--rock--inject-17"><polygon points="299.31 446.3 349.67 412.73 397.42 412.73 463.16 377.55 435.35 283.18 419.73 272.7 388.94 175.87 369.23 165.24 358.71 136.36 352.07 132.73 344.15 118.51 334.54 113.27 331.57 95.46 327.02 92.93 316.5 74.87 283.14 57.45 265.56 61.68 265.56 55.95 252.91 51.57 252.91 41.46 238.09 36.54 174.98 74.24 175.45 97.74 167.06 103.18 162.22 127.47 136.91 138.63 122.22 189.23 100.48 199.32 81.82 276.71 64.34 287.72 39.59 366.6 77.21 414.4 133.88 427.53 228.07 424.65 299.31 446.3" style="fill:#37474f"></polygon><polygon points="238.09 36.54 252.91 41.46 239.09 45.86 234.44 53.46 215.99 60.78 252.91 51.57 265.56 55.95 223.69 76.18 185.43 77.86 174.98 74.24 238.09 36.54" style="fill:#455a64"></polygon><polygon points="265.56 61.68 265.06 82.03 258.85 85.61 255.57 91.77 233.63 98.57 257.81 95.09 265.56 88.55 270.92 87.31 272.16 126.38 288.67 121.65 274.18 74.98 265.56 61.68" style="fill:#263238"></polygon><polygon points="265.56 61.68 274.18 74.98 303.18 77.86 316.5 74.87 283.14 57.45 265.56 61.68" style="fill:#455a64"></polygon><polygon points="327.02 92.93 326.92 95.49 313.04 98.57 290.31 95.09 314.08 104.51 329.92 99.84 331.57 95.46 327.02 92.93" style="fill:#455a64"></polygon><polygon points="185.43 77.86 196.67 109.64 189.35 147.49 162.22 127.47 167.06 103.18 175.45 97.74 174.98 74.24 185.43 77.86" style="fill:#263238"></polygon><polygon points="303.18 77.86 313.04 98.57 326.92 95.49 327.02 92.93 316.5 74.87 303.18 77.86" style="fill:#263238"></polygon><polygon points="167.06 103.18 176.3 110.66 196.67 109.64 175.45 97.74 167.06 103.18" style="fill:#455a64"></polygon><polygon points="314.08 104.51 314.9 133.65 332.78 129.91 329.92 99.84 314.08 104.51" style="fill:#263238"></polygon><polygon points="268.63 131.35 288.67 140.71 314.08 138.69 342.11 129.54 344.15 118.51 334.54 113.27 332.78 129.91 314.9 133.65 288.67 121.65 272.16 126.38 243.49 125.83 223.48 135.27 189.35 147.49 162.22 127.47 136.91 138.63 160.92 150.32 214.81 151.54 268.63 131.35" style="fill:#455a64"></polygon><polygon points="352.07 132.73 352.07 138.57 343.68 143.03 322.41 146.88 347.5 147.49 360.56 141.42 358.71 136.36 352.07 132.73" style="fill:#455a64"></polygon><polygon points="322.41 146.88 333.13 192.28 359.81 185.26 347.5 147.49 322.41 146.88" style="fill:#263238"></polygon><polygon points="223.48 135.27 231.53 101.08 243.49 125.83 223.48 135.27" style="fill:#263238"></polygon><polygon points="288.67 140.71 278.14 155.17 276.63 209.29 264.16 189.53 268.63 131.35 288.67 140.71" style="fill:#263238"></polygon><polygon points="274.18 145.01 288.67 149.95 304.01 150.3 292.76 157.65 278.14 155.17 274.18 145.01" style="fill:#455a64"></polygon><polygon points="136.91 138.63 160.92 150.32 158.5 167.01 154.7 169.84 159.2 210.63 122.22 189.23 136.91 138.63" style="fill:#263238"></polygon><polygon points="150.04 162.18 158.5 167.01 185.16 166.57 167.06 173.41 154.7 169.84 150.04 162.18" style="fill:#455a64"></polygon><polygon points="369.23 165.24 359.81 185.26 333.13 192.28 276.63 209.29 264.16 189.53 216.36 207.11 159.2 210.63 122.22 189.23 100.48 199.32 115.97 213.39 144.39 220.42 184.09 215.73 215.91 221.15 251.38 204.11 276.42 219.69 335.25 218.08 373.46 196.24 388.94 175.87 369.23 165.24" style="fill:#455a64"></polygon><polygon points="340.02 303.87 321.38 313.05 291.72 316.58 329.1 321.21 366.28 308.81 340.02 303.87" style="fill:#455a64"></polygon><polygon points="366.28 308.81 373.46 196.24 335.25 218.08 340.02 303.87 366.28 308.81" style="fill:#263238"></polygon><polygon points="419.73 272.7 420.6 285.49 406.87 297.21 378.91 305.73 419.73 303.31 435.35 283.18 419.73 272.7" style="fill:#455a64"></polygon><polygon points="301.82 294.93 275.98 295.5 258.88 288.74 267.47 299.43 283.14 303.31 301.82 294.93" style="fill:#455a64"></polygon><polygon points="251.38 204.11 276.42 219.69 275.98 295.5 258.88 288.74 267.47 299.43 299.31 446.3 228.07 424.65 251.38 204.11" style="fill:#263238"></polygon><polygon points="345.14 363.48 435.35 356.21 371.74 347.8 345.14 363.48" style="fill:#455a64"></polygon><polygon points="397.42 412.73 386.4 360.41 345.14 363.48 349.67 412.73 397.42 412.73" style="fill:#263238"></polygon><polygon points="136.91 330.65 184.09 325.71 198.21 333 229.84 332.26 191.06 341.65 136.91 330.65" style="fill:#455a64"></polygon><polygon points="184.09 325.71 184.09 215.73 144.39 220.42 136.91 330.65 184.09 325.71" style="fill:#263238"></polygon><polygon points="215.91 221.15 198.21 333 229.3 214.72 215.91 221.15" style="fill:#263238"></polygon><polygon points="100.48 199.32 115.97 213.39 98.83 311.89 125.7 325.2 133.88 427.53 77.21 414.4 39.59 366.6 64.34 287.72 81.82 276.71 100.48 199.32" style="fill:#263238"></polygon><path d="M81.82,276.71l17,35.18s28.62,13.62,26.87,13.31-35.9-8.62-35.9-8.62L64.34,287.72Z" style="fill:#455a64"></path><path d="M120.05,182.66a3.46,3.46,0,0,0-1.24,4.37,7.16,7.16,0,0,0-3.08,1.36,2.49,2.49,0,0,0-.68,3.05,1.81,1.81,0,0,1,.37.66c.09.52-.46.93-.57,1.45-.2.94,1,1.48,2,1.59a.94.94,0,0,1,.6.2,1,1,0,0,1,.2.67,3.29,3.29,0,0,0,5.2,2.31,5.61,5.61,0,0,0,3.16,3.24A3.23,3.23,0,0,0,130,200a7.32,7.32,0,0,0,4.51,3.39c.94.23,2.28,0,2.31-1a3.69,3.69,0,0,0,2.11,1.36c.84.1,1.8-.73,1.47-1.52a3.32,3.32,0,0,0,4-.6,2,2,0,0,0,.33-.49,1.74,1.74,0,0,0-.3-1.62,3,3,0,0,0-2.79-1.2,3.48,3.48,0,0,0-3.54-3.42,3.11,3.11,0,0,0-3.78-4.45,2.29,2.29,0,0,0-2.54-3.76,2.89,2.89,0,0,0-.82-2.8,2.86,2.86,0,0,0-2.85-.58,1.32,1.32,0,0,1-.88.13,1.24,1.24,0,0,1-.45-.51,3.61,3.61,0,0,0-3.37-1.4A6.74,6.74,0,0,0,120.05,182.66Z" style="fill:#00ADB5"></path><path d="M141.61,198.34a3.48,3.48,0,0,0-3.54-3.42,3.2,3.2,0,0,0-.34-3.55l-.07-.06a1,1,0,0,1-.83-.2,2.26,2.26,0,0,1-1.6,3.87,3.45,3.45,0,0,1,1.35,1.88,1.18,1.18,0,0,1-.33,1.37,1.27,1.27,0,0,1-.75.1,5.3,5.3,0,0,1-3.89-2.45,1.41,1.41,0,0,1-1,1.12,2.52,2.52,0,0,1-1.58-.11,4.19,4.19,0,0,1-2.62-3.29,2,2,0,0,1-1.68,1,5.29,5.29,0,0,1-2-.33,4.3,4.3,0,0,1-1.51-.72,1.61,1.61,0,0,1-.6-1.47,3.73,3.73,0,0,1-3.62-.68,2.34,2.34,0,0,1,0-3.41.34.34,0,0,0,.12-.42,4.51,4.51,0,0,0-1.4.83,2.49,2.49,0,0,0-.68,3.05,1.81,1.81,0,0,1,.37.66c.09.52-.46.93-.57,1.45-.2.94,1,1.48,2,1.59a.94.94,0,0,1,.6.2,1,1,0,0,1,.2.67,3.29,3.29,0,0,0,5.2,2.31,5.61,5.61,0,0,0,3.16,3.24A3.23,3.23,0,0,0,130,200a7.32,7.32,0,0,0,4.51,3.39c.94.23,2.28,0,2.31-1a3.69,3.69,0,0,0,2.11,1.36c.84.1,1.8-.73,1.47-1.52a3.32,3.32,0,0,0,4-.6,2,2,0,0,0,.33-.49,1.74,1.74,0,0,0-.3-1.62A3,3,0,0,0,141.61,198.34Z" style="opacity:0.2"></path><path d="M285,114.89a2,2,0,0,1,.8-.14,1.69,1.69,0,0,1,.5.08,1.09,1.09,0,0,1,.23.09c.06,0,.37.46.3.5a.79.79,0,0,1,.91,1.28c.46,0,.84.42.88.88a2.58,2.58,0,0,1-.38,1.31,1.3,1.3,0,0,1,1.39,1.49,1.45,1.45,0,0,1,2,1.2,2,2,0,0,1,2.44,1.47,2.05,2.05,0,0,1,1,.33.72.72,0,0,1,.24.94c-.25.37-.83.27-1.19,0a1,1,0,0,1-1.1.68,3.14,3.14,0,0,1-1.29-.52,1.42,1.42,0,0,1-1.39,1,2,2,0,0,1-1.55-.89,1.52,1.52,0,0,1-1.44.52,1.56,1.56,0,0,1-1.15-1,3,3,0,0,1-1.9.83,1.68,1.68,0,0,1-1.63-1.11c-.67.68-1.52,1.42-2.45,1.22-.43-.1-.84-.4-1.27-.31s-.78.3-.91,0a.44.44,0,0,1,.09-.39,2,2,0,0,1,1.22-.88,1.36,1.36,0,0,1,.24-1.33,1.38,1.38,0,0,1,1.27-.46,1.12,1.12,0,0,1,.07-1.26,1.15,1.15,0,0,1,1.2-.4c0-.44-.52-.76-.5-1.2a.81.81,0,0,1,.21-.47,2.57,2.57,0,0,1,1.94-1,2.93,2.93,0,0,1,0-.78,2.48,2.48,0,0,1,.26-.75,2.12,2.12,0,0,1,.82-.86Z" style="fill:#00ADB5"></path><path d="M292.09,123.51a1.43,1.43,0,0,1-1.08.56.81.81,0,0,1-.82-.78,1.69,1.69,0,0,1-2.89-1,1.43,1.43,0,0,1-2,.05,1,1,0,0,1-1.93-.61,1.66,1.66,0,0,1-.8-.05.62.62,0,0,1-.44-.61.74.74,0,0,1,.17-.37,4.41,4.41,0,0,1,1.13-1.15,1.73,1.73,0,0,1-1.16-1.7,2.19,2.19,0,0,0-.48.48.81.81,0,0,0-.21.47c0,.44.51.76.5,1.2a1.15,1.15,0,0,0-1.2.4,1.12,1.12,0,0,0-.07,1.26,1.38,1.38,0,0,0-1.27.46,1.36,1.36,0,0,0-.24,1.33,2,2,0,0,0-1.22.88.44.44,0,0,0-.09.39c.13.31.58.08.91,0s.84.21,1.27.31c.93.2,1.78-.54,2.45-1.22a1.68,1.68,0,0,0,1.63,1.11,3,3,0,0,0,1.9-.83,1.56,1.56,0,0,0,1.15,1,1.52,1.52,0,0,0,1.44-.52,2,2,0,0,0,1.55.89,1.42,1.42,0,0,0,1.39-1A3.14,3.14,0,0,0,293,125a1.19,1.19,0,0,0,.76-.22A2.92,2.92,0,0,1,292.09,123.51Z" style="opacity:0.2"></path><path d="M406.13,299.77c-3-3.39-2.34-7.93,1.64-9.43s8,2.55,6.61,6.82C413.29,300.5,408.94,301,406.13,299.77Z" style="fill:#00ADB5"></path><path d="M411.76,292.06c0-.05.07-.1.08-.1a2.69,2.69,0,0,0,.19-.38,2.36,2.36,0,0,0,.13-.75l-.34-.19a.7.7,0,0,1,.05.32,2.54,2.54,0,0,1-.17.67c0,.09-.07.17-.1.25-.87-1.19-2.82-1.32-4.12-1a7.09,7.09,0,0,0-1.31.42,5.18,5.18,0,0,0-1.1,1.25,5.71,5.71,0,0,1,2.77-1.17,5.38,5.38,0,0,1,2,0,3.46,3.46,0,0,1,1.51.63,3.82,3.82,0,0,0-.9.1,6.3,6.3,0,0,0-1.27.42,9.82,9.82,0,0,0-2.26,1.43,10,10,0,0,0-2,2c-.16.23-.35.52-.5.79a5.67,5.67,0,0,0,.35,1c0-.06.09-.17.13-.23a8.28,8.28,0,0,1,.68-1.15,11.26,11.26,0,0,1,1.86-2,10.8,10.8,0,0,1,2-1.32q.52-.25,1.08-.48c.34-.13.69-.21,1-.37h0a6,6,0,0,1,.3,2.89,7.8,7.8,0,0,1-1,2.67,6.17,6.17,0,0,1-1.38,1.55,4.68,4.68,0,0,1-1.47.88l-.29.07a9.52,9.52,0,0,0,1.31.12c.18-.12.34-.24.48-.35a6.93,6.93,0,0,0,1.67-1.91,8.5,8.5,0,0,0,1-3,4.35,4.35,0,0,0-.35-2.69,5,5,0,0,1,1.84,3,6.16,6.16,0,0,1,.17,2,4.78,4.78,0,0,1-.25,1.1,4.39,4.39,0,0,0,.64-1.17,7.34,7.34,0,0,0-.07-1.75C414,294.21,413.23,292.39,411.76,292.06Z" style="opacity:0.2"></path><path d="M409,298.9a4.29,4.29,0,0,0-1-2.49c-.6-.68-1.81-1.13-3.76-.79a7,7,0,0,0,1.85,4.15c2.81,1.24,7.16.73,8.25-2.61a5.5,5.5,0,0,0,.25-2.25C414.41,297.77,411.5,299,409,298.9Z" style="opacity:0.2"></path><path d="M407.94,298.37a3.84,3.84,0,1,1-3.65-4A3.83,3.83,0,0,1,407.94,298.37Z" style="fill:#00ADB5"></path><path d="M407.94,298.37a3.84,3.84,0,1,1-3.65-4A3.83,3.83,0,0,1,407.94,298.37Z" style="opacity:0.2"></path><path d="M407.94,298.37a3.89,3.89,0,0,0,0-.59,3.32,3.32,0,0,1-3.79,3c-2.69-.15-3.93-2-3.71-3.6a4,4,0,0,0-.15.86,3.84,3.84,0,0,0,7.68.38Z" style="opacity:0.2"></path><path d="M407.63,299.7l.1-.28a5.72,5.72,0,0,0-.92-1.27,3.71,3.71,0,0,0-1.65-.93,3.71,3.71,0,0,0,1-.55,2.76,2.76,0,0,0,.82-1l-.14-.16a3.8,3.8,0,0,1-.29.38,3.09,3.09,0,0,1-.54.48,3.25,3.25,0,0,1-1.33.55l-.09,0a3.54,3.54,0,0,0,.21-.52,4.45,4.45,0,0,0,.23-1.07,3.57,3.57,0,0,0,0-.92l-.26,0a3,3,0,0,1,0,1,4.71,4.71,0,0,1-.25.91c-.07.16-.14.32-.2.49,0-.06,0-.11-.05-.16a2,2,0,0,0-.26-.53,3,3,0,0,0-.92-.85A3.1,3.1,0,0,0,402,295a4.59,4.59,0,0,0-.44.33,4.47,4.47,0,0,1,1.26.37,2.58,2.58,0,0,1,.91.76,4.26,4.26,0,0,1,.32.5.84.84,0,0,0,0,.12,1.66,1.66,0,0,0-.28,0,2.15,2.15,0,0,0-.67,0,4.66,4.66,0,0,0-1.43.53,4.33,4.33,0,0,0-1.41,1.35c0,.12.06.24.09.36.1-.12.17-.26.28-.37a4.86,4.86,0,0,1,1.11-1,5.07,5.07,0,0,1,1.33-.5c.2,0,.4-.1.61-.13l.3,0h.05a4.91,4.91,0,0,0-1.43,2.15,5.6,5.6,0,0,0-.26,1.46,5.23,5.23,0,0,0,0,.79,3.21,3.21,0,0,0,.33.12,6,6,0,0,1-.07-.85,4.64,4.64,0,0,1,.22-1.34,5,5,0,0,1,1.35-2.13,12.69,12.69,0,0,1,.48,1.21,8.44,8.44,0,0,1,.27,1.4,7.49,7.49,0,0,1,0,1.42c0,.15,0,.29-.06.43l.27-.07c0-.11,0-.23,0-.32a7.23,7.23,0,0,0-.27-3.09,6.31,6.31,0,0,0-.41-1,4,4,0,0,1,2.11,1A5.48,5.48,0,0,1,407.63,299.7Z" style="opacity:0.2"></path><path d="M351,413.05c-2.18-.33-3.07-4.87-2.44-9.85s3.49-12.33,4.29-12.27,2.67,7.63,2.7,12.76C355.58,409.91,353.17,413.38,351,413.05Z" style="fill:#00ADB5"></path><path d="M351,413.05c-2.18-.33-3.07-4.87-2.44-9.85s3.49-12.33,4.29-12.27,2.67,7.63,2.7,12.76C355.58,409.91,353.17,413.38,351,413.05Z" style="opacity:0.30000000000000004"></path><path d="M350.31,398.1c.45.56.8,1.55,1.69,1.45.72-.08,1-.88,1.63-1.13a1.71,1.71,0,0,1,1.46.27c0-.19,0-.37-.08-.55a2.14,2.14,0,0,0-1.28-.29,1.75,1.75,0,0,0-1,.58c-.3.29-.66.73-1.14.59s-.76-.78-1.07-1.18a1.65,1.65,0,0,0-.63-.52c-.05.14-.09.27-.13.41A1.28,1.28,0,0,1,350.31,398.1Zm2.29-2.18a2.94,2.94,0,0,0,.64-.76,1,1,0,0,1,1.07-.33h0l-.12-.47-.21,0a1.24,1.24,0,0,0-.86.3c-.27.24-.39.62-.67.84-.52.4-1-.16-1.25-.59l-.27-.59c0,.11-.09.22-.13.34s.11.28.17.41C351.26,395.63,351.92,396.35,352.6,395.92Zm.64,6.13c-.36.28-.64.72-1.07.9-1.05.43-1.5-1.22-2.25-1.64a1.46,1.46,0,0,0-1-.15c0,.14-.06.27-.08.41a1.13,1.13,0,0,1,.55-.06,1.5,1.5,0,0,1,1.05.73c.42.59,1,1.43,1.82,1.16a2.8,2.8,0,0,0,.95-.69,1.86,1.86,0,0,1,1.43-.57,2.07,2.07,0,0,1,.88.35l0-.5a2.1,2.1,0,0,0-1.06-.33A1.85,1.85,0,0,0,353.24,402.05Zm1.09,3.63a2.18,2.18,0,0,0-1.42.35c-.48.31-.79.84-1.29,1.1-1.1.57-1.48-1.08-2.37-1.39a1.8,1.8,0,0,0-.89-.07c0,.14,0,.27,0,.4a2,2,0,0,1,.34,0,1.56,1.56,0,0,1,1.29.78c.5.72,1.11,1.27,2,.71.47-.3.77-.8,1.26-1.08a1.65,1.65,0,0,1,1.74,0,3.83,3.83,0,0,1,.37.36l.06-.51A1.81,1.81,0,0,0,354.33,405.68Z" style="fill:#00ADB5;opacity:0.5"></path><path d="M351,413.05c2.18.33,4.59-3.14,4.55-9.36a35.77,35.77,0,0,0-.49-5.28,20.58,20.58,0,0,0-3,4.72,48.88,48.88,0,0,0-2.59-4.39,32,32,0,0,0-.95,4.46C347.92,408.18,348.81,412.72,351,413.05Z" style="opacity:0.1"></path><path d="M349.56,415.79c-2.58,2.11-5.91-4-7.85-8.59s-2.48-17.29-1.16-18.13c.94-.6,7.5,10,9.16,15.38C350.92,408.33,351.61,414.12,349.56,415.79Z" style="fill:#00ADB5"></path><path d="M349.56,415.79c-2.58,2.11-5.91-4-7.85-8.59s-2.48-17.29-1.16-18.13c.94-.6,7.5,10,9.16,15.38C350.92,408.33,351.61,414.12,349.56,415.79Z" style="opacity:0.1"></path><path d="M341.41,397.94a1.69,1.69,0,0,0,2.22-.56c.55-.76.92-1.68,1.92-1.68l-.36-.62a1.65,1.65,0,0,0-.48.1c-.84.33-1.12,1.27-1.66,1.91-.83,1-2,0-3,.14l-.09,0c0,.19,0,.39,0,.58A2.81,2.81,0,0,1,341.41,397.94Zm8.65,7.75-.47-.08a1.7,1.7,0,0,0-1.28.45c-.78.72-.66,2.1-2.06,1.9-1.07-.16-1.93-.75-2.95-.08a3.75,3.75,0,0,0-.91.87l.21.46a3,3,0,0,1,1.26-1c1.14-.44,2.16.65,3.3.32.94-.27.92-1.33,1.52-1.92a1.49,1.49,0,0,1,1.54-.27C350.17,406.12,350.11,405.91,350.06,405.69Zm-9.13-12.31c.38.41.9.86,1.46.48s.57-1.2.93-1.76l-.28-.4c-.34.58-.41,1.78-1.18,1.83-.61,0-.95-.84-1.49-1a.91.91,0,0,0-.51,0c0,.13,0,.25,0,.38l.12,0C340.39,392.77,340.67,393.1,340.93,393.38Zm3.2,9.28c1.13.12,1.51-1.26,1.92-2a3.39,3.39,0,0,1,1.38-1.47l-.29-.56a2,2,0,0,0-.55.28,3.66,3.66,0,0,0-1,1.35,5,5,0,0,1-1,1.62c-.54.45-1.3-.07-1.93-.11a3.32,3.32,0,0,0-1.67.33,2.53,2.53,0,0,0-.49.31c0,.27.09.54.13.8a2.7,2.7,0,0,1,1.72-.81A9,9,0,0,1,344.13,402.66Z" style="fill:#00ADB5"></path><path d="M347.68,399.64a15.47,15.47,0,0,0-1.83,4,49,49,0,0,0-5.84-5.37,34,34,0,0,0,1.7,9c1.94,4.64,5.27,10.7,7.85,8.59,2.05-1.67,1.36-7.46.15-11.34A35.43,35.43,0,0,0,347.68,399.64Z" style="opacity:0.1"></path><path d="M349.74,419.08c-5.06.87-10.18-1.67-13.71-5.2s-6.87-11.29-6.23-11.86,9.44,3.54,12.95,6.84A32.84,32.84,0,0,1,349.74,419.08Z" style="fill:#00ADB5"></path><path d="M349.74,419.08c-5.06.87-10.18-1.67-13.71-5.2s-6.87-11.29-6.23-11.86,9.44,3.54,12.95,6.84A32.84,32.84,0,0,1,349.74,419.08Z" style="opacity:0.2"></path><path d="M337.15,407.61A2.36,2.36,0,0,0,337,406a1.39,1.39,0,0,1,.09-1l-.62-.34a2.07,2.07,0,0,0-.05,1.41c.15.57.38,1.29-.4,1.49s-2.12-.42-2.7.51c-.29.45-.1,1-.06,1.44a1.3,1.3,0,0,1-.11.64c.11.19.23.37.35.55a1.83,1.83,0,0,0,.28-.91c0-.6-.32-1.34.47-1.56a7.59,7.59,0,0,1,1.65,0A1.3,1.3,0,0,0,337.15,407.61Zm-3.33-3.93a1.05,1.05,0,0,1,.2-.27l-.49-.22c-.32.53-.24,1.21-.56,1.74a.87.87,0,0,1-.93.38,1.69,1.69,0,0,0-1.06.16,1,1,0,0,0-.2.15c.05.11.11.23.16.35a1.27,1.27,0,0,1,.52-.21c.38-.05.76.11,1.15,0a1,1,0,0,0,.63-.43C333.61,404.87,333.56,404.22,333.82,403.68Zm6.43,6.18a2.55,2.55,0,0,0,.62-1.4,8.08,8.08,0,0,0,0-1.1l-.53-.37a5.47,5.47,0,0,1-.15,1.8,1.61,1.61,0,0,1-1.49,1,1.69,1.69,0,0,0-1.31.59,2.65,2.65,0,0,0-.36,1.43,2.18,2.18,0,0,1-.66,1.87,2.33,2.33,0,0,1-.34.2l.42.4a2,2,0,0,0,.67-.63c.74-1.1-.18-3,1.63-3.24A2.19,2.19,0,0,0,340.25,409.86Zm2.8.19a2.68,2.68,0,0,1,.32-.57c-.16-.17-.33-.34-.5-.5a3.24,3.24,0,0,0-.63,1.69,4.94,4.94,0,0,1-.45,2c-.38.62-1.09.64-1.64,1a2.51,2.51,0,0,0-.94,1.39,5.76,5.76,0,0,0-.12,1.31l.59.38v-.08a3.27,3.27,0,0,1,.54-2.07c.48-.57,1.23-.58,1.76-1.05C343,412.67,342.62,411.2,343.05,410.05Zm2.45,1.87a5,5,0,0,0-.37.43c-.76,1.06-.51,2.28-.69,3.49a2.06,2.06,0,0,1-.92,1.58c-.46.25-1,.12-1.41.55l0,0c.26.12.54.23.81.33a1.84,1.84,0,0,1,.42-.1,2,2,0,0,0,.77-.28,2.3,2.3,0,0,0,.84-1.17c.4-1.16,0-2.46.55-3.58a3.47,3.47,0,0,1,.48-.7Q345.74,412.22,345.5,411.92Z" style="fill:#00ADB5"></path><path d="M336.46,404.64c1,4.17,4.52,15.25,13.28,14.44a26.45,26.45,0,0,0-13.28-14.44Z" style="opacity:0.2"></path><path d="M349.74,419.08c-4.07-.12-7.8-2.26-10.44-9.6s-3.3-10.72-2.17-11.61c1.3-1,7.64,5.95,9.79,9.1C352.31,414.86,349.74,419.08,349.74,419.08Z" style="fill:#00ADB5"></path><path d="M340.7,406c1,.19,2.37.38,3-.69a9.3,9.3,0,0,0,.53-1.73c-.2-.24-.41-.47-.62-.71-.36.76-.23,1.81-1,2.31a2.49,2.49,0,0,1-1.86.14,4.38,4.38,0,0,0-1.87-.07,2.63,2.63,0,0,0-.92.45c.07.22.14.45.22.67a2.45,2.45,0,0,1,.38-.24A3.12,3.12,0,0,1,340.7,406Zm-1.63-3.77a1.72,1.72,0,0,0,.95.07c.59-.2.84-.82,1.1-1.34a2.34,2.34,0,0,1,.26-.43l-.43-.41-.06.09c-.33.5-.54,1.47-1.25,1.57a5.3,5.3,0,0,1-1-.18,2.27,2.27,0,0,0-.86.08,2.1,2.1,0,0,0-.77.4c0,.17.08.35.13.53a2.48,2.48,0,0,1,1-.45A2.06,2.06,0,0,1,339.07,402.23Zm5.34,7.87a5.55,5.55,0,0,1,1-1.73,2.68,2.68,0,0,1,2-.6c-.17-.26-.34-.53-.53-.8a3.25,3.25,0,0,0-1.37.24,3,3,0,0,0-1.4,1.3,8.4,8.4,0,0,1-.86,1.59c-.73.84-1.91.32-2.84.24a3.55,3.55,0,0,0-.8,0l.3.75a3.54,3.54,0,0,1,1.07,0C342.43,411.43,343.65,411.54,344.41,410.1Zm4.78.94-.2.08a3.19,3.19,0,0,0-1.24,1.18c-.33.54-.46,1.18-.77,1.73a1.27,1.27,0,0,1-1.53.72,2.71,2.71,0,0,0-1.78.07,2.87,2.87,0,0,0-1,.83l.48.52a2.59,2.59,0,0,1,.8-.6,1.93,1.93,0,0,1,1.4,0,2.19,2.19,0,0,0,2.74-1.19c.28-.54.42-1.16.75-1.68a2.18,2.18,0,0,1,.75-.73C349.45,411.68,349.33,411.37,349.19,411Z" style="fill:#fff;opacity:0.2"></path><path d="M346.92,407c-.39-.57-.92-1.27-1.52-2-1.12,5.56-.78,13.44,4.34,14.13C349.74,419.08,352.31,414.86,346.92,407Z" style="opacity:0.15"></path><path d="M351.81,418.85c5.13-.32,9.53-4,12.17-8.19s4.12-12.56,3.37-13-8.39,5.6-11.05,9.61A32.81,32.81,0,0,0,351.81,418.85Z" style="fill:#00ADB5"></path><path d="M351.81,418.85c5.13-.32,9.53-4,12.17-8.19s4.12-12.56,3.37-13-8.39,5.6-11.05,9.61A32.81,32.81,0,0,0,351.81,418.85Z" style="opacity:0.2"></path><path d="M362.79,405.17a7.44,7.44,0,0,1,1.61-.4c.81,0,.67.83.81,1.41a1.67,1.67,0,0,0,.48.82l.21-.6a1.48,1.48,0,0,1-.25-.6c-.07-.48,0-1-.38-1.39-.79-.77-1.88.13-2.76.11s-.74-.77-.72-1.36a2.1,2.1,0,0,0-.37-1.36l-.53.47a1.44,1.44,0,0,1,.32,1,2.43,2.43,0,0,0,.25,1.57A1.3,1.3,0,0,0,362.79,405.17Zm2-3.43a1,1,0,0,0,.71.27c.39,0,.73-.26,1.12-.29a1.12,1.12,0,0,1,.55.08c0-.13.05-.25.07-.38l-.23-.1a1.62,1.62,0,0,0-1.06.09.88.88,0,0,1-1-.16c-.44-.45-.52-1.12-.95-1.57l-.42.33a1,1,0,0,1,.25.22C364.19,400.69,364.29,401.33,364.76,401.74Zm-4.22,6.17c1.81-.21,1.35,1.88,2.32,2.79a2,2,0,0,0,.79.46c.11-.16.22-.32.32-.49a2.29,2.29,0,0,1-.37-.12,2.19,2.19,0,0,1-1.08-1.67,2.53,2.53,0,0,0-.66-1.3,1.65,1.65,0,0,0-1.41-.28,1.62,1.62,0,0,1-1.69-.65,5.25,5.25,0,0,1-.55-1.72l-.44.48a9.28,9.28,0,0,0,.26,1.07,2.55,2.55,0,0,0,.92,1.22A2.2,2.2,0,0,0,360.54,407.91Zm-2.42,3.8c.62.34,1.35.17,1.95.62a3.23,3.23,0,0,1,1,1.9.24.24,0,0,1,0,.08l.49-.51a5.57,5.57,0,0,0-.42-1.25,2.44,2.44,0,0,0-1.23-1.14c-.62-.26-1.32-.12-1.83-.64a4.82,4.82,0,0,1-.88-1.82,3.37,3.37,0,0,0-1-1.51c-.13.2-.26.4-.38.6a2.54,2.54,0,0,1,.44.49C357,409.55,356.93,411.06,358.12,411.71Zm-4.11-.12a2.83,2.83,0,0,1,.62.58c.78,1,.7,2.32,1.35,3.35a2.29,2.29,0,0,0,1.09,1,2.08,2.08,0,0,0,.82.1,2.06,2.06,0,0,1,.43,0l.71-.5,0,0c-.47-.33-1-.08-1.5-.22a2.07,2.07,0,0,1-1.25-1.33c-.46-1.13-.49-2.39-1.47-3.24a3.83,3.83,0,0,0-.46-.33Z" style="fill:#00ADB5"></path><path d="M361.47,401.76c0,4.27-.94,15.88-9.66,17.09a32.81,32.81,0,0,1,4.49-11.55A32.08,32.08,0,0,1,361.47,401.76Z" style="opacity:0.2"></path><path d="M351.81,418.85c3.94-1.05,7.09-4,8-11.73s.78-11.19-.52-11.8c-1.5-.7-6.09,7.53-7.47,11.08C348.35,415.32,351.81,418.85,351.81,418.85Z" style="fill:#00ADB5"></path><path d="M359.71,403.7l.42.15c0-.24.05-.48.06-.71a2.51,2.51,0,0,0-1-.22,4.4,4.4,0,0,0-1.81.49,2.51,2.51,0,0,1-1.85.28c-.82-.32-.93-1.37-1.45-2l-.45.84a9.89,9.89,0,0,0,.91,1.56c.86.9,2.13.41,3.09,0A3.12,3.12,0,0,1,359.71,403.7Zm-.46-4a2.4,2.4,0,0,1,1.12.2v-.55a2.16,2.16,0,0,0-.83-.21,2.32,2.32,0,0,0-.87.12,5,5,0,0,1-1,.41c-.71.06-1.13-.83-1.57-1.25,0,0-.05,0-.08-.07l-.33.5a2.45,2.45,0,0,1,.36.36c.36.44.75,1,1.37,1.05a1.59,1.59,0,0,0,.91-.29A2.15,2.15,0,0,1,359.25,399.73Zm-.75,9.41a3.78,3.78,0,0,1,1-.28c.05-.26.09-.52.13-.79a3.56,3.56,0,0,0-.79.15c-.89.29-1.92,1.06-2.82.41a8.17,8.17,0,0,1-1.19-1.36,3,3,0,0,0-1.66-.94,3.46,3.46,0,0,0-1.4.07l-.33.9a2.77,2.77,0,0,1,2.09.13,5.56,5.56,0,0,1,1.4,1.46C356,410.11,357.19,409.72,358.5,409.14Zm-8.12,2.76a2.15,2.15,0,0,1,.9.54c.44.42.7,1,1.1,1.46a2.18,2.18,0,0,0,2.94.53,2,2,0,0,1,1.36-.33,2.46,2.46,0,0,1,.92.41c.12-.21.24-.41.35-.63a3,3,0,0,0-1.2-.57,2.73,2.73,0,0,0-1.74.33,1.27,1.27,0,0,1-1.66-.34c-.42-.47-.7-1.06-1.15-1.52a3.22,3.22,0,0,0-1.47-.86,1.52,1.52,0,0,0-.21,0C350.46,411.24,350.41,411.57,350.38,411.9Z" style="fill:#fff;opacity:0.2"></path><path d="M351.8,406.4c.25-.64.61-1.44,1-2.3,2.35,5.15,3.81,12.9-1,14.75C351.81,418.85,348.35,415.32,351.8,406.4Z" style="opacity:0.15"></path><path d="M350.87,419.8c3.38-.39,4-5.12,3.21-8.78s-3.91-10.44-5.4-10.27-3,7.48-2.93,11.22S347.49,420.18,350.87,419.8Z" style="fill:#00ADB5"></path><path d="M350.87,419.8c3.38-.39,4-5.12,3.21-8.78s-3.91-10.44-5.4-10.27-3,7.48-2.93,11.22S347.49,420.18,350.87,419.8Z" style="fill:#fff;opacity:0.30000000000000004"></path><path d="M349.21,405.57c.53-.17.82-.65,1.16-1.05a2.22,2.22,0,0,1,1-.66c-.11-.21-.23-.41-.34-.6a3.11,3.11,0,0,0-1.32,1,2,2,0,0,1-.65.61c-.39.19-.66,0-1-.24a2.32,2.32,0,0,0-1.19-.54h0c-.05.18-.09.37-.14.56a2.09,2.09,0,0,1,1.25.53A1.3,1.3,0,0,0,349.21,405.57Zm-2,4.35c1.23.75,2-.61,2.65-1.44a1.26,1.26,0,0,1,1.9-.39,4.77,4.77,0,0,0,1.39.78,1.9,1.9,0,0,0,.4.05l-.21-.62a3.81,3.81,0,0,1-1.48-.76c-1.1-.71-2-.26-2.66.75-.39.58-1,1.57-1.86,1.09-.48-.28-.75-.82-1.26-1.09h0c0,.19-.05.38-.07.57C346.41,409.1,346.7,409.64,347.16,409.92Zm1.73,3.9a1.43,1.43,0,0,0,2.33.06c.39-.4.61-.93,1-1.3a2.16,2.16,0,0,1,2.05-.18c0-.2-.05-.4-.08-.6a4,4,0,0,0-1-.18,1.87,1.87,0,0,0-1.42.46c-.44.39-.68,1-1.1,1.37a1.14,1.14,0,0,1-.94.42c-.4-.1-.69-.55-1-.81a2.75,2.75,0,0,0-1.39-.59,2.42,2.42,0,0,0-1.6.34c0,.2,0,.39.06.58A2.4,2.4,0,0,1,348.89,413.82Zm3.6,3.07a2.66,2.66,0,0,1-1.84.8,1.57,1.57,0,0,1-1-.31c-.21-.17-.37-.39-.58-.56a2.3,2.3,0,0,0-1.35-.49,2.39,2.39,0,0,0-1,.22,6.11,6.11,0,0,0,.27.58,1.77,1.77,0,0,1,1.71,0c.44.25.69.72,1.15,1a2.44,2.44,0,0,0,1.36.19,3.17,3.17,0,0,0,1.36-.51c.45-.31.75-.79,1.19-1.12a2,2,0,0,1,.37-.22,6.66,6.66,0,0,0,.16-.8,3.16,3.16,0,0,0-.46.16A4.68,4.68,0,0,0,352.49,416.89Z" style="fill:#fff;opacity:0.2"></path></g></g><g id="freepik--Bottle--inject-17"><g id="freepik--Water--inject-17"><path id="freepik--shadow--inject-17" d="M157.12,429.13c3.53,2,3.53,5.35,0,7.39a14.19,14.19,0,0,1-12.79,0c-3.53-2-3.53-5.35,0-7.39A14.13,14.13,0,0,1,157.12,429.13Z" style="fill:#00ADB5;opacity:0.35000000000000003"></path><g id="freepik--Jar--inject-17"><path d="M156.16,414.08a7.66,7.66,0,0,0-1-.5,1.77,1.77,0,0,1-1.14-1.64v-2h-6.51v2a1.77,1.77,0,0,1-1.14,1.64,7.66,7.66,0,0,0-1,.5,3.79,3.79,0,0,0-2.24,3.13v15.05a3.81,3.81,0,0,0,2.24,3.14,12,12,0,0,0,10.87,0,3.83,3.83,0,0,0,2.24-3.14V417.21A3.81,3.81,0,0,0,156.16,414.08Z" style="fill:#00ADB5"></path><path d="M156.16,414.08a7.66,7.66,0,0,0-1-.5,1.77,1.77,0,0,1-1.14-1.64v-2h-6.51v2a1.77,1.77,0,0,1-1.14,1.64,7.66,7.66,0,0,0-1,.5,3.79,3.79,0,0,0-2.24,3.13v15.05a3.81,3.81,0,0,0,2.24,3.14,12,12,0,0,0,10.87,0,3.83,3.83,0,0,0,2.24-3.14V417.21A3.81,3.81,0,0,0,156.16,414.08Z" style="opacity:0.2"></path><path d="M150.72,435.7a10.09,10.09,0,0,1-4.93-1.17,2.92,2.92,0,0,1-1.74-2.27V417.21a2.92,2.92,0,0,1,1.74-2.27,8.75,8.75,0,0,1,.92-.44,2.75,2.75,0,0,0,1.76-2.56v-1H153v1a2.76,2.76,0,0,0,1.77,2.56,9.62,9.62,0,0,1,.91.44,2.92,2.92,0,0,1,1.74,2.27v15.05a2.92,2.92,0,0,1-1.74,2.27A10.11,10.11,0,0,1,150.72,435.7Z" style="fill:#00ADB5"></path><path d="M145.76,435.15c-2.74-1.57-2.74-4.11,0-5.68a11.08,11.08,0,0,1,9.94,0c2.74,1.57,2.74,4.11,0,5.68A11.14,11.14,0,0,1,145.76,435.15Z" style="opacity:0.2"></path><path d="M154.61,412a8.46,8.46,0,0,0-5.22-.82v-1.28h-1.92v2a1.77,1.77,0,0,1-1.14,1.64,7.66,7.66,0,0,0-1,.5l0,0a3.78,3.78,0,0,0-2.21,3.11v15.05a3.81,3.81,0,0,0,2.24,3.14,12,12,0,0,0,8,1c-6.24.43-7.75-2.22-7.75-4.13V417.67a2.2,2.2,0,0,1,.57-1.7,4.5,4.5,0,0,0,.76.55,8.56,8.56,0,0,0,7.76,0C156.75,415.29,156.75,413.28,154.61,412Z" style="opacity:0.15"></path><path d="M156.16,414.08a7.66,7.66,0,0,0-1-.5,1.77,1.77,0,0,1-1.14-1.64v-2h-.71v2.67a2,2,0,0,0,1.14,1.53c.62.34,2.57,1.18,3,2.11s.3,2.63.3,4.71v10.62a4.82,4.82,0,0,1-3.06,4.48,8.53,8.53,0,0,0,1.47-.66c1.5-.87,2.24-2,2.24-3.15V417.21A3.79,3.79,0,0,0,156.16,414.08Z" style="fill:#fff;opacity:0.4"></path><path d="M156.21,412.75v.56a2.72,2.72,0,0,1-1.6,2.25,8.56,8.56,0,0,1-7.76,0,3.59,3.59,0,0,1-1.2-1.05,2,2,0,0,1-.4-1.19v-.59a1.47,1.47,0,0,1,0-.36,3,3,0,0,1,1.56-1.88l.08,0a8.64,8.64,0,0,1,7.68,0,3,3,0,0,1,1.56,1.87A1.72,1.72,0,0,1,156.21,412.75Z" style="fill:#37474f"></path><path d="M151.18,415.9v-2c0-.8.2.28-1.2.28-1.21,0-2.29-2.8-3-3.71l-.08,0a3,3,0,0,0-1.56,1.88,1.47,1.47,0,0,0,0,.36v.59a2,2,0,0,0,.4,1.19,3.59,3.59,0,0,0,1.2,1.05,8.56,8.56,0,0,0,7.76,0C153.09,416.16,151.18,416.66,151.18,415.9Z" style="fill:#263238"></path><path d="M146.85,415c-2.14-1.23-2.14-3.24,0-4.47a8.56,8.56,0,0,1,7.76,0c2.14,1.23,2.14,3.24,0,4.47A8.56,8.56,0,0,1,146.85,415Z" style="fill:#00ADB5"></path><path d="M156.21,410.85V412a1.64,1.64,0,0,1,0,.38,3,3,0,0,1-1.56,1.87,7.66,7.66,0,0,1-3.43.91,8.12,8.12,0,0,1-4.33-.91,3.69,3.69,0,0,1-1.2-1.05,2,2,0,0,1-.36-.81,1.58,1.58,0,0,1,0-.38v-1.16a2.72,2.72,0,0,1,1.6-2.24l.29-.15a8.65,8.65,0,0,1,7.47.15A2.73,2.73,0,0,1,156.21,410.85Z" style="fill:#37474f"></path><path d="M146.85,413.05c-2.14-1.24-2.14-3.24,0-4.48a8.56,8.56,0,0,1,7.76,0c2.14,1.24,2.14,3.24,0,4.48A8.62,8.62,0,0,1,146.85,413.05Z" style="fill:#455a64"></path><path d="M145.65,413.18a3.69,3.69,0,0,0,1.2,1.05,8.12,8.12,0,0,0,4.33.91h0c0-.4.23-.7-1.2-1-1.19-.23-2.95-.72-3.78-2a2.77,2.77,0,0,1,.94-3.69l-.29.15a2.72,2.72,0,0,0-1.6,2.24V412a1.58,1.58,0,0,0,0,.38A2,2,0,0,0,145.65,413.18Z" style="fill:#263238"></path></g></g></g><g id="freepik--Backpack--inject-17"><g id="freepik--backpack--inject-17"><path id="freepik--shadow--inject-17" d="M120.51,426.05c11,6.33,14.71,10.61,3.75,16.94s-20,2.74-31-3.59S76.85,429.34,87.82,423,109.55,419.72,120.51,426.05Z" style="fill:#00ADB5;opacity:0.35000000000000003"></path><path d="M104.17,385c-3.31-.16-8.75,2.75-10.21,4.93S84,427,86.47,430c3.06,3.81,18.93,12.51,26.61,12.56a15.24,15.24,0,0,0,11.54-5.07c1.89-2.31,4.63-39.11,3-41.91C125,391.09,108.39,385.21,104.17,385Z" style="fill:#00ADB5"></path><path d="M104.17,385c-3.31-.16-8.75,2.75-10.21,4.93S84,427,86.47,430c3.06,3.81,18.93,12.51,26.61,12.56a15.24,15.24,0,0,0,11.54-5.07c1.89-2.31,4.63-39.11,3-41.91C125,391.09,108.39,385.21,104.17,385Z" style="fill:#fff;opacity:0.6000000000000001"></path><path d="M124.62,437.53c1.89-2.31,4.63-39.11,3-41.91a9.33,9.33,0,0,0-2.68-2.56,17.3,17.3,0,0,1-3.24.69,6.91,6.91,0,0,0-4.16,5.53l-2.25,16.08-.21,1.53c-.25,2.1-4.29,26.41,1.88,25.24A15.09,15.09,0,0,0,124.62,437.53Z" style="fill:#00ADB5;opacity:0.25"></path><path d="M128,397.43a5.4,5.4,0,0,0-.39-1.81c-2.65-4.53-19.23-10.41-23.45-10.61-3.31-.16-8.75,2.75-10.21,4.93a16.15,16.15,0,0,0-1.14,2.86c6.23,3.24,22.45,10.53,24.28,10,2.25-.6,10.68-5.15,10.9-5.4Z" style="fill:#00ADB5;opacity:0.5"></path><path d="M107,424.44c-3.33-1.53-10.65-5.6-12.7-6.54a2.76,2.76,0,0,0-2.41-.08c-.34.18-1.5.8-1.8.94a1.53,1.53,0,0,0-.89,1.12,57.47,57.47,0,0,0-.82,6.44c0,1.12.07,2.13,1.83,3.37S99.72,435,102,436.07s4.54,1.81,5.62,1.21c.27-.16,1.53-.78,1.86-1a1.14,1.14,0,0,0,.58-.93c.19-1.74.75-5.45.93-6.72C111.24,427.1,110.5,426.05,107,424.44Z" style="fill:#00ADB5"></path><path d="M107,424.44c-3.33-1.53-10.65-5.6-12.7-6.54a2.76,2.76,0,0,0-2.41-.08c-.34.18-1.5.8-1.8.94a1.53,1.53,0,0,0-.89,1.12,57.47,57.47,0,0,0-.82,6.44c0,1.12.07,2.13,1.83,3.37S99.72,435,102,436.07s4.54,1.81,5.62,1.21c.27-.16,1.53-.78,1.86-1a1.14,1.14,0,0,0,.58-.93c.19-1.74.75-5.45.93-6.72C111.24,427.1,110.5,426.05,107,424.44Z" style="opacity:0.30000000000000004"></path><path d="M109,428.21l1.89-.9c-.38-.92-1.49-1.76-3.89-2.87-3.33-1.53-10.65-5.6-12.7-6.54a2.76,2.76,0,0,0-2.41-.08c-.34.18-1.5.8-1.8.94a1.62,1.62,0,0,0-.79.78Z" style="opacity:0.4"></path><path d="M89.19,419.88a57.47,57.47,0,0,0-.82,6.44c0,1.12.07,2.13,1.83,3.37S99.72,435,102,436.07c2.83,1.33,6,2.26,6.2.27.2-1.74.75-5.45.93-6.71.22-1.56-.52-2.61-4-4.22-3.33-1.53-10.64-5.61-12.7-6.54C90.69,418.08,89.34,418.87,89.19,419.88Z" style="fill:#00ADB5"></path><path d="M89.19,419.88a57.47,57.47,0,0,0-.82,6.44c0,1.12.07,2.13,1.83,3.37S99.72,435,102,436.07c2.83,1.33,6,2.26,6.2.27.2-1.74.75-5.45.93-6.71.22-1.56-.52-2.61-4-4.22-3.33-1.53-10.64-5.61-12.7-6.54C90.69,418.08,89.34,418.87,89.19,419.88Z" style="opacity:0.18"></path><path d="M110.88,427.31c-.29-.89-2.07-.27-2.56.91s-.58,2.75-.82,3.26-18.4-8.75-18.87-9.28c-.22-.25.26-3.11,1-3.63S92,417.14,93,417.31s12,5.87,14.21,6.87S111.09,426.2,110.88,427.31Z" style="fill:#00ADB5"></path><path d="M101.75,430.44l2.2,1a.46.46,0,0,0,.65-.25l.36-1a.48.48,0,0,0-.26-.57l-2.2-1.06a.46.46,0,0,0-.64.24l-.36,1A.49.49,0,0,0,101.75,430.44Z" style="fill:#37474f"></path><path d="M90.93,424.89l2.2,1a.47.47,0,0,0,.65-.25l.35-1a.48.48,0,0,0-.26-.58l-2.2-1.05a.45.45,0,0,0-.64.24l-.36,1A.47.47,0,0,0,90.93,424.89Z" style="fill:#37474f"></path><path d="M88.8,407.22c.61-2.48,1-4.16,1.6-6.24,1-.58,2.32-1.31,2.32-1.31l8,2.31,7.44,2.16,1.69.49c.52.15,1,.44,1.58.55,1.36.3,3.49-.69,4.6-1.39a8.58,8.58,0,0,1,3.13-1.62c-.33,2.25-.69,4.49-1.07,6.74a21.87,21.87,0,0,1-1.52,6.26,4.09,4.09,0,0,1-2.8,2.13,12.93,12.93,0,0,1-4.43,0,28,28,0,0,1-.65,2.83,3.61,3.61,0,0,1-2.07,1.49c-1.26-.27-.92-5.39-.92-5.39L96.32,412a27.36,27.36,0,0,1-.83,2.75c-.59.72-1.67,1.52-2,1.44-1.59-.33-.52-5.85-.52-5.85A13.28,13.28,0,0,1,88.8,407.22Z" style="opacity:0.25"></path><path d="M103.83,385a14.3,14.3,0,0,0-10.11,4.15c-2.18,2.39-5.67,14.32-4.61,16.47s10.65,7,16.51,9.38c4.67,1.9,7.22,1.4,9.19.55,1.49-.63,1.68-2.64,2-4.14.74-3.84,1.84-10.73,4.86-12.89s5.78-2.82,6.36-1.08c0,0,1.16-2.54-4.09-5.22C115.2,387.78,108.31,385.17,103.83,385Z" style="fill:#00ADB5"></path><path d="M100.67,396.09l3.56-1.74a.78.78,0,0,1,1,.22l3.19,5.2a.62.62,0,0,1-.32.87l-3.53,1.76a.77.77,0,0,1-1-.22L100.34,397A.6.6,0,0,1,100.67,396.09Z" style="fill:#fafafa"></path><path d="M104,401.8l-3.07-5a.31.31,0,0,1,.16-.43l3.23-1.57a.39.39,0,0,1,.5.11l3,4.94a.31.31,0,0,1-.17.43l-3.19,1.59A.39.39,0,0,1,104,401.8Z" style="fill:#37474f"></path><path d="M103.42,399.42h0a.52.52,0,0,1-.3-.44l.16-2.4c0-.15.16-.21.33-.12h0a.52.52,0,0,1,.3.44l-.15,2.39C103.75,399.45,103.6,399.5,103.42,399.42Z" style="fill:#00ADB5"></path><path d="M105.19,400.29h0a.52.52,0,0,1-.3-.44l.16-2.39c0-.16.16-.21.33-.13h0a.52.52,0,0,1,.3.44l-.15,2.4C105.51,400.32,105.36,400.38,105.19,400.29Z" style="fill:#00ADB5"></path><path d="M106.7,408.49l3.1,1.18s-1.46,6.74-1.91,10.07c0,0-1,1.4-1.69,1.61s-1.45-1.43-1.43-2.64A86.75,86.75,0,0,1,106.7,408.49Z" style="fill:#455a64"></path><path d="M106.52,409.14l3.16,1.11a.62.62,0,0,0,.84-.41l.32-1.37a.67.67,0,0,0-.44-.74l-3.18-1.15a.6.6,0,0,0-.83.4l-.32,1.43A.65.65,0,0,0,106.52,409.14Z" style="fill:#37474f"></path><path d="M106.54,417.36a1.2,1.2,0,0,1,.74,1.21.69.69,0,0,1-1,.55,1.22,1.22,0,0,1-.75-1.22A.68.68,0,0,1,106.54,417.36Z" style="fill:#e0e0e0"></path><path d="M93.94,403l3,1.32s-1.36,6.67-2,10c0,0-1,1.36-1.78,1.54s-1.35-1.5-1.26-2.71A71.27,71.27,0,0,1,93.94,403Z" style="fill:#455a64"></path><path d="M93.71,403.69l3.09,1.25a.62.62,0,0,0,.86-.38l.4-1.35a.67.67,0,0,0-.4-.77l-3.09-1.29a.61.61,0,0,0-.85.37l-.41,1.41A.66.66,0,0,0,93.71,403.69Z" style="fill:#37474f"></path><path d="M93.74,411.89a1.2,1.2,0,0,1,.67,1.25.7.7,0,0,1-1,.5,1.17,1.17,0,0,1-.66-1.25A.69.69,0,0,1,93.74,411.89Z" style="fill:#e0e0e0"></path><path d="M128.24,424c-.17-.08-2.57-1.84-2.85-2-.51-.25-8.84,4-9.66,4.76-.57.51-.84,8.76-.62,9.35.09.22,2.78,1.77,2.86,2,.23.59,9-3.74,9.66-4.83S129,424.41,128.24,424Z" style="fill:#00ADB5"></path><path d="M128.24,424c-.17-.08-2.57-1.84-2.85-2-.51-.25-8.84,4-9.66,4.76-.57.51-.84,8.76-.62,9.35.09.22,2.78,1.77,2.86,2,.23.59,9-3.74,9.66-4.83S129,424.41,128.24,424Z" style="opacity:0.18"></path><path d="M118.58,428.8c-.56.52-.84,8.76-.61,9.36s9-3.74,9.66-4.83,1.35-8.92.61-9.29C127.73,423.8,119.4,428.06,118.58,428.8Z" style="fill:#00ADB5"></path><path d="M125.39,422.06c.28.14,2.68,1.9,2.85,2-.5-.24-8.84,4-9.66,4.76l-2.85-2C116.54,426.07,124.88,421.81,125.39,422.06Z" style="opacity:0.4"></path><path d="M118.58,428.8c-.56.52-.84,8.76-.61,9.36s9-3.74,9.66-4.83,1.35-8.92.61-9.29C127.73,423.8,119.4,428.06,118.58,428.8Z" style="opacity:0.30000000000000004"></path><path d="M115.73,426.82c.62-.31,2.25.53,2.92,1.1s1.16,3.18,3,3.64,4.87-1.64,5.62-3,1.79-4.3,1-5.37a3.24,3.24,0,0,0-3.79-1.11C123.06,422.65,116.06,425.54,115.73,426.82Z" style="fill:#00ADB5"></path><path d="M124.25,428.21a1.35,1.35,0,0,0-.81,1.12c0,.43.37.63.83.46a1.33,1.33,0,0,0,.81-1.12C125.08,428.23,124.71,428,124.25,428.21Z" style="fill:#37474f"></path><path d="M116.48,391.84a3.32,3.32,0,0,0,2.38-.62c.27-.32.67-3.73-.3-5.32s-7.8-4.11-9.6-4a5.6,5.6,0,0,0-3.51,1.67c-.27.39-.82,3-.42,3.54s2.14-.2,2.31-.43-.29-2.15.92-2.51,5.87,1.19,7.74,2.72c.81.66.58,2.72.44,3.49S116.22,391.7,116.48,391.84Z" style="fill:#455a64"></path><path d="M108.69,384.18c-1.25-.16-2.45-.11-2.89,1a3.07,3.07,0,0,0-.26,2.19,3.53,3.53,0,0,0,1.8-.63c.17-.22-.29-2.15.92-2.51a1.17,1.17,0,0,1,.43,0Z" style="fill:#37474f"></path></g></g><g id="freepik--Rope--inject-17"><g id="freepik--rope--inject-17"><g id="freepik--Carabiner--inject-17"><path d="M249.4,80.91a4.05,4.05,0,0,1-4.74-2.44l-1.75-4.29a4.12,4.12,0,0,1,1.73-5.07L246.51,68a4.1,4.1,0,0,1,6.12,3l.62,4.27A5.06,5.06,0,0,1,249.4,80.91Zm-1.34-11.58a2.47,2.47,0,0,0-.63.26l-1.87,1.09a2.29,2.29,0,0,0-1,2.82l1.74,4.29A2.26,2.26,0,0,0,249,79.14a3.25,3.25,0,0,0,2.47-3.64l-.62-4.27a2.26,2.26,0,0,0-1.27-1.73A2.3,2.3,0,0,0,248.06,69.33Z" style="fill:#00ADB5"></path></g><g id="freepik--carabiner--inject-17"><path d="M319,231.44a4.06,4.06,0,0,1-5.29.68l-3.86-2.55a4.1,4.1,0,0,1-1.45-5.16l.92-2a4.09,4.09,0,0,1,6.71-1l2.93,3.17A5.05,5.05,0,0,1,319,231.44Zm-7.66-8.78a2.27,2.27,0,0,0-.38.57l-.92,2a2.29,2.29,0,0,0,.81,2.87l3.86,2.55a2.27,2.27,0,0,0,2.94-.38,3.23,3.23,0,0,0,0-4.39l-2.94-3.18a2.29,2.29,0,0,0-3.35,0Z" style="fill:#00ADB5"></path></g><g id="freepik--carabiner--inject-17"><path d="M245.48,162.28a4.07,4.07,0,0,1-5.09-1.61l-2.45-3.93a4.13,4.13,0,0,1,.85-5.3l1.66-1.39a4.08,4.08,0,0,1,6.52,1.88l1.34,4.11A5.07,5.07,0,0,1,245.48,162.28Zm-3.29-11.19a2.48,2.48,0,0,0-.57.36L240,152.84a2.29,2.29,0,0,0-.47,2.94l2.44,3.93a2.26,2.26,0,0,0,2.83.89,3.25,3.25,0,0,0,1.82-4l-1.34-4.11a2.24,2.24,0,0,0-1.53-1.49A2.32,2.32,0,0,0,242.19,151.09Z" style="fill:#00ADB5"></path></g><g id="freepik--carabiner--inject-17"><path d="M250.81,242a4.07,4.07,0,0,1-5.17-1.33l-2.65-3.8a4.12,4.12,0,0,1,.57-5.33l1.58-1.48a4.09,4.09,0,0,1,6.61,1.52l1.55,4A5.05,5.05,0,0,1,250.81,242Zm-3.87-11a2.35,2.35,0,0,0-.56.39l-1.58,1.48a2.27,2.27,0,0,0-.31,3l2.64,3.8a2.26,2.26,0,0,0,2.87.74,3.26,3.26,0,0,0,1.61-4.1l-1.55-4a2.3,2.3,0,0,0-3.12-1.24Z" style="fill:#00ADB5"></path></g><g id="freepik--carabiner--inject-17"><path d="M227.47,316.56a4.07,4.07,0,0,1-2.55-4.69l1-4.52a4.11,4.11,0,0,1,4.28-3.23l2.16.15a4.1,4.1,0,0,1,3.4,5.88L233.84,314A5.06,5.06,0,0,1,227.47,316.56Zm5.4-10.33a2.1,2.1,0,0,0-.66-.14l-2.16-.15a2.28,2.28,0,0,0-2.38,1.79l-1,4.52a2.26,2.26,0,0,0,1.41,2.61,3.25,3.25,0,0,0,4.09-1.62l1.89-3.89a2.28,2.28,0,0,0-1.22-3.12Z" style="fill:#00ADB5"></path></g><path id="freepik--rope--inject-17" d="M244.2,160.76c-2.83-27.57.09-67.37.12-67.79.47-5.92,1.42-10.21,2.37-12.33a4,4,0,0,1-.84-.54c-1.64,3.39-2.32,10.23-2.52,12.79,0,.42-3,40.13-.14,67.8A2.18,2.18,0,0,0,244.2,160.76Zm2.93,78.91a2.16,2.16,0,0,0,.49.51c3.41-25.64.21-53.73-2.69-73.5-.2-1.33-.37-2.7-.53-4.11a3.81,3.81,0,0,1-1,0c.17,1.46.35,2.87.55,4.24,2.85,19.48,6,47,2.81,72.29Zm18.33-76.81c-7.24-21-12.23-46.43-14.81-75.5l0-.41c-.44-5-.92-8.81-2.66-8.81a1.6,1.6,0,0,0-1.07.45,2.21,2.21,0,0,0,1,.55H248c.64,0,1.2,2.66,1.66,7.9l0,.41c2.58,29.15,7.58,54.63,14.86,75.73,14.34,41.62,33.66,56.14,43.9,61.08l.43-.9C298.75,218.48,279.69,204.13,265.46,162.86ZM227.59,316.6a285.37,285.37,0,0,0-5.67,30.15c-1.41,11.07-5.76,19.23-12.27,23-5.11,2.95-11.45,3-18.32.08l-.16,0c-2.88-.22-5.41,1.07-7.49,3.85-7.6,10.15-7.63,37.58-.06,57.55a32.67,32.67,0,0,0,14.7,17.58,9,9,0,0,0,2.61,5.47c5.51,6.09,15.68,9.21,29.44,9.21a124.35,124.35,0,0,0,20.08-1.81,79.92,79.92,0,0,0,13.3-.17c7.47-.83,11.28-2.62,13.16-4.46a78,78,0,0,0,13.86-3.53l-.35-.93a73.84,73.84,0,0,1-12.53,3.24,4.91,4.91,0,0,0,.74-2.65,5.9,5.9,0,0,0-.86-2.79,4.59,4.59,0,0,0,.43-1.62,4.74,4.74,0,0,0-1.19-3.34,7.74,7.74,0,0,0,1.84-3.26c.55-2.21,0-5.54-5.59-8.89-14.29-8.5-40.8-10.67-61.68-5.05-9.57,2.57-12,6.57-12.27,9.46a7.41,7.41,0,0,0,1.46,5.13,9.62,9.62,0,0,0-2.22,3.81,9.31,9.31,0,0,0-.2,1,31.69,31.69,0,0,1-13.8-16.75c-7.33-19.36-7.37-46.86-.07-56.6,1.84-2.46,4-3.63,6.54-3.46,7.14,3,13.75,2.94,19.13-.17,6.79-3.91,11.32-12.33,12.76-23.72a286.64,286.64,0,0,1,5.65-30A5.1,5.1,0,0,1,227.59,316.6Zm1.4-1.54c2.39-9.88,5.11-19.69,7.79-29.34,3.48-12.53,6.76-24.37,9.16-35.74.55-2.58,1-5.21,1.4-7.86a4,4,0,0,1-.92-.57c-.4,2.78-.88,5.53-1.46,8.23-2.39,11.33-5.67,23.16-9.15,35.67-2.67,9.66-5.4,19.48-7.79,29.37A3.54,3.54,0,0,0,229,315.06ZM277.2,448.64a3.23,3.23,0,0,1-.11.67,13,13,0,0,0-1.34-1.49,6.17,6.17,0,0,0,.63-1.63A3.64,3.64,0,0,1,277.2,448.64Zm-25.79-9.49c-22.49-1.49-34.47.72-35.6,6.57a5,5,0,0,0,.52,3.35c-1.9-.44-3.69-.92-5.32-1.44,0-.18-.07-.36-.1-.54-.37-2.94,1.8-5.76,4.12-7.25,6.62-4.26,31.07-5.82,51.3.76a35.88,35.88,0,0,1,6.28,2.61,13,13,0,0,1-1.54,1.24A47.76,47.76,0,0,0,251.41,439.15Zm18.71,5.92c-3.53,2.15-9.1,4.14-15.91,5.56-10.3,2.15-25.13,1.19-36.48-1.25a4.18,4.18,0,0,1-.94-3.47c.71-3.63,7.27-7.57,34.55-5.76A48,48,0,0,1,270.12,445.07Zm-53,5.2a9.89,9.89,0,0,0,1,1,18,18,0,0,0,4.37,2.6c-2.21-.14-4.39-.35-6.52-.65a10.85,10.85,0,0,1-4.62-4.44C213.19,449.33,215.12,449.82,217.16,450.27Zm1.84.38c11.28,2.24,25.44,3,35.42,1,5.92-1.23,12.52-3.33,16.68-6a25.78,25.78,0,0,1,2.25,1.46c-5.1,3.31-14.25,6-26.78,6.59-6.82.31-13.89.62-20.75.38A21.64,21.64,0,0,1,219,450.65ZM272,445a12.05,12.05,0,0,0,1.5-1.27,13.57,13.57,0,0,1,2,1.52,1.1,1.1,0,0,1,0,.18,14.75,14.75,0,0,1-1.31,1.07A26.33,26.33,0,0,0,272,445Zm2.17-2a5.79,5.79,0,0,0,.54-.82,5.77,5.77,0,0,1,.7,1.65s0,0,0,0C275,443.55,274.62,443.25,274.17,443Zm-10.37-8c-17.77-4.05-35.69-4-49.15.13-2.29.71-8.23,2.75-12.28,6.13,1.08-3.51,4.52-6.42,8.3-7.83,7.9-2.94,17.12-4.18,26.14-4.18,11.21,0,22.12,1.9,29.83,4.8,4.84,1.81,7.46,3.85,7.61,5.93C272.09,437.79,268.5,436.06,263.8,435Zm-48.86,1.09c13.31-4.09,31-4.13,48.64-.11,4.86,1.11,8.54,3,10.46,5.26a4.68,4.68,0,0,1-.73,1.23,36.49,36.49,0,0,0-6.67-2.8c-21.23-6.9-45.45-5-52.15-.65-2.58,1.66-5,4.84-4.57,8.22,0,0,0,0,0,.06a33.87,33.87,0,0,1-4.72-2,10.54,10.54,0,0,1-3.1-2.48C205.18,439.86,210.29,437.5,214.94,436.07Zm-10.2,10.13a35.3,35.3,0,0,0,5.45,2.21,9.4,9.4,0,0,0,3.49,4.45,54.79,54.79,0,0,1-8-2,12.45,12.45,0,0,1-3.24-4.76,8,8,0,0,1-.42-1.86A11.74,11.74,0,0,0,204.74,446.2Zm11,8a33,33,0,0,0,5.74,2.47,82.29,82.29,0,0,0,9.18,2.3c-1.31-.1-2.64-.23-4-.38-8.08-.92-14.54-3-18.84-6A60.37,60.37,0,0,0,215.76,454.22Zm6.05,1.52c-1.1-.37-2.13-.76-3.07-1.16,2.25.23,4.54.37,6.86.46,6.27,2.07,14.91,3.3,24.19,3.62a84.24,84.24,0,0,1-11.38.67A110.79,110.79,0,0,1,221.81,455.74Zm7.84-.62c5.65,0,11.39-.21,17-.46,12-.53,22-3.15,27.6-6.92l.27.24a9,9,0,0,1-1.63,1.72c-4.45,3.71-10.34,6.38-17.37,7.95A112.49,112.49,0,0,1,229.65,455.12Zm43.84-4.65a10.47,10.47,0,0,0,1.73-1.82,11.08,11.08,0,0,1,1.41,1.69c-1.5,2.5-5.82,5-12.2,7-1.57.1-3.15.18-4.72.23A39.13,39.13,0,0,0,273.49,450.47ZM200.3,437.74c.4-3.65,4.5-6.71,11.54-8.61,20.65-5.55,46.83-3.43,60.91,4.95,4,2.4,5.8,5.09,5.13,7.79a6.46,6.46,0,0,1-1.36,2.5,5.72,5.72,0,0,0-.14-.81,6.93,6.93,0,0,0-1.22-2.56,5.4,5.4,0,0,0,.09-.58c.21-2.73-2.57-5.2-8.26-7.33-14.09-5.29-38.74-7.3-56.67-.62-4.29,1.6-8.15,5-9.09,9.15A6.31,6.31,0,0,1,200.3,437.74Zm-.78,9.1A7.88,7.88,0,0,1,201,444a9.16,9.16,0,0,0,.51,2.45,12.77,12.77,0,0,0,2.11,3.68,37.2,37.2,0,0,1-4.33-2A5.1,5.1,0,0,1,199.52,446.84Zm2.15,6.71a8.67,8.67,0,0,1-2.28-4.22,40,40,0,0,0,5.82,2.47c3.48,3.23,9.82,6.48,21.38,7.8a108,108,0,0,0,11.77.73c2.49.37,5.08.69,7.69.94C224.55,464.22,208.9,461.53,201.67,453.55Zm48.71,7.06c-1.86-.11-3.73-.27-5.58-.46a70.92,70.92,0,0,0,10.37-1.41c1.56,0,3.13,0,4.7-.09-2.63.67-5.5,1.28-8.58,1.81Zm13.26-.15a69.47,69.47,0,0,1-8.7.34,92.76,92.76,0,0,0,9.48-2.38c3.55-.24,7.07-.61,10.45-1.11C272.51,458.81,268.69,459.9,263.64,460.46ZM276.47,456c-2.62.42-5.34.76-8.11,1,4.33-1.72,7.35-3.66,8.82-5.71a4.82,4.82,0,0,1,.45,1.82A4.11,4.11,0,0,1,276.47,456Z" style="fill:#fafafa"></path></g></g><g id="freepik--character-2--inject-17"><g id="freepik--Character--inject-17"><path d="M333.72,223.3s2.09,7.5,3.45,9.95,4.37,2.72,7.52,1.76c4.43-1.35,5.46-5,3.72-7.18-1.18-1.45-2-3-3.29-8Z" style="fill:#00ADB5"></path><path d="M333.72,223.3s2.09,7.5,3.45,9.95,4.37,2.72,7.52,1.76c4.43-1.35,5.46-5,3.72-7.18-1.18-1.45-2-3-3.29-8Z" style="fill:#fff;opacity:0.5"></path><path d="M344.69,235c2.87-.88,4.31-2.74,4.49-4.52-.15.7-2.25,3-6,2.14s-6.92-5.92-6.91-10.1l-2.51.77s2.09,7.5,3.45,9.95S341.54,236,344.69,235Z" style="fill:#00ADB5;opacity:0.30000000000000004"></path><path d="M345.12,219.81c.53,1.74-1.59,3.93-4.74,4.89s-6.13.34-6.66-1.4,1.59-3.93,4.74-4.89S344.59,218.08,345.12,219.81Z" style="fill:#455a64"></path><path d="M344.6,220c.44,1.46-1.51,3.36-4.37,4.23s-5.54.39-6-1.07,1.5-3.37,4.36-4.24S344.15,218.51,344.6,220Z" style="fill:#37474f"></path><path d="M340.23,224.21a8.72,8.72,0,0,0,3.32-1.8,7.51,7.51,0,0,0-7.07,2.16A8.7,8.7,0,0,0,340.23,224.21Z" style="fill:#fafafa"></path><g id="freepik--Bottom--inject-17"><path d="M328.68,282.87c.33,2.87.88,5.73,1.07,7,.21,1.41,2.1,2.24,2.29,2.94s-1.57,3.67-4.31,4.71-5.08.45-5.44-1-3.86-11.15-3.86-11.15Z" style="fill:#ffa8a7"></path><path d="M336.2,298.06c-.2,3.06-4.53,5.48-6,8.28s-3.05,5.29-5.34,6.71-7.27,2.54-9.63,1.14a6.37,6.37,0,0,1,1.29-6.44,33.05,33.05,0,0,0,4.31-5.71,8.32,8.32,0,0,0,1-5.47c-.25-1.29-.52-1.44.08-1.72s1-.48,1.09.09c1.15-.92,3.35,1.18,3.58,0a6,6,0,0,1,3-4.31c1.31-.62,2.49.86,3.18,2.3S336.35,296.27,336.2,298.06Z" style="fill:#00ADB5"></path><path d="M322.82,297.75c.39-1,.19-2.19.64-2.33a4.06,4.06,0,0,1,2.21.31c1.12.33,1.53.31,1.77-.77s.28-2.09,1.34-3a4.07,4.07,0,0,1,1.88-1l-.49-.55a1.31,1.31,0,0,0-.57.13,6,6,0,0,0-3,4.31c-.23,1.21-2.43-.88-3.58,0C322.79,295.09,322.82,296.73,322.82,297.75Z" style="fill:#fafafa"></path><path d="M326.81,302.55c-.37-7.94,1-10.83,3.08-11.6l1.11,1.18c-1.81,1.17-2.55,3.93-2.42,9.39Z" style="fill:#37474f"></path><path d="M330.24,306.34c1.43-2.8,5.76-5.22,6-8.28.15-1.79-2.74-3.73-3.42-5.17s-1.87-2.92-3.18-2.3l-.2.11a5.69,5.69,0,0,1,1.72,2.39,12.25,12.25,0,0,0,1.72,2.66,12.63,12.63,0,0,0-2.86,2.31c-.69,1-.61,2.12-2.49,3.3s-4.21,1.32-4.33,2.31-.1,2.12-2.5,3.47c-3.19,1.79-3.57,2.67-4.57,2.74-.42,0-.54-.25-.54-.59a6,6,0,0,0-.28,4.9c2.36,1.4,7.35.27,9.63-1.14S328.82,309.09,330.24,306.34Z" style="fill:#263238"></path><path d="M324.9,313.05c2.29-1.42,3.92-4,5.34-6.71s5.76-5.22,6-8.28a2.41,2.41,0,0,0-.41-1.41c-2-.78-4.73,1.68-5.91,4.15s-2,4.19-6.17,6.39-8.34,5.75-8.44,7C317.63,315.59,322.62,314.46,324.9,313.05Z"></path><path d="M299.31,275.36s-.63,7-.64,9.18c0,3.67.37,3.59.37,3.59s-3.83,3.77-6.15,3.37-4.8-4.2-4.8-4.2,1.41-.54,1.11-4.44c-.16-2.13-.77-7.67-.77-7.67Z" style="fill:#ffa8a7"></path><path d="M299.29,286.76c-1,0-3.16,1.79-4.8,2.87s-2-1.13-3-2.11-1.63-.76-1.63-.76.45-.39-.37-.86-1-.41-1-.41a4.77,4.77,0,0,1-1.65,2.06,19.26,19.26,0,0,1-5,2.62,22.39,22.39,0,0,1-3.06.88c-2.92.61-5.6,1.32-5.56,4.89.58.74,2.77,3.11,8,2.81,3.37-.19,7.11-2,11-1.76s5.89,0,7.52-.95c1.41-2.44.08-6-.25-7A7.77,7.77,0,0,1,299.29,286.76Z" style="fill:#00ADB5"></path><path d="M299.29,286.76c-1,0-3.16,1.79-4.8,2.87s-2-1.13-3-2.11-1.46-.79-1.6-.76h0a3.26,3.26,0,0,0-1.93,1.37,3.53,3.53,0,0,1,2.28-.68c1,.24,1.71,1.5,2.12,2.2s1.23,1.42,2.15.92,3.17-2.41,3.78-2.72a2.17,2.17,0,0,1,1-.29h0C299.28,287.1,299.29,286.76,299.29,286.76Z" style="fill:#fafafa"></path><path d="M293.15,295.28a11.79,11.79,0,0,1,6.16-5.89l-.75-1.67c-2.35.85-5.87,4.07-6.84,6.54Z" style="fill:#37474f"></path><path d="M299.56,289a7.77,7.77,0,0,1-.27-2.26,2.31,2.31,0,0,0-1,.32l0,.45a12,12,0,0,0,.59,4.05c.38,1.52-.28,3.26-.59,3.35a11.63,11.63,0,0,1-4.48,0c-1.67-.44-5-2-7.11-1.26s-2.74,2.79-6.71,3a5.2,5.2,0,0,1-4-1.2c-1-.73-.38-2.31.6-2.78a13.77,13.77,0,0,1,2.25-.79c.18-.07,0-.47-.13-.86-2.88.61-5.49,1.34-5.45,4.87.58.74,2.77,3.11,8,2.81,3.37-.19,7.11-2,11-1.76s5.89,0,7.52-.95C301.22,293.6,299.89,290.05,299.56,289Z" style="fill:#263238"></path><path d="M287.94,288.21a23,23,0,0,1-1.83,1.43,11.92,11.92,0,0,1-2,1.13,15.92,15.92,0,0,1-2.22.71,16.11,16.11,0,0,1-2.29.39c.76-.16,1.5-.36,2.24-.58a18.54,18.54,0,0,0,2.17-.75A23.71,23.71,0,0,0,287.94,288.21Z" style="opacity:0.15"></path><path d="M281.28,290.78a3.46,3.46,0,0,0-.5-.27.55.55,0,0,0-.31,0,.54.54,0,0,0-.27.11c-.05,0-.11.2,0,.19a.53.53,0,0,1,.25,0l.26.11a2.73,2.73,0,0,1,.47.27,2.83,2.83,0,0,1,.37.32c0,.06.1.13.15.18a.94.94,0,0,0,.1.1h.08a.12.12,0,0,0,.08-.09C282.05,291.32,281.58,291,281.28,290.78Z" style="fill:#455a64"></path><path d="M283.37,290a2.65,2.65,0,0,0-.5-.27.46.46,0,0,0-.31,0,.74.74,0,0,0-.27.1s-.1.21,0,.2a.49.49,0,0,1,.24,0l.27.11a2.73,2.73,0,0,1,.47.27,2.22,2.22,0,0,1,.36.32c.06.06.1.13.16.18l.1.1H284s.06-.06.07-.09C284.14,290.55,283.67,290.21,283.37,290Z" style="fill:#455a64"></path><path d="M285.43,289.09a2.38,2.38,0,0,0-.5-.26.54.54,0,0,0-.31,0,.81.81,0,0,0-.27.11c-.05,0-.11.2,0,.19a.67.67,0,0,1,.24,0l.27.11a2.53,2.53,0,0,1,.47.28,2.11,2.11,0,0,1,.36.31c.06.06.1.13.16.19s.06.08.1.09.05,0,.08,0,.06-.05.07-.08C286.2,289.63,285.73,289.29,285.43,289.09Z" style="fill:#455a64"></path><path d="M287.17,288.08a2.3,2.3,0,0,0-.49-.26.58.58,0,0,0-.32,0,.62.62,0,0,0-.27.11s-.1.2,0,.19a.73.73,0,0,1,.25,0l.26.11a2.73,2.73,0,0,1,.47.27,2.83,2.83,0,0,1,.37.32,1.3,1.3,0,0,0,.15.18l.1.1h.08s.07-.05.07-.08C287.94,288.62,287.47,288.28,287.17,288.08Z" style="fill:#455a64"></path><path d="M333.81,224.24H313.39s-3.28,29.3-3.29,34.19,1.36,7.77,3.7,15,5.66,15.18,5.66,15.18,6,.9,9.68-2.74c-.53-4.93-1-11.05-1.76-16.32a20.3,20.3,0,0,0-3.16-8.78s.86-2.93,2.8-8.3a29.4,29.4,0,0,1,3.21-6.8,18,18,0,0,1,2.75-3.21C338.24,237.41,336.71,230.46,333.81,224.24Z" style="fill:#00ADB5"></path><path d="M333.81,224.24H313.39s-3.28,29.3-3.29,34.19,1.36,7.77,3.7,15,5.66,15.18,5.66,15.18,6,.9,9.68-2.74c-.53-4.93-1-11.05-1.76-16.32a20.3,20.3,0,0,0-3.16-8.78s.86-2.93,2.8-8.3a29.4,29.4,0,0,1,3.21-6.8,18,18,0,0,1,2.75-3.21C338.24,237.41,336.71,230.46,333.81,224.24Z" style="opacity:0.35000000000000003"></path><path d="M325.14,230.34,313.73,229l-.91.35c-.6,5.54-1.54,14.44-2.15,21.08a53.82,53.82,0,0,1,5.25-3.49c1.77-.89,6.2-1.42,9.69-4s5-5.38,4.77-9.06Z" style="opacity:0.35000000000000003"></path><path d="M306.21,223.19c0,2.93-1,3-6,7.38a160.26,160.26,0,0,0-12.71,13.35c-2.55,2.89-3,4.7-2.15,11.29.59,4.33,3.2,25,3.2,25s1.06,2.15,5.58,2,4.87-1.61,4.87-1.61.62-5.93,1.18-11.11,1-10.29-.14-14.3c0,0,3.37-2.5,10-6.46a59.33,59.33,0,0,1,13-6.2c6.51-2.35,9.91-9.58,5.45-19Z" style="fill:#00ADB5"></path><path d="M306.21,223.19c0,2.93-1,3-6,7.38a160.26,160.26,0,0,0-12.71,13.35c-2.55,2.89-3,4.7-2.15,11.29.59,4.33,3.2,25,3.2,25s1.06,2.15,5.58,2,4.87-1.61,4.87-1.61.62-5.93,1.18-11.11,1-10.29-.14-14.3c0,0,3.37-2.5,10-6.46a59.33,59.33,0,0,1,13-6.2c6.51-2.35,9.91-9.58,5.45-19Z" style="opacity:0.25"></path></g><g id="freepik--Top--inject-17"><path d="M337.32,199.78c.92-4.47,2.2-9.64-.52-13.84-1.64-2.54-4.49-3.38-7.3-5.09-4.3-2.61-15.73-10.1-15.73-10.1s-6.47-15.1-7.07-16.93-.07-5.36.27-7.15.15-2.58-.8-3.62c-.45-.49-3.41-3.52-4.35-4.44a23.14,23.14,0,0,0-3.46-2c-1-.41-1.11,1-.38,2.24.38.66,1.23,1.12,1.82,1.7a6,6,0,0,1,1.05,1.58,7.44,7.44,0,0,1,.17,3.59c-.13,1.15-.66,1.56-1,1.06s-.82-2.64-1.54-3.3-2.24-1.05-1.94.05a54.77,54.77,0,0,1,.59,5.64c.17,1.93,2.37,3.75,3.23,5.27s3.35,16,4,18.87,1.4,3.65,3.81,5.52c3.26,2.54,15.65,12.5,15.65,12.5Z" style="fill:#f28f8f"></path><polygon points="318.91 182.11 319.92 189.53 330 189.02 328.91 180.99 318.91 182.11" style="fill:#ffa8a7"></polygon><path d="M314.9,168.25c-.78,1-3.19,3.95-3.28,4.52l2,1.2Z" style="fill:#b16668"></path><path d="M320.5,160.79c-3.11-.34-5.13,1.87-6,8.49,0,.26-.42.67-.71,1.66-1.25,4.25-.55,8.3.17,9.38a8.66,8.66,0,0,0,6.71,1.74c2.22-.18,6.5-.23,9.37-3.22,3.36-3.52,6.42-9.44,4-12.19C330.67,162.78,322.21,161,320.5,160.79Z" style="fill:#ffa8a7"></path><path d="M313.92,180.32a10,10,0,0,0,5,2.17l-.17-1.39A18.59,18.59,0,0,1,313.92,180.32Z" style="fill:#b16668"></path><path d="M313.33,180.17c.29.26.22.61.3,1s.39.71.79.76.57.56,1,.53.52.21.79.23.25-.12.39-.15.64-.05.66-.37c-.45-.49-1.48-.75-1.8-1.46-.12-.39-.59-.33-.79-.6-.05-.65-1-.47-1.23-.95A.77.77,0,0,0,313.33,180.17Z" style="fill:#263238"></path><path d="M333.27,164.9c2.28,1.38,3.46,6-.09,10.94-1.5,2.07-2.78,2.74-4.27,5.14a16.33,16.33,0,0,1-6.34.43c-2.19-1.95-1.11-5.7-1.11-5.7s1.12,1.69,3.22-.27c1.28-1.2,1.92-4.64-.7-4.84a2.87,2.87,0,0,0-1.92.65,8,8,0,0,0-1.14,1.32.57.57,0,0,1-1-.17,4.19,4.19,0,0,1-.05-1.89c.88-2.81-.91-2.26-1.74-3.38-.49-.67,0-2,.16-2.66C320.73,163.61,333.27,164.9,333.27,164.9Z" style="fill:#455a64"></path><path d="M318.25,164.47c0-.59-1.34-1.91-1.92-1.57a4.71,4.71,0,0,0-.42.78,1.73,1.73,0,0,1-.37-3.27c-1-.16-1.08-.81-1-1.59,1.18,1.12,3.11-1,6.88-1.16,3.54-.11,4.89,1.14,8.15,2.59,2.8,1.25,5.84,2.12,4.65,5.53C331.75,167.51,321.44,166.1,318.25,164.47Z" style="fill:#263238"></path><path d="M337.68,196.69c.29-3.95-1-9.94-3.76-11.09a8.13,8.13,0,0,0-4.51-.9l.08.56c-1.48,1.26-7.67,2-10,1.39,0,0-2.28.63-4.4,1.43s-4.15,1.65-5.36,3.88a32.87,32.87,0,0,0-3.23,9.65,68.43,68.43,0,0,0-1.47,11.09,31.25,31.25,0,0,0,1.36,10.06,12.36,12.36,0,0,1-.56,2.09,5.55,5.55,0,0,1-.8,1.43c.76,1.39,4.58,5.05,9.86,6.38s12.44,1.84,16.43.18,4.52-3.35,4.52-3.35-.53-1.45-1.06-3.21a25.29,25.29,0,0,1-.76-3.9,2.49,2.49,0,0,1-.13.24c0-.51-.06-1.06-.07-1.66a37.72,37.72,0,0,1,1.12-9.47C336.6,204.79,337.32,201.52,337.68,196.69Z" style="fill:#f5f5f5"></path><path d="M288.67,192.16c3,1.32,7.86,3.08,12.9,5s5.39,3.11,6,5,.65,4.43,4.62,3.77,7.34-6.83,7.34-10.84c0-3.14-1-6.21-2.46-7.67-1.72-1.14-3.93-1.94-8.41-2.11a21.15,21.15,0,0,1-7.34-1.45,56.46,56.46,0,0,0-7.82-1.72s-4-9.54-5.58-13.08-2.25-4-2.7-7.5-.94-3.62-.95-5.26-.08-3.22-1.76-1.94-.42,3.83-1.34,4.64a3.26,3.26,0,0,1-2,.68,6.63,6.63,0,0,1-1.54-.13q-.42-.09-.84-.21a2.43,2.43,0,0,1-.38-.13c-.17-.09-.37-.12-.55-.2a3.5,3.5,0,0,1-.56-.32q-.24-.18-.48-.39c-.44-.41-.82-.88-1.25-1.31a8.33,8.33,0,0,0-1.43-1.14,2,2,0,0,0-1.85-.36.38.38,0,0,0-.19.14c-.14.18,0,.44.06.64.19.36.37.72.55,1.08a3.4,3.4,0,0,1,.27.54c.06.17.1.36.15.54.69,2.42.45,4,2.59,5.78s5.29,2.94,6.19,4.65,3.08,12.37,4.24,17.16C285.18,190.42,285.72,190.85,288.67,192.16Z" style="fill:#ffa8a7"></path></g><g id="freepik--Harness--inject-17"><path d="M329.9,246.15l-.44.74a24.39,24.39,0,0,1-8.48,1.29c-8.23-.24-9.94-1.61-9.94-1.61l.06-.66s-.44-.08-.58,1.8-.45,2.9.21,3.7,3.68,2.86,9.2,2.92,6.86-.28,7.5-2.11a44.46,44.46,0,0,1,2.36-4.9C330.26,246.34,329.9,246.15,329.9,246.15Z" style="fill:#263238"></path><path d="M332.41,230.41a10.19,10.19,0,0,1-.69,8.06c-1.47,2.83-6.75,6.92-7.88,10.25h1.49c.77-2.31,6.48-7.27,7.77-10.18,1.2-2.74,1.5-6.4.49-8.83Z" style="fill:#263238"></path><path d="M331.49,238.81a9.65,9.65,0,0,0,.59,5.47,2.58,2.58,0,0,0,1.31-.19c-.63-.64-1.07-3.44-.71-4.78Z" style="fill:#455a64"></path><path d="M332.7,235.73c-.56.06-.44.65-.72,1.57s-.71,1.26-.49,1.51a1.88,1.88,0,0,0,1.58.45c.42-.19.79-1.37.93-2.19s.21-1.06-.09-1.11C333.85,236.48,332.57,236.23,332.7,235.73Z" style="fill:#00ADB5"></path><path d="M324,231.72c-.13,2.55-1.3,4.64-4.53,7.67a77.06,77.06,0,0,1-9.51,6.89L309,245.4a75.93,75.93,0,0,0,9.51-6.89c3.23-3,4.08-4.63,4.29-6.73Z" style="fill:#263238"></path><path d="M318.89,238.1a8.41,8.41,0,0,0-1.06,5.69,1.94,1.94,0,0,0,1.22.29s-.12-1.71-.07-2.67a4.11,4.11,0,0,1,.95-2.43Z" style="fill:#37474f"></path><path d="M321.21,235.56c-.52-.19-.61.47-1.28,1.17s-1.18.92-1.1,1.24.93,1.19,1.42,1a4.63,4.63,0,0,0,1.59-1.58c.5-.66.67-.85.42-1C322,236.83,320.87,236,321.21,235.56Z" style="fill:#00ADB5"></path><path d="M315.53,245.69l-.87.43a15,15,0,0,1-13-7.35c-2.63-4.19-2.37-7.36-2.37-7.36l.73-.65s-.49-.4-1.34.35c-1.81,1.62-2.74,2.51-2.74,3.7,0,5.46,1.78,9,3.85,11,3.85,3.69,6.56,4.11,8.1,4A12.55,12.55,0,0,0,313,248C314.72,247,315.9,246.24,315.53,245.69Z" style="fill:#37474f"></path><path d="M306.14,221.73s2.89,1.81,9.45,2.18a45,45,0,0,0,14.58-1.2,9.58,9.58,0,0,0,3.68-1.75v-1s.43-.38.51.62a19.72,19.72,0,0,0,.28,3.82,14.73,14.73,0,0,1,.86,2.92c.05,1-.93,2.48-4.8,3.93s-12.41.91-15.23-.15-5.12-4-6.77-4.83a29.91,29.91,0,0,0-2.93-1.21c-.37-.15-.1-.57-.1-1.77,0-.83-.2-2.09.32-2.13Z" style="fill:#263238"></path><path d="M335.07,225.65a3.57,3.57,0,0,1-1.06.8,3,3,0,0,1-2.19,0,6.14,6.14,0,0,0-3.47,0,7.83,7.83,0,0,0-2.32,1.28,7.16,7.16,0,0,1-4.44,1.67c-3.06.11-6.57-1.07-10.62-2.43-.76-.25-1.54-.52-2.33-.77l.06,0a7.83,7.83,0,0,1,1.41,1l.7.23c3.91,1.32,7.31,2.46,10.37,2.46h.43a7.73,7.73,0,0,0,4.71-1.76A7.46,7.46,0,0,1,328.5,227a5.64,5.64,0,0,1,3.2,0,3.52,3.52,0,0,0,2.53-.08,3.85,3.85,0,0,0,1-.73C335.19,226,335.13,225.83,335.07,225.65Z" style="fill:#37474f"></path><path d="M332.49,222.72a.38.38,0,0,0-.29.44c.65,3.09-.41,5.46-2.75,6.19a4.87,4.87,0,0,1-6.3-3.66.37.37,0,0,0-.74.1,5.61,5.61,0,0,0,5.49,4.55,6.21,6.21,0,0,0,1.78-.27c2.69-.84,4-3.61,3.26-7.06A.39.39,0,0,0,332.49,222.72Zm-10.43,6.63a.38.38,0,0,0-.47.24c-.51,1.56-2.11,3.13-5,2.41a3.14,3.14,0,0,1-2.23-1.58,2.73,2.73,0,0,1,0-2.23.38.38,0,0,0-.18-.5.39.39,0,0,0-.5.19,3.46,3.46,0,0,0,0,2.86,3.8,3.8,0,0,0,2.71,2,6.81,6.81,0,0,0,1.56.2,4.41,4.41,0,0,0,4.34-3.11A.38.38,0,0,0,322.06,229.35Zm15.49-1.51a.38.38,0,0,0-.51-.13c-.55.32-1.35.45-2.72-1.48a.37.37,0,0,0-.61.43c.94,1.33,1.84,2,2.71,2a2,2,0,0,0,1-.29A.38.38,0,0,0,337.55,227.84Z" style="fill:#fafafa"></path></g><g id="freepik--Helmet--inject-17"><path d="M322.27,168a15.23,15.23,0,0,0-2.25,7.31,1.15,1.15,0,0,0,.68,1.05,10.71,10.71,0,0,0,6.55.58v1s-4.36.92-7.47-.65a4.9,4.9,0,0,0-1.38,3.62,2.89,2.89,0,0,0,.28,1.62,4,4,0,0,1-1-.21c-.41-1.34-.37-3.47,1.49-5.93-.6-1.63.06-5.52,2.19-9Z" style="fill:#37474f"></path><path d="M329.79,179.52c-2.78-.76-3.14-1-3.13-2.46s.81-5.87-2.38-7.59a30,30,0,0,1-7.62-5.65c-.62-.76-2.43-3.68.24-5.87,4.09-3.36,9.53-3.7,14.56-.9a12.27,12.27,0,0,1,6.26,13.34,15.78,15.78,0,0,1-5,7.81C332,178.91,330.55,179.72,329.79,179.52Z" style="fill:#00ADB5"></path><path d="M337.32,168.56a9.38,9.38,0,0,1-2.6.27,5.48,5.48,0,0,1-2.55-.79,4.87,4.87,0,0,1-1.75-2.09c-.37-.85-.54-1.67-.84-2.47a20.81,20.81,0,0,0-2.09-4.6,5.43,5.43,0,0,0-4-2.8,4.14,4.14,0,0,1,2.52.64,7.39,7.39,0,0,1,1.91,1.83,16.86,16.86,0,0,1,2.33,4.69c.29.82.48,1.69.78,2.42a4.57,4.57,0,0,0,1.43,1.9A7.37,7.37,0,0,0,337.32,168.56Z" style="opacity:0.2"></path><path d="M331.45,170.23c.14,1.44.77,3.44.48,3.67s-1.64-.82-1.77-1.32a20.09,20.09,0,0,1-.16-4C330,167.62,331.34,169.09,331.45,170.23Z"></path><path d="M329,170.58a40,40,0,0,0,0-5c-.1-1.53-1.2-3.69-1.35-2.8a30.77,30.77,0,0,0-.4,4.14,5.18,5.18,0,0,0,.45,2.78C328.1,170.37,328.91,171.51,329,170.58Z"></path><path d="M325.66,158.88a2.86,2.86,0,0,1,1.18,2.39c-.26.94-.67,4.37-.75,5.3-.13,1.33-1.81-.32-2.12-1.81C323.76,163.72,325.21,158.46,325.66,158.88Z"></path><path d="M331.45,170.23a3,3,0,0,0-1-1.84,18.68,18.68,0,0,0,.17,3.75,3.16,3.16,0,0,0,1.39,1.27C331.93,172.68,331.56,171.3,331.45,170.23Z" style="fill:#37474f"></path><path d="M328.12,162.88a29.59,29.59,0,0,0-.33,3.72,5.19,5.19,0,0,0,.44,2.78,5,5,0,0,0,.82,1.07,43,43,0,0,0-.05-4.87A6.46,6.46,0,0,0,328.12,162.88Z" style="fill:#37474f"></path><path d="M325.81,159a15.93,15.93,0,0,0-1.27,5.42,3.6,3.6,0,0,0,1.52,2.25s0-.07,0-.12c.08-.93.49-4.36.75-5.3A2.75,2.75,0,0,0,325.81,159Z" style="fill:#37474f"></path></g></g></g><g id="freepik--character-1--inject-17"><g id="freepik--character--inject-17"><path d="M180.4,379.15c.69,3-2.69,6.49-3.25,9.55s-1.35,5.87-3.1,7.87-6.14,4.5-8.77,3.86a6.3,6.3,0,0,1-.65-6.46,31.65,31.65,0,0,0,2.43-6.64,8.23,8.23,0,0,0-.62-5.46c-.61-1.15-.9-1.21-.43-1.64s.86-.76,1.07-.24c.82-1.2,3.5.15,3.37-1.07A6,6,0,0,1,172,374c1.05-1,2.61.1,3.67,1.27S180,377.42,180.4,379.15Z" style="fill:#00ADB5"></path><path d="M180.4,379.15c.69,3-2.69,6.49-3.25,9.55s-1.35,5.87-3.1,7.87-6.14,4.5-8.77,3.86a6.3,6.3,0,0,1-.65-6.46,31.65,31.65,0,0,0,2.43-6.64,8.23,8.23,0,0,0-.62-5.46c-.61-1.15-.9-1.21-.43-1.64s.86-.76,1.07-.24c.82-1.2,3.5.15,3.37-1.07A6,6,0,0,1,172,374c1.05-1,2.61.1,3.67,1.27S180,377.42,180.4,379.15Z" style="fill:#fff;opacity:0.2"></path><path d="M167.67,382.72c.08-1.05-.46-2.12-.07-2.39a4.09,4.09,0,0,1,2.18-.35c1.16,0,1.53-.14,1.44-1.23s-.33-2.05.42-3.19a4,4,0,0,1,1.49-1.47l-.62-.38a1.31,1.31,0,0,0-.5.28,6,6,0,0,0-1.56,4.93c.13,1.22-2.55-.13-3.37,1.07C166.88,380.22,167.38,381.75,167.67,382.72Z" style="fill:#fafafa"></path><path d="M172.82,386.1c-2.64-7.39-2.17-10.52-.43-11.85l1.39.8c-1.38,1.63-1.28,4.45.42,9.57Z" style="fill:#37474f"></path><path d="M177.15,388.7c.56-3.06,3.94-6.6,3.25-9.55-.37-1.73-3.66-2.73-4.72-3.89S173.06,373,172,374c-.06.06-.1.12-.16.17a5.46,5.46,0,0,1,2.31,1.77,12.38,12.38,0,0,0,2.4,2,12.33,12.33,0,0,0-2,3c-.36,1.14,0,2.17-1.4,3.83s-3.59,2.47-3.42,3.44.52,2-1.37,4c-2.5,2.62-2.59,3.56-3.52,3.91-.39.15-.58-.08-.68-.4a5.88,5.88,0,0,0,1.15,4.71c2.63.64,7-1.86,8.77-3.86S176.61,391.71,177.15,388.7Z" style="fill:#263238"></path><path d="M174.05,396.57c1.75-2,2.56-4.86,3.1-7.87s3.95-6.6,3.25-9.55a2.31,2.31,0,0,0-.79-1.21c-2.1-.16-4,2.94-4.39,5.63s-.67,4.53-4,7.82-6.21,7.83-5.95,9C167.91,401.07,172.3,398.57,174.05,396.57Z"></path><path d="M176.34,380.31c-.88,2.93-5.64,4.34-7.66,6.74s-4.15,4.48-6.69,5.35-7.66.86-9.64-1a6.38,6.38,0,0,1,2.68-6,31.51,31.51,0,0,0,5.47-4.61,8.32,8.32,0,0,0,2.21-5.11c0-1.31-.19-1.51.45-1.65s1.13-.24,1.05.33c1.33-.64,3,1.89,3.5.75a6,6,0,0,1,3.85-3.54c1.41-.31,2.24,1.4,2.59,3S176.88,378.59,176.34,380.31Z" style="fill:#00ADB5"></path><path d="M176.34,380.31c-.88,2.93-5.64,4.34-7.66,6.74s-4.15,4.48-6.69,5.35-7.66.86-9.64-1a6.38,6.38,0,0,1,2.68-6,31.51,31.51,0,0,0,5.47-4.61,8.32,8.32,0,0,0,2.21-5.11c0-1.31-.19-1.51.45-1.65s1.13-.24,1.05.33c1.33-.64,3,1.89,3.5.75a6,6,0,0,1,3.85-3.54c1.41-.31,2.24,1.4,2.59,3S176.88,378.59,176.34,380.31Z" style="fill:#fff;opacity:0.2"></path><path d="M163.36,377c.6-.88.67-2.09,1.14-2.14a4.15,4.15,0,0,1,2.09.8c1,.57,1.42.64,1.89-.36s.74-2,2-2.59a4.13,4.13,0,0,1,2.05-.54l-.35-.65a1.46,1.46,0,0,0-.59,0,6,6,0,0,0-3.85,3.54c-.5,1.14-2.17-1.39-3.5-.75C163.93,374.43,163.59,376,163.36,377Z" style="fill:#fafafa"></path><path d="M166.18,382.59c1.4-7.82,3.39-10.33,5.59-10.62l.82,1.4c-2,.74-3.37,3.26-4.45,8.61Z" style="fill:#37474f"></path><path d="M168.68,387.05c2-2.4,6.78-3.81,7.66-6.74.54-1.72-1.85-4.25-2.19-5.8s-1.18-3.27-2.59-3l-.22.07a5.47,5.47,0,0,1,1.14,2.71,12.57,12.57,0,0,0,1.1,3,12.47,12.47,0,0,0-3.31,1.61c-.9.82-1.06,1.94-3.16,2.67s-4.4.35-4.74,1.29-.56,2-3.21,2.82c-3.51,1-4.06,1.81-5.06,1.66-.41-.06-.47-.37-.4-.7a6,6,0,0,0-1.35,4.72c2,1.88,7.1,1.9,9.64,1S166.69,389.42,168.68,387.05Z" style="fill:#263238"></path><path d="M162,392.4c2.54-.87,4.7-3,6.69-5.35s6.78-3.81,7.66-6.74a2.42,2.42,0,0,0-.09-1.47c-1.76-1.2-5,.58-6.69,2.73s-2.86,3.64-7.44,4.86-9.4,3.75-9.77,4.95C154.33,393.26,159.45,393.28,162,392.4Z"></path><g id="freepik--bottom--inject-17"><path d="M201.8,450.73c-1.21-1-2.21-1.44-2.44-.73a11.12,11.12,0,0,0,0,2.86l.57,2v1.75s.36,1.07.38,1.15,1.43-2.8,1.43-2.8S203.52,451.77,201.8,450.73Z"></path><path d="M169.34,446.37s8.16-12.25,12.34-19.59c3.09-5.43,3.38-6.49,4.16-10.06,1.69-7.67,2.09-9.47,2.09-9.47l2.17,15.57a42.39,42.39,0,0,0-1.27,7,76.89,76.89,0,0,0,.77,11.46A123.09,123.09,0,0,0,191.75,454c.59.43,2.31.54,3.81.51a17.54,17.54,0,0,0,4.29-.75s1.49-18.3,1.85-23.33c.43-6,.58-8.41.81-11.73.36-5.28,1.17-12.93,1.1-22.64-.15-19.33-4.26-28.21-4.26-28.21l-23.46-.15c-.79,2.59-3.64,5.73-4.59,13.23-.25,2-.2,4.15,1.48,8.82,0,10.15.66,26.11.66,26.11-2.38,2.17-4.13,4.14-5.82,9.24-1,3.1-4.26,13-5.22,15.73C165.66,441.81,169.34,446.37,169.34,446.37Z" style="fill:#455a64"></path><path d="M180.19,373.42c-2.18,4.78-2.58,9.41-.77,14l.53-.23c-1.73-4.34-1-9.18.81-13.53Z" style="fill:#37474f"></path><path d="M187.93,407.25l-2.11-16.32s-6-.95-6.77-6.71a7.6,7.6,0,0,0,4.83,8l2.79,15.08-.83,9.43Z" style="fill:#37474f"></path><path d="M213.51,463.36c.36,0,.31,1.35.19,1.81s-1.57,2-4.16,2.55-6.55,0-8.08-.09-3,.69-5.18,1c-1.91.26-4.49-.24-5.39-1.13a1.86,1.86,0,0,1-.37-1.48c0-1,.11-1.24.23-1.23Z" style="fill:#263238"></path><path d="M190.71,462.44a9.28,9.28,0,0,0,0,3,3.13,3.13,0,0,0,2,1.4,9.54,9.54,0,0,0,5.22,0,14.92,14.92,0,0,1,4-.44,38.42,38.42,0,0,0,5.36.18,12.76,12.76,0,0,0,3.92-.88,3.7,3.7,0,0,0,2.36-2.18,3.63,3.63,0,0,0-2-3.59,10,10,0,0,0-4-.8,16,16,0,0,1-3.92-.5c-.88-.24-2.12.12-2.53-.88-.47-1.19-.06-3.43-.23-4.68a.73.73,0,0,0-.25-.54c-.24-.16-.54,0-.78.17a8,8,0,0,1-3.66,1.27c-3.57.45-4.54-.87-4.54-.87l-.16-.78s-.78.13-.52,1.88a24.59,24.59,0,0,1,.35,4.39A14.7,14.7,0,0,1,190.71,462.44Z" style="fill:#37474f"></path><path d="M206.84,459.12c1.25.6.87,2.92.87,2.92a11.52,11.52,0,0,1-4.17-.11,4.08,4.08,0,0,1-3.26-4.35c.08-2,1.45-4.39,1.82-5.18a1.28,1.28,0,0,0-.3-1.67,1.88,1.88,0,0,1,.77,2.56c-.37,1-1,2.92-.81,3.72S203.83,458.82,206.84,459.12Z" style="fill:#263238"></path><path d="M169.58,445.59c.64,1.09,1.4,1.89-.7,3.14-1.62,1-1.77,1.82-2.33,2.93a10.72,10.72,0,0,0-.6,3.41s-2.4-4.38-1.45-7S169.58,445.59,169.58,445.59Z" style="fill:#263238"></path><path d="M161.15,442.61a9.17,9.17,0,0,1-2.74,1.84c-.7.39-1.42.77-1.67,1.56,0,.09.36.62.34.71a5.16,5.16,0,0,0,0,1.18c.06,1.38.72,2.43.79,3.81a9.68,9.68,0,0,0,.18,1.62,10.67,10.67,0,0,1,0,2c0,.68,0,1.36,0,2a3.62,3.62,0,0,1,0,.87c-.08.28,4.21,2.91,5.95,3.93l.31.16a4.48,4.48,0,0,0,3.29-.11c3.65-1.1,3.51-2.46,3.51-2.46a3,3,0,0,0-1.53-2.72,4.38,4.38,0,0,0-.66-.37l0,0a4.55,4.55,0,0,0-2.77-.34,5,5,0,0,1-.13-1.72,19.08,19.08,0,0,1,.12-2.62,6.83,6.83,0,0,1,1.25-2.67c.82-1,1.73-2.36,2.29-3.1s.81-2.56-2-5-4.82-2-5.28-1.15A12.16,12.16,0,0,1,161.15,442.61Z" style="fill:#37474f"></path><path d="M167.89,457.76a2.74,2.74,0,0,0-1.16-1.55,4.88,4.88,0,0,0-.64.07C166.43,456.68,167.68,457.28,167.89,457.76Z" style="fill:#263238"></path><path d="M156.26,446.77c-.82.3-.13,2.6.34,4.77s.71,2.93.41,4.72-.47,2.59.24,3.27a72.83,72.83,0,0,0,6.41,3.54,21.63,21.63,0,0,1-1.13-6.77c-.05-4-.26-6.56-2-8.41A4.41,4.41,0,0,0,156.26,446.77Z" style="fill:#00ADB5"></path><path d="M156.26,446.77c-.82.3-.13,2.6.34,4.77s.71,2.93.41,4.72-.47,2.59.24,3.27a72.83,72.83,0,0,0,6.41,3.54,21.63,21.63,0,0,1-1.13-6.77c-.05-4-.26-6.56-2-8.41A4.41,4.41,0,0,0,156.26,446.77Z" style="opacity:0.4"></path><path d="M171.08,459.73c-.14.76-2.36,2.19-4.86,2s-2.69-.77-2.88-3.86-.2-7.34-1.36-9.25-2.76-3.1-5.24-2.6c-.29.12-1.1.86-.86,1.61,0,0,0-.58,1.05-.81s1.9-.11,3.25,1.28c1.58,1.62,1.74,5.17,1.74,8.22s.05,6.58,2.44,7a8.67,8.67,0,0,0,6.59-1.84A3.81,3.81,0,0,0,171.08,459.73Z" style="fill:#263238"></path></g><g id="freepik--top--inject-17"><path d="M175.41,339.17c-3.73.45-5.82,1.24-7.87,6-1.95,4.52-5.34,10.9-6.43,15.44-.39,1.62-.58,3.14,1.58,4.35A118.85,118.85,0,0,0,175,370.62l.56-7-5.23-2.94,1.87-4.27Z" style="fill:#ffbda7"></path><path d="M170.35,360.7a5.22,5.22,0,0,1-2.54,2.21c1.32.32,2.82-1,3.25-1.81Z" style="fill:#f0997a"></path><path d="M171.06,343.81c.76-2.31,2.2-4.28,4.35-4.64.77-.13,2.65-.27,2.65-.27-.4,1.15.48,1.82,1.95,2.05,1.89.29,4.72.12,6.55-1.3l.56-.48a47.09,47.09,0,0,1,5.21.37c3.24.77,4.15,1.72,8.42,9.63,1.83,3.38,1.45,7.18-2,9.66A43.46,43.46,0,0,0,199,366c.4,2.37,2.28,5.91,2.8,10.24-4.18,3.16-23.55,5.79-29.71-.15,1.6-5.28,1.84-7.2,1.93-10.44C174.19,360.39,168.67,351.13,171.06,343.81Z" style="fill:#00ADB5"></path><path d="M205.08,365.21a108.05,108.05,0,0,1-9.78-9.73c-3.8-4.27-5-6.45-5.26-8.69-.74-6.06,2-7.32,2-7.32,3.77-.14,5.45,1.08,8.34,5.25,3.86,5.58,8.16,11.12,8.16,11.12s10.36-7.38,10.79-8.24a4.48,4.48,0,0,0,.16-2.3,9.42,9.42,0,0,1,.33-2.64c.14-.57.39-1.11.5-1.68s0-1.07.07-1.59.62-.46,1-.2a2.48,2.48,0,0,1,.82,1.67c0,.28.07.56.1.84a4,4,0,0,0,.09.77.62.62,0,0,0,.2.34c.25.15.58-.21.73-.38a11.24,11.24,0,0,0,2.13-3.86c.18-.61.26-1.23.49-1.83a5.65,5.65,0,0,1,.85-1.54c.19-.23.62-.68.94-.72.62-.08.47,1.06.48,1.41a2.2,2.2,0,0,0,.29,1.14,1.75,1.75,0,0,1,.24,1.34,3.6,3.6,0,0,0,0,1.53,4.09,4.09,0,0,0,.25.46A2.62,2.62,0,0,1,229,342a2.08,2.08,0,0,0,.14,1.47c.43,1.07-.25,2.39-.79,3.29a15.14,15.14,0,0,1-2.27,2.84c-.46.47-.87,1-1.34,1.43s-.88.77-1.27,1.21c-.92,1-8.07,9.08-11.11,11.92C210.88,365.51,208.74,368,205.08,365.21Z" style="fill:#ffbda7"></path><path d="M191.6,317.26a3.42,3.42,0,0,0-.23-3.38c-.6-1-1.66-2-4.45-2.9-3.31-1.06-11.88-.79-15.1,5.39-.47.88,10.36,15,10.49,18.28,1.76-2.6,7.5-11.69,7.5-11.69,1.55-1,2.46-1.76,2.55-3.4A4,4,0,0,0,191.6,317.26Z" style="fill:#263238"></path><path d="M191.13,321.86s2.88,3.31,2.68,3.65a12.12,12.12,0,0,1-1.49,1.39Z" style="fill:#f0997a"></path><path d="M187.21,315.6c1.63.46,3.14,1.41,4.16,4.65.27.85-.21,2.15.29,3.26,2.15,4.72,1.27,9.11.46,10.18-.55.73-3.9,1.57-5.76,1.37-2.34-.25-7.55-1.63-10.45-4.73-3.4-3.65-5-9.06-2.3-11.78C177.35,314.72,185.46,315.11,187.21,315.6Z" style="fill:#ffbda7"></path><path d="M187.14,333.63l0,5.55-.56.47c-1.82,1.42-4.66,1.59-6.55,1.3-1.47-.23-2.35-.9-1.95-2.05l-.22-6Z" style="fill:#ffbda7"></path><path d="M192,333.85a8.8,8.8,0,0,1-4.83,1.25v-1.25a12.6,12.6,0,0,0,2.37.29A8.47,8.47,0,0,0,192,333.85Z" style="fill:#f0997a"></path><path d="M178.83,332.43a5,5,0,0,1-2.66,3.9c.61,1.58,0,2.72-1.25,3.7a3.11,3.11,0,0,1-.69,3.65,3.79,3.79,0,0,1,0,3.58c1.13,1.06,1.91,2.12,1.66,3.71.69.42,1.1.54,1.52,1.41a2.87,2.87,0,0,1-.45,3.17c0-.7.21-1.13-.63-1.61s-1.68-1.14-1.36-2.38c-1.9-.42-2.28-2.21-2.42-3.87a3,3,0,0,1-.57-4.18,2.76,2.76,0,0,1,.56-4.06c-1.11-1.35-.32-2.91.54-4.13-1.35-2.69.05-4.91,2.12-6.67C176.4,329.9,177.62,331.15,178.83,332.43Z" style="fill:#263238"></path><path d="M188.93,316.11a3.16,3.16,0,0,1-1.69,3.63,4.73,4.73,0,0,1,.82,2.48,2.74,2.74,0,0,1-1.31,2.63c-.62.33-.86.08-1.19-.4-.45-.69-1.06-1.75-2.61-1.27-1.77.56-1.79,3.37-.44,5a2.4,2.4,0,0,0,2.17.92,2.18,2.18,0,0,0,1.25-.68,8.37,8.37,0,0,1-1.75,6.06s-4,1.36-6.94.13a59.51,59.51,0,0,1-4.88-4.3c-4.16-4.28-6.3-13-.86-15.57.26-.12,5.31-1.71,7.92-1.58C187.43,313.53,188.85,315.74,188.93,316.11Z" style="fill:#263238"></path><path d="M184.8,333.52a4.94,4.94,0,0,1-1.34,4.52c1.07,1.32.85,2.59-.05,3.91a3.1,3.1,0,0,1,.46,3.68,3.77,3.77,0,0,1,1.06,3.42c1.41.66,2.47,1.43,2.72,3a2.85,2.85,0,0,1,1.88.88,2.87,2.87,0,0,1,.55,3.15c-.19-.67-.15-1.14-1.1-1.33s-1.95-.57-2-1.86c-1.93.19-2.84-1.4-3.49-2.94a3,3,0,0,1-1.82-3.8,2.76,2.76,0,0,1-.71-4c-1.47-.95-1.2-2.68-.75-4.1-2.11-2.15-1.47-4.69,0-7C181.71,331.85,183.26,332.67,184.8,333.52Z" style="fill:#263238"></path></g><g id="freepik--harness--inject-17"><path d="M172.6,389.18l.17.47s1.39,2.11,6.1,2.8c5.08.75,7.11-.33,7.11-.33l.59,4.6a12,12,0,0,1-7.56,1.45c-5.42-.61-6.5-2.19-6.61-4.13s0-2.71-.12-3.64S172.6,389.18,172.6,389.18Z" style="fill:#263238"></path><path d="M174.26,371.71c-.44,3.76-1.33,7.17-1.26,11a42.44,42.44,0,0,0,2.1,11.12c.46,0,.92,0,1.37-.05-1.12-3.78-2.25-7.75-2.09-11.57A56.4,56.4,0,0,1,175.76,372C175.26,371.93,174.76,371.81,174.26,371.71Z" style="fill:#263238"></path><path d="M174.27,381.68a10.48,10.48,0,0,1-3.84,4.38,1.9,1.9,0,0,1-1-.8,26.18,26.18,0,0,0,2.13-1.64,4.57,4.57,0,0,0,1.38-2.21Z" style="fill:#37474f"></path><path d="M174.73,378.42c.36.22,0,1.27-.06,1.64s.13,1.39-.28,1.65-1.27.38-1.61-.12-.05-1.69,0-2.19,0-.95.43-1.08C173.38,378.92,174.46,378.9,174.73,378.42Z" style="fill:#00ADB5"></path><path d="M187.29,373.61c-.44,3.77-1.34,7.17-1.27,11a44.77,44.77,0,0,0,2.11,11.49c.46,0,1.12.45,1.58.4-1.13-3.77-2.46-8.57-2.3-12.39a56.41,56.41,0,0,1,1.37-10.25C188.29,373.83,187.79,373.71,187.29,373.61Z" style="fill:#263238"></path><path d="M187.3,383.58a10.51,10.51,0,0,1-3.85,4.38,2,2,0,0,1-1-.8c.72-.53,1.47-1,2.14-1.64a4.63,4.63,0,0,0,1.37-2.21Z" style="fill:#37474f"></path><path d="M187.75,380.32c.37.22,0,1.27-.06,1.64s.13,1.39-.28,1.65-1.26.38-1.61-.11-.05-1.7,0-2.2,0-.95.44-1.07C186.4,380.82,187.48,380.8,187.75,380.32Z" style="fill:#00ADB5"></path><path d="M186.16,393.59l.11.81c2.25,1.87,6.1,2.21,10.53,1.1,5.81-1.47,6.66-4.85,6.66-4.85l-.05-1s.42-.18.54.95a14.7,14.7,0,0,1-.23,5.54c-.43,1.34-2.38,3.52-7.18,4.75-5.18,1.31-8.41.4-9.52-.67-.53-.51-.44-1.11-.83-3.18S185.52,393.75,186.16,393.59Z" style="fill:#263238"></path><path d="M198.85,364.63s-.43,1.84-7,2.64a45.09,45.09,0,0,1-14.62-.27c-2.87-.69-3.22-1.35-3.22-1.35,0-.32,0-.82-.05-1.15a.76.76,0,0,0-.5.8,17.34,17.34,0,0,1-.58,3.69,13.65,13.65,0,0,0-.67,3c0,1,1.09,2.41,5,3.62s12.45.11,15.2-1.13,4.84-4.35,6.45-5.25a3.45,3.45,0,0,0,.84-.59c.28-.36-.25-1.9-.33-3.09-.05-.83-.11-1.5-.63-1.51Z" style="fill:#263238"></path><path d="M172.57,370.25a3.39,3.39,0,0,0,1.1.72,3,3,0,0,0,2.2-.09,6,6,0,0,1,3.46-.2,8,8,0,0,1,2.39,1.12,7.15,7.15,0,0,0,4.54,1.38c3.07-.08,6.5-1.48,10.45-3.1l2.27-.92,0,0a7.33,7.33,0,0,0-1.36,1.08l-.67.28c-3.82,1.56-7.14,2.92-10.19,3.11l-.43,0a7.68,7.68,0,0,1-4.82-1.45,7.17,7.17,0,0,0-2.25-1.06,5.53,5.53,0,0,0-3.2.19,3.53,3.53,0,0,1-2.53.08,4,4,0,0,1-1.06-.66Z" style="fill:#37474f"></path><path d="M174.53,367.48c-.5,3.48,1,6.17,3.7,6.83a6.16,6.16,0,0,0,1.8.16,5.52,5.52,0,0,0,2.91-1.06,5.45,5.45,0,0,0,2.27-3.84.38.38,0,0,0-.75-.05,4.88,4.88,0,0,1-6.05,4.06c-2.38-.58-3.58-2.87-3.14-6a.37.37,0,0,0-.74-.1Zm11.05,6.11a4.42,4.42,0,0,0,4.53,2.82,6.06,6.06,0,0,0,1.54-.3,3.79,3.79,0,0,0,2.58-2.15,3.47,3.47,0,0,0-.17-2.86.38.38,0,1,0-.66.36,2.67,2.67,0,0,1,.13,2.22,3.12,3.12,0,0,1-2.11,1.72c-2.84.91-4.54-.55-5.14-2.08a.38.38,0,0,0-.49-.21A.37.37,0,0,0,185.58,373.59Zm-15.19-.49a2,2,0,0,0,1,.23c.87-.06,1.72-.77,2.58-2.16a.36.36,0,0,0-.12-.51.37.37,0,0,0-.52.12c-1.24,2-2,1.94-2.62,1.65a.38.38,0,0,0-.5.16A.39.39,0,0,0,170.39,373.1Z" style="fill:#fafafa"></path></g><g id="freepik--helmet--inject-17"><path d="M184,320.92a15.21,15.21,0,0,1,2.71,7.15,1.15,1.15,0,0,1-.61,1.1,10.67,10.67,0,0,1-6.49,1l.06,1s4.41.64,7.41-1.13a4.36,4.36,0,0,1,1.61,3.54,3.58,3.58,0,0,1-.17,1.49,1.83,1.83,0,0,0,1-.14c.32-1.36.15-3.48-1.87-5.82.49-1.67-.42-5.5-2.76-8.83Z" style="fill:#37474f"></path><path d="M177.28,333.43c3.39-.55,3.32-1.33,3.22-2.79s-1.18-5.81,1.89-7.73,5.88-2.18,7.88-5.23c1.09-1.65,1.8-5.16-1-7.18-4.3-3.09-10.29-2.64-15.13.48s-7.47,9.2-6.32,14.23,3.09,6.26,4.45,7.34A8.81,8.81,0,0,0,177.28,333.43Z" style="fill:#00ADB5"></path><path d="M169.32,322.83a9.48,9.48,0,0,0,2.61.11,5.58,5.58,0,0,0,2.5-1,4.85,4.85,0,0,0,1.6-2.19c.32-.88.44-1.71.68-2.52a21.56,21.56,0,0,1,1.79-4.73,5.44,5.44,0,0,1,3.78-3,4.13,4.13,0,0,0-2.47.79,7.72,7.72,0,0,0-1.79,1.95,17,17,0,0,0-2,4.83c-.24.84-.37,1.72-.63,2.47a4.52,4.52,0,0,1-1.3,2A7.31,7.31,0,0,1,169.32,322.83Z" style="opacity:0.2"></path><path d="M175.28,324.13c-.05,1.44-.54,3.47-.24,3.69s1.58-.93,1.67-1.43a19.21,19.21,0,0,0-.08-4C176.57,321.42,175.32,323,175.28,324.13Z"></path><path d="M177.7,324.32a41.61,41.61,0,0,1-.27-5c0-1.54,1-3.77,1.16-2.89a31.83,31.83,0,0,1,.67,4.11,5.2,5.2,0,0,1-.27,2.8C178.64,324.05,177.9,325.24,177.7,324.32Z"></path><path d="M180.33,312.43a2.87,2.87,0,0,0-1,2.46c.31.92.94,4.32,1.09,5.24.21,1.32,1.78-.43,2-1.95C182.53,317.14,180.76,312,180.33,312.43Z"></path><path d="M175.28,324.13a3,3,0,0,1,.9-1.9,18.43,18.43,0,0,1,.07,3.74,3.1,3.1,0,0,1-1.31,1.37C175,326.6,175.24,325.2,175.28,324.13Z" style="fill:#37474f"></path><path d="M178.13,316.57a29.17,29.17,0,0,1,.57,3.7,4.28,4.28,0,0,1-1,3.93,43.79,43.79,0,0,1-.26-4.87A6.58,6.58,0,0,1,178.13,316.57Z" style="fill:#37474f"></path><path d="M180.2,312.57a16.36,16.36,0,0,1,1.61,5.34,3.57,3.57,0,0,1-1.38,2.34s0-.07,0-.12c-.15-.92-.78-4.32-1.09-5.24A2.73,2.73,0,0,1,180.2,312.57Z" style="fill:#37474f"></path></g></g></g></svg>
