<svg xmlns="http://www.w3.org/2000/svg" xmlns:xlink="http://www.w3.org/1999/xlink" width="500" zoomAndPan="magnify" viewBox="0 0 375 374.999991" height="500" preserveAspectRatio="xMidYMid meet" version="1.0"><defs><clipPath id="d9b09b7908"><path d="M 262.5 0.734375 L 375 0.734375 L 375 113.230469 L 262.5 113.230469 Z M 262.5 0.734375 " clip-rule="nonzero"/></clipPath><clipPath id="5fd4a9615f"><path d="M 281.492188 186.425781 L 375 186.425781 L 375 298.921875 L 281.492188 298.921875 Z M 281.492188 186.425781 " clip-rule="nonzero"/></clipPath><clipPath id="9d4e6e996d"><path d="M 281.492188 75 L 375 75 L 375 187.5 L 281.492188 187.5 Z M 281.492188 75 " clip-rule="nonzero"/></clipPath><clipPath id="38ccef04e4"><path d="M 101.589844 0 L 214.089844 0 L 214.089844 37.5 L 101.589844 37.5 Z M 101.589844 0 " clip-rule="nonzero"/></clipPath><clipPath id="cc4d2c3ec5"><path d="M 206.25 0 L 318.75 0 L 318.75 68.914062 L 206.25 68.914062 Z M 206.25 0 " clip-rule="nonzero"/></clipPath><clipPath id="8d50f521be"><path d="M 178.710938 0 L 337.890625 0 L 337.890625 121 L 178.710938 121 Z M 178.710938 0 " clip-rule="nonzero"/></clipPath><clipPath id="b2d7c5852b"><path d="M 178.957031 48.289062 L 251.582031 -37.628906 L 337.5 34.992188 L 264.878906 120.914062 Z M 178.957031 48.289062 " clip-rule="nonzero"/></clipPath><clipPath id="0201249a59"><path d="M 178.957031 48.289062 L 251.582031 -37.628906 L 337.5 34.992188 L 264.878906 120.914062 Z M 178.957031 48.289062 " clip-rule="nonzero"/></clipPath><clipPath id="238107b61d"><path d="M 237 35.644531 L 375 35.644531 L 375 186.523438 L 237 186.523438 Z M 237 35.644531 " clip-rule="nonzero"/></clipPath><clipPath id="ffc3c9007c"><path d="M 237.003906 85.546875 L 337.878906 35.742188 L 387.683594 136.617188 L 286.804688 186.421875 Z M 237.003906 85.546875 " clip-rule="nonzero"/></clipPath><clipPath id="e9b273a066"><path d="M 237.003906 85.546875 L 337.878906 35.742188 L 387.683594 136.617188 L 286.804688 186.421875 Z M 237.003906 85.546875 " clip-rule="nonzero"/></clipPath><clipPath id="258f0be36d"><path d="M 280.761719 233.398438 L 375 233.398438 L 375 375 L 280.761719 375 Z M 280.761719 233.398438 " clip-rule="nonzero"/></clipPath><clipPath id="cdc7fc3aef"><path d="M 280.832031 299.726562 L 371.855469 233.621094 L 449.585938 340.648438 L 358.558594 406.753906 Z M 280.832031 299.726562 " clip-rule="nonzero"/></clipPath><clipPath id="47c36b155a"><path d="M 280.832031 299.726562 L 371.855469 233.621094 L 449.570312 340.628906 L 358.546875 406.738281 Z M 280.832031 299.726562 " clip-rule="nonzero"/></clipPath><clipPath id="31141bc65a"><path d="M 101.5625 0 L 236 0 L 236 63.476562 L 101.5625 63.476562 Z M 101.5625 0 " clip-rule="nonzero"/></clipPath><clipPath id="a780119242"><path d="M 126.171875 -71.15625 L 235.953125 -46.574219 L 211.371094 63.207031 L 101.589844 38.625 Z M 126.171875 -71.15625 " clip-rule="nonzero"/></clipPath><clipPath id="1754160088"><path d="M 126.171875 -71.15625 L 235.953125 -46.574219 L 211.371094 63.207031 L 101.589844 38.625 Z M 126.171875 -71.15625 " clip-rule="nonzero"/></clipPath><clipPath id="882e3b4045"><path d="M 0 0 L 145.996094 0 L 145.996094 50.78125 L 0 50.78125 Z M 0 0 " clip-rule="nonzero"/></clipPath><clipPath id="d0fcba10a1"><path d="M 40.203125 -105.015625 L 145.871094 -65.285156 L 102.261719 50.699219 L -3.40625 10.96875 Z M 40.203125 -105.015625 " clip-rule="nonzero"/></clipPath><clipPath id="17a66773aa"><path d="M 40.203125 -105.015625 L 145.871094 -65.285156 L 102.3125 50.566406 L -3.355469 10.835938 Z M 40.203125 -105.015625 " clip-rule="nonzero"/></clipPath></defs><path stroke-linecap="butt" transform="matrix(0.344352, 0.124627, -0.124627, 0.344352, 0.2492, 0.0440492)" fill="none" stroke-linejoin="miter" d="M 0.00164438 2.004112 L 295.017408 2.000609 " stroke="#000000" stroke-width="4" stroke-opacity="1" stroke-miterlimit="4"/><path stroke-linecap="butt" transform="matrix(0.35942, 0.0701963, -0.0701963, 0.35942, 101.731368, 36.781594)" fill="none" stroke-linejoin="miter" d="M -0.0032611 1.999427 L 239.022372 2.006489 " stroke="#000000" stroke-width="4" stroke-opacity="1" stroke-miterlimit="4"/><path stroke-linecap="butt" transform="matrix(0.279153, 0.237032, -0.237032, 0.279153, 188.447966, 54.278735)" fill="none" stroke-linejoin="miter" d="M -0.00454133 1.999906 L 216.207471 2.002859 " stroke="#000000" stroke-width="4" stroke-opacity="1" stroke-miterlimit="4"/><path stroke-linecap="butt" transform="matrix(0.157716, 0.330509, -0.330509, 0.157716, 249.660456, 106.061727)" fill="none" stroke-linejoin="miter" d="M 0.00497008 2.000671 L 201.812428 2.000822 " stroke="#000000" stroke-width="4" stroke-opacity="1" stroke-miterlimit="4"/><path stroke-linecap="butt" transform="matrix(-0.00193026, 0.366206, -0.366206, -0.00193026, 282.222584, 173.394862)" fill="none" stroke-linejoin="miter" d="M -0.00105761 1.994502 L 342.798432 2.000972 " stroke="#000000" stroke-width="4" stroke-opacity="1" stroke-miterlimit="4"/><path stroke-linecap="butt" transform="matrix(0.217121, 0.294905, -0.294905, 0.217121, 282.078092, 298.49128)" fill="none" stroke-linejoin="miter" d="M 0.000568779 2.00042 L 257.966929 1.994252 " stroke="#000000" stroke-width="4" stroke-opacity="1" stroke-miterlimit="4"/><g clip-path="url(#d9b09b7908)"><path fill="#38b6ff" d="M 262.5 0.734375 L 375 0.734375 L 375 113.230469 L 262.5 113.230469 Z M 262.5 0.734375 " fill-opacity="1" fill-rule="nonzero"/></g><g clip-path="url(#5fd4a9615f)"><path fill="#38b6ff" d="M 281.492188 186.425781 L 393.988281 186.425781 L 393.988281 298.921875 L 281.492188 298.921875 Z M 281.492188 186.425781 " fill-opacity="1" fill-rule="nonzero"/></g><g clip-path="url(#9d4e6e996d)"><path fill="#38b6ff" d="M 281.492188 75 L 393.988281 75 L 393.988281 187.5 L 281.492188 187.5 Z M 281.492188 75 " fill-opacity="1" fill-rule="nonzero"/></g><g clip-path="url(#38ccef04e4)"><path fill="#38b6ff" d="M 101.589844 -75 L 214.089844 -75 L 214.089844 37.5 L 101.589844 37.5 Z M 101.589844 -75 " fill-opacity="1" fill-rule="nonzero"/></g><g clip-path="url(#cc4d2c3ec5)"><path fill="#38b6ff" d="M 206.25 -43.585938 L 318.75 -43.585938 L 318.75 68.914062 L 206.25 68.914062 Z M 206.25 -43.585938 " fill-opacity="1" fill-rule="nonzero"/></g><g clip-path="url(#8d50f521be)"><g clip-path="url(#b2d7c5852b)"><g clip-path="url(#0201249a59)"><path fill="#38b6ff" d="M 178.957031 48.289062 L 251.582031 -37.628906 L 337.5 34.992188 L 264.878906 120.914062 Z M 178.957031 48.289062 " fill-opacity="1" fill-rule="nonzero"/></g></g></g><g clip-path="url(#238107b61d)"><g clip-path="url(#ffc3c9007c)"><g clip-path="url(#e9b273a066)"><path fill="#38b6ff" d="M 237.003906 85.546875 L 337.878906 35.742188 L 387.683594 136.617188 L 286.804688 186.421875 Z M 237.003906 85.546875 " fill-opacity="1" fill-rule="nonzero"/></g></g></g><g clip-path="url(#258f0be36d)"><g clip-path="url(#cdc7fc3aef)"><g clip-path="url(#47c36b155a)"><path fill="#38b6ff" d="M 280.832031 299.726562 L 371.855469 233.621094 L 449.585938 340.648438 L 358.558594 406.753906 Z M 280.832031 299.726562 " fill-opacity="1" fill-rule="nonzero"/></g></g></g><g clip-path="url(#31141bc65a)"><g clip-path="url(#a780119242)"><g clip-path="url(#1754160088)"><path fill="#38b6ff" d="M 126.171875 -71.15625 L 235.953125 -46.574219 L 211.371094 63.207031 L 101.589844 38.625 Z M 126.171875 -71.15625 " fill-opacity="1" fill-rule="nonzero"/></g></g></g><g clip-path="url(#882e3b4045)"><g clip-path="url(#d0fcba10a1)"><g clip-path="url(#17a66773aa)"><path fill="#38b6ff" d="M 40.203125 -105.015625 L 145.871094 -65.285156 L 102.261719 50.699219 L -3.40625 10.96875 Z M 40.203125 -105.015625 " fill-opacity="1" fill-rule="nonzero"/></g></g></g></svg>