<?xml version="1.0" encoding="utf-8"?>
<!-- Generator: Adobe Illustrator 19.0.0, SVG Export Plug-In . SVG Version: 6.00 Build 0)  -->
<svg version="1.1" id="Layer_1" xmlns="http://www.w3.org/2000/svg" xmlns:xlink="http://www.w3.org/1999/xlink" x="0px" y="0px"
	 viewBox="0 0 1400 980" style="enable-background:new 0 0 1400 980;" xml:space="preserve">
<style type="text/css">
	.st0{fill:#FFD038;}
	.st1{fill:#49FFC8;}
	.st2{fill:#23AF80;}
	.st3{fill:#FFFCCB;}
	.st4{fill:#E2DEB7;}
	.st5{fill:#4B6C7D;}
	.st6{fill:#36515B;}
	.st7{fill:#FFABBA;}
	.st8{fill:#640120;}
	.st9{fill:#75E754;}
	.st10{fill:#359532;}
	.st11{fill:#9CC6F4;}
	.st12{fill:#2E4559;}
	.st13{fill:#FF9756;}
	.st14{fill:#A04500;}
	.st15{fill:#F2623D;}
	.st16{fill:#AF4631;}
	.st17{fill:#FFF64B;}
	.st18{fill:#A86703;}
	.st19{fill:#A8A488;}
	.st20{fill:#00952B;}
	.st21{fill:#4A687F;}
	.st22{fill:#00675B;}
	.st23{fill:#FF6100;}
	.st24{fill:#FF4C30;}
	.st25{fill:#FFDA33;}
	.st26{fill:#176D4E;}
	.st27{fill:#BC9424;}
	.st28{fill:#775A10;}
	.st29{fill:#24013D;}
	.st30{fill:#420268;}
	.st31{fill:#B102FF;}
	.st32{fill:#B9380E;}
	.st33{fill:#6CFF97;}
	.st34{fill:#00770F;}
	.st35{fill:#F3FF4E;}
	.st36{fill:#9DA020;}
	.st37{fill:#B2FF82;}
	.st38{fill:#7F2209;}
	.st39{fill:#FF2E05;}
	.st40{fill:#9D3700;}
	.st41{fill:#75210A;}
	.st42{fill:#1FA5FF;}
	.st43{fill:#C75241;}
	.st44{fill:#FF7110;}
	.st45{fill:#00859A;}
	.st46{fill:#5E3600;}
	.st47{fill:#823129;}
	.st48{fill:#BCEC00;}
	.st49{fill:#308400;}
	.st50{fill:#FFFB25;}
</style>
<polygon class="st0" points="732.8,477 1035.9,354.4 1053.9,207.8 1269.9,0 732.8,0 "/>
<g>
	<polygon class="st1" points="615,0 732.8,0 732.8,726.5 660.8,980 393.8,980 553,632.8 485,262.3 	"/>
	<polygon class="st2" points="566.6,97.7 661.7,225.5 732.8,182.9 732.8,0 615,0 	"/>
	<g>
		<path class="st2" d="M589.4,679.9L589.4,679.9c4.2-2.2,9.1-2.3,13.4-0.4l21.6,9.5c3.6,1.6,7.6,1.7,11.3,0.5l5.4-1.9
			c12.5-4.4,24.4,8,19.5,20.3l-8.3,21.1c-3.7,9.4-15.2,12.8-23.4,6.9l-41.4-29.7C578.1,699.5,579.1,685.2,589.4,679.9z"/>
		<path class="st2" d="M596.7,216.8L596.7,216.8c3.2-0.2,6.2,1.1,8.4,3.5l10.7,12c1.8,2,4.2,3.2,6.9,3.5l3.8,0.4
			c8.9,0.8,12.8,11.8,6.3,18l-11.1,10.7c-4.9,4.7-13,3.6-16.4-2.3l-17.2-30C584.2,225.7,588.9,217.2,596.7,216.8z"/>
		<path class="st2" d="M596.3,446.4L596.3,446.4c-0.4,3.2-2.1,6-4.8,7.7l-13.5,8.6c-2.2,1.4-3.9,3.7-4.5,6.2l-1,3.7
			c-2.3,8.7-13.7,10.7-18.8,3.3l-8.8-12.6c-3.9-5.6-1.5-13.4,4.9-15.8l32.3-12.1C589.5,432.6,597.1,438.6,596.3,446.4z"/>
		<path class="st2" d="M465,915L465,915c1.1-4.6,4.1-8.4,8.4-10.4l21.3-10.2c3.5-1.7,6.3-4.7,7.7-8.3l2.1-5.3
			c4.8-12.3,21.9-13.3,28.1-1.6l10.6,20c4.7,8.9-0.2,19.9-10,22.3l-49.4,12.1C472.5,936.3,462.4,926.2,465,915z"/>
		<path class="st2" d="M665.6,466.2l-14.7,23.8c-6.5,10.6-0.7,24.4,11.4,27.2l30.8,7.1c15.1,3.5,27.3-12.4,20.1-26.1l-16.2-30.8
			C690.5,454.8,673,454.2,665.6,466.2z"/>
		<path class="st2" d="M538.4,335l37.2,18.3c1.8,0.9,3.9,1.3,5.9,1.1l56.5-5.1c8.1-0.7,12.7-9.7,8.7-16.7v0
			c-1.4-2.5-3.8-4.3-6.5-5.1l-83.8-24.7c-4.2-1.2-8.8,0.1-11.6,3.4l-9.9,11.6C530.1,323.2,531.9,331.7,538.4,335z"/>
		<path class="st2" d="M636.9,852.1l19-12.6c0.9-0.6,1.7-1.5,2.2-2.5l13.2-28.2c1.9-4.1-1-8.7-5.5-8.7l0,0c-1.6,0-3.1,0.6-4.2,1.7
			l-34.9,32.9c-1.8,1.7-2.4,4.2-1.6,6.5l2.7,7.9C629,852.8,633.5,854.3,636.9,852.1z"/>
		<path class="st2" d="M629.8,86.4l13.8-10.2c6.4-4.8,15-5.5,22.1-1.8l8.3,4.3c5.7,2.9,9.7,8.3,10.9,14.6l6.7,34.6
			c0.3,1.3,0.6,2.6,1.1,3.8l9,22.6c4.5,11.2-1.4,23.8-12.8,27.6h0c-8.9,3-18.6-0.3-23.9-8.1l-40-58.9
			C618.7,105.6,620.8,93,629.8,86.4z"/>
	</g>
	<polygon class="st3" points="232.6,0 615,0 485,262.3 553,632.8 393.8,980 297.8,980 	"/>
	<line class="st4" x1="295.8" y1="63.6" x2="377.3" y2="63.6"/>
	<path class="st4" d="M357.4,519l30.2,38c3.6,4.5,0.4,11.1-5.3,11.1l-39.2,0.1c-4.4,0-7.7-4.1-6.7-8.4l9-38.2
		C346.7,516.1,353.9,514.5,357.4,519z"/>
	<circle class="st4" cx="487.8" cy="545" r="33"/>
	<circle class="st4" cx="517.6" cy="66.1" r="27.2"/>
	<path class="st4" d="M307.3,389.2l3.4,19.3c1.2,6.8,7.8,11.2,14.5,9.8l88.4-19.3c7-1.5,11.1-8.8,8.9-15.6v0
		c-1.6-5-6.3-8.4-11.5-8.4h-91.8C311.7,375,306,381.8,307.3,389.2z"/>
	<line class="st4" x1="481.9" y1="727.7" x2="436.4" y2="701.6"/>
	<path class="st4" d="M401,780.8c-0.2-0.3-25.2,7.3-25.2,7.8"/>
	<path class="st4" d="M430.6,223.4c0.6-10.1-9.4-6-15.6,2l-2.8-9"/>
	<polygon class="st4" points="246.9,214.3 487.5,409.6 264.4,477 	"/>
	<polygon class="st5" points="297.8,980 0,980 0,0 232.6,0 	"/>
	<path class="st6" d="M69.2,154.7c-13.2,6.3-21.4,3.9-24.5-2.6s0.1-14.5,13.3-20.8c13.2-6.3,36.4-11.1,39.5-4.6
		C100.6,133.1,82.4,148.3,69.2,154.7z"/>
	<path class="st6" d="M173.1,108.7c4.3,14,11.7,18.4,18.6,16.3c6.9-2.1,10.6-9.9,6.3-23.9c-4.3-14-16.6-34.3-23.5-32.2
		C167.7,71,168.8,94.7,173.1,108.7z"/>
	<path class="st6" d="M149.9,728.8c9.8,4.7,16,2.9,18.3-2c2.3-4.8-0.1-10.8-9.9-15.5s-27.2-8.3-29.5-3.4
		C126.5,712.7,140.1,724.1,149.9,728.8z"/>
	<path class="st6" d="M87.5,505.4c9.8,4.7,16,2.9,18.3-2c2.3-4.8-0.1-10.8-9.9-15.5s-27.2-8.3-29.5-3.4S77.6,500.6,87.5,505.4z"/>
	<path class="st6" d="M71.7,592.1l-2.5,18.2c-0.5,3.8-4.2,6.3-8,5.4L45.8,612c-5.2-1.3-6.7-8-2.5-11.4l18-14.5
		C65.8,582.5,72.5,586.3,71.7,592.1z"/>
	<path class="st6" d="M179.4,864.7l25.3,10c5.3,2.1,7.6,8.3,5,13.3l-10.9,21c-3.7,7.1-13.9,6.9-17.2-0.4l-14.5-31
		C163.5,869.8,171.3,861.5,179.4,864.7z"/>
	<path class="st6" d="M86.4,385.6c0-3.9-2.8-7.2-6.5-8c-0.8-3.7-4.1-6.5-8-6.5c-4.2,0-7.7,3.2-8.2,7.3c0,0,0,0-0.1,0
		c-4.6,0-8.2,3.7-8.2,8.2c0,3.5,2.1,6.4,5.2,7.6c0.8,3.8,4.1,6.6,8.1,6.6c1.1,0,2.2-0.2,3.2-0.7c1.5,1.8,3.8,2.9,6.3,2.9
		c4.6,0,8.2-3.7,8.2-8.2c0-1.7-0.5-3.3-1.4-4.6C85.8,388.9,86.4,387.3,86.4,385.6z"/>
	<path class="st6" d="M191.7,668.7c3.9,0.8,7.6-1.3,9.1-4.8c3.8-0.1,7.1-2.8,7.9-6.6c0.8-4.1-1.6-8.2-5.5-9.4c0,0,0,0,0-0.1
		c0.9-4.5-2-8.8-6.5-9.7c-3.4-0.7-6.7,0.8-8.5,3.6c-3.8,0-7.3,2.7-8,6.6c-0.2,1.1-0.2,2.2,0,3.3c-2,1.1-3.6,3.1-4.1,5.6
		c-0.9,4.5,2,8.8,6.5,9.7c1.7,0.3,3.3,0.1,4.8-0.5C188.6,667.5,190,668.4,191.7,668.7z"/>
	<path class="st6" d="M163.3,542.7l27.6,4.4c5,0.8,9-4,7.5-8.8l-5.7-17.4c-1.8-5.7-9.6-6.3-12.4-1.1l-0.9,1.6
		c-0.8,1.5-2.1,2.6-3.6,3.2l-13.8,5.1C155.4,532.1,156.4,541.6,163.3,542.7z"/>
	<path class="st6" d="M69.8,267.4l36.3,16.8c6.5,3,14-1.9,13.7-9.1l-1-26.1c-0.3-8.5-10.7-12.5-16.6-6.3l-1.8,1.9
		c-1.6,1.7-3.9,2.8-6.2,2.9l-21,1.6C63.2,249.7,60.8,263.2,69.8,267.4z"/>
	<path class="st6" d="M47.9,888.2l13,24.8c2.3,4.5,8.6,4.9,11.5,0.8l10.6-14.9c3.4-4.9-0.6-11.5-6.5-10.6l-1.8,0.3
		c-1.6,0.2-3.3-0.1-4.7-1l-12.3-8.1C51.8,875.6,44.7,882,47.9,888.2z"/>
	<path class="st6" d="M28.4,769.6l15.1-1c3.2-0.2,5.8,2.4,5.7,5.5l-0.4,13.2c-0.1,4.4-5.3,6.8-8.8,4l-14.7-12.1
		C21.6,776,23.5,769.9,28.4,769.6z"/>
	<path class="st7" d="M65.1,149.6c-13.2,6.3-21.4,3.9-24.5-2.6s0.1-14.5,13.3-20.8s36.4-11.1,39.5-4.6
		C96.5,128,78.3,143.2,65.1,149.6z"/>
	<circle class="st8" cx="56.2" cy="139.8" r="5.8"/>
	<path class="st7" d="M169,103.6c4.3,14,11.7,18.4,18.6,16.3c6.9-2.1,10.6-9.9,6.3-23.9c-4.3-14-16.6-34.3-23.5-32.2
		C163.5,65.9,164.7,89.6,169,103.6z"/>
	<circle class="st8" cx="182.2" cy="103.6" r="5.8"/>
	<path class="st7" d="M145.8,723.7c9.8,4.7,16,2.9,18.3-2c2.3-4.8-0.1-10.8-9.9-15.5s-27.2-8.3-29.5-3.4
		C122.4,707.6,136,719,145.8,723.7z"/>
	<circle class="st8" cx="152.5" cy="716.5" r="4.3"/>
	<path class="st7" d="M83.4,500.2c9.8,4.7,16,2.9,18.3-2c2.3-4.8-0.1-10.8-9.9-15.5c-9.8-4.7-27.2-8.3-29.5-3.4
		S73.5,495.5,83.4,500.2z"/>
	<circle class="st8" cx="90.1" cy="493" r="4.3"/>
	<path class="st9" d="M67.6,587l-2.5,18.2c-0.5,3.8-4.2,6.3-8,5.4l-15.5-3.8c-5.2-1.3-6.7-8-2.5-11.4l18-14.5
		C61.7,577.4,68.4,581.2,67.6,587z"/>
	<circle class="st10" cx="56.8" cy="600.8" r="4.7"/>
	<path class="st9" d="M175.3,859.6l25.3,10c5.3,2.1,7.6,8.3,5,13.3l-10.9,21c-3.7,7.1-13.9,6.9-17.2-0.4l-14.5-31
		C159.4,864.7,167.2,856.4,175.3,859.6z"/>
	<circle class="st10" cx="191.2" cy="880" r="6.9"/>
	<path class="st11" d="M82.2,380.5c0-3.9-2.8-7.2-6.5-8c-0.8-3.7-4.1-6.5-8-6.5c-4.2,0-7.7,3.2-8.2,7.3c0,0,0,0-0.1,0
		c-4.6,0-8.2,3.7-8.2,8.2c0,3.5,2.1,6.4,5.2,7.6c0.8,3.8,4.1,6.6,8.1,6.6c1.1,0,2.2-0.2,3.2-0.7c1.5,1.8,3.8,2.9,6.3,2.9
		c4.6,0,8.2-3.7,8.2-8.2c0-1.7-0.5-3.3-1.4-4.6C81.7,383.8,82.2,382.2,82.2,380.5z"/>
	<circle class="st12" cx="69.8" cy="384.5" r="5.5"/>
	<path class="st11" d="M187.6,663.6c3.9,0.8,7.6-1.3,9.1-4.8c3.8-0.1,7.1-2.8,7.9-6.6c0.8-4.1-1.6-8.2-5.5-9.4c0,0,0,0,0-0.1
		c0.9-4.5-2-8.8-6.5-9.7c-3.4-0.7-6.7,0.8-8.5,3.6c-3.8,0-7.3,2.7-8,6.6c-0.2,1.1-0.2,2.2,0,3.3c-2,1.1-3.6,3.1-4.1,5.6
		c-0.9,4.5,2,8.8,6.5,9.7c1.7,0.3,3.3,0.1,4.8-0.5C184.5,662.4,185.9,663.2,187.6,663.6z"/>
	<circle class="st12" cx="186.1" cy="650.5" r="5.5"/>
	<path class="st13" d="M159.1,537.6l27.6,4.4c5,0.8,9-4,7.5-8.8l-5.7-17.4c-1.8-5.7-9.6-6.3-12.4-1.1l-0.9,1.6
		c-0.8,1.5-2.1,2.6-3.6,3.2l-13.8,5.1C151.3,526.9,152.3,536.5,159.1,537.6z"/>
	<polygon class="st6" points="242.5,148.1 144.7,272 269,547.1 	"/>
	<circle class="st14" cx="183.7" cy="533.3" r="4.7"/>
	<path class="st13" d="M65.7,262.3l36.3,16.8c6.5,3,14-1.9,13.7-9.1l-1-26.1c-0.3-8.5-10.7-12.5-16.6-6.3l-1.8,1.9
		c-1.6,1.7-3.9,2.8-6.2,2.9l-21,1.6C59.1,244.6,56.7,258.1,65.7,262.3z"/>
	<circle class="st14" cx="101.1" cy="266" r="6.7"/>
	<path class="st13" d="M43.8,883.1l13,24.8c2.3,4.5,8.6,4.9,11.5,0.8l10.6-14.9c3.4-4.9-0.6-11.5-6.5-10.6l-1.8,0.3
		c-1.6,0.2-3.3-0.1-4.7-1l-12.3-8.1C47.6,870.5,40.6,876.9,43.8,883.1z"/>
	<circle class="st14" cx="61.8" cy="900.3" r="4.7"/>
	<polygon class="st6" points="0,610.9 116.3,799 0,886.9 	"/>
	<path class="st9" d="M181.5,259.5l11.9,14.1c2.5,2.9,1.9,7.4-1.3,9.5l-13.2,9c-4.4,3-10.4-0.4-10.1-5.7l1.3-23.1
		C170.4,257.4,177.7,255,181.5,259.5z"/>
	<circle class="st10" cx="184.5" cy="276.7" r="4.7"/>
	<path class="st9" d="M24.3,764.5l15.1-1c3.2-0.2,5.8,2.4,5.7,5.5l-0.4,13.2c-0.1,4.4-5.3,6.8-8.8,4L21.2,774
		C17.5,770.9,19.4,764.8,24.3,764.5z"/>
	<circle class="st10" cx="37.2" cy="770.9" r="3.9"/>
	<polygon class="st6" points="0,109.4 124.4,0 0,0 	"/>
	<g>
		<path class="st15" d="M293,54.6h81.6c9.6,0,15,11.1,9,18.6L342.8,125c-4.6,5.8-13.4,5.8-18,0l-40.8-51.7
			C278,65.7,283.4,54.6,293,54.6z"/>
		<circle class="st16" cx="324.7" cy="91" r="12.3"/>
	</g>
	<g>
		<path class="st15" d="M354.6,510l30.2,38c3.6,4.5,0.4,11.1-5.3,11.1l-39.2,0.1c-4.4,0-7.7-4.1-6.7-8.4l9-38.2
			C343.9,507.1,351.1,505.5,354.6,510z"/>
		<circle class="st16" cx="349.4" cy="538.2" r="7.3"/>
	</g>
	<circle class="st17" cx="485" cy="536" r="33"/>
	<circle class="st18" cx="491" cy="553" r="10.2"/>
	<circle class="st18" cx="474.8" cy="520.5" r="6"/>
	<circle class="st17" cx="514.8" cy="57.1" r="27.2"/>
	<circle class="st18" cx="525.8" cy="67.1" r="8.4"/>
	<circle class="st18" cx="501.4" cy="49.8" r="5"/>
	<path class="st19" d="M309.1,384.8l3.4,19.3c1.2,6.8,7.8,11.2,14.5,9.8l88.4-19.3c7-1.5,11.1-8.8,8.9-15.6l0,0
		c-1.6-5-6.3-8.4-11.5-8.4H321C313.5,370.6,307.8,377.4,309.1,384.8z"/>
	<path class="st20" d="M494,705.7l-5.2,10.1c-1.8,3.5-6.3,4.8-9.7,2.9l-45.5-26.1c-3.6-2.1-4.6-6.8-2.2-10.2h0
		c1.8-2.5,4.9-3.5,7.8-2.6l50.7,16C494.1,697.1,496,701.8,494,705.7z"/>
	<path class="st11" d="M375.9,788.6L375.9,788.6c0,3.7-1.5,7.2-4,9.7l-7.9,7.9c-9.5,9.5-1.1,25.7,12.1,23.3l30.9-5.4
		c9.9-1.7,14.6-13.1,9-21.3L401,780.8C393.4,769.6,375.9,775,375.9,788.6z"/>
	<circle class="st21" cx="400.7" cy="809.9" r="7.7"/>
	<path class="st11" d="M412.2,216.5L412.2,216.5c-1.7,2.2-4.1,3.6-6.9,3.9l-8.2,1c-10,1.2-12.4,14.6-3.5,19.3l20.7,11
		c6.6,3.5,14.6-1,15.1-8.4l1.2-19.8C431.2,213.3,418.4,208.5,412.2,216.5z"/>
	<circle class="st21" cx="417" cy="240.4" r="5.7"/>
	<polygon class="st4" points="474.8,803.2 296.5,960.9 297.8,980 393.8,980 	"/>
	<path class="st20" d="M304.5,380.2l3.4,19.3c1.2,6.8,7.8,11.2,14.5,9.8l88.4-19.3c7-1.5,11.1-8.8,8.9-15.6v0
		c-1.6-5-6.3-8.4-11.5-8.4h-91.8C308.9,366,303.2,372.8,304.5,380.2z"/>
	<path class="st22" d="M583,670.9L583,670.9c4.2-2.2,9.1-2.3,13.4-0.4l21.6,9.5c3.6,1.6,7.6,1.7,11.3,0.5l5.4-1.9
		c12.5-4.4,24.4,8,19.5,20.3l-8.3,21.1c-3.7,9.4-15.2,12.8-23.4,6.9l-41.4-29.7C571.7,690.5,572.8,676.2,583,670.9z"/>
	<path class="st22" d="M590.3,207.8L590.3,207.8c3.2-0.2,6.2,1.1,8.4,3.5l10.7,12c1.8,2,4.2,3.2,6.9,3.5l3.8,0.4
		c8.9,0.8,12.8,11.8,6.3,18l-11.1,10.7c-4.9,4.7-13,3.6-16.4-2.3l-17.2-30C577.9,216.7,582.5,208.2,590.3,207.8z"/>
	<path class="st22" d="M589.9,437.4L589.9,437.4c-0.4,3.2-2.1,6-4.8,7.7l-13.5,8.6c-2.2,1.4-3.9,3.7-4.5,6.2l-1,3.7
		c-2.3,8.7-13.7,10.7-18.8,3.3l-8.8-12.6c-3.9-5.6-1.5-13.4,4.9-15.8l32.3-12.1C583.1,423.6,590.8,429.6,589.9,437.4z"/>
	<path class="st23" d="M458.6,906L458.6,906c1.1-4.6,4.1-8.4,8.4-10.4l21.3-10.2c3.5-1.7,6.3-4.7,7.7-8.3l2.1-5.3
		c4.8-12.3,21.9-13.3,28.1-1.6l10.6,20c4.7,8.9-0.2,19.9-10,22.3l-49.4,12.1C466.2,927.3,456,917.2,458.6,906z"/>
	<path class="st24" d="M659.2,457.2l-14.7,23.8c-6.5,10.6-0.7,24.4,11.4,27.2l30.8,7.1c15.1,3.5,27.3-12.4,20.1-26.1l-16.2-30.8
		C684.2,445.8,666.6,445.2,659.2,457.2z"/>
	<path class="st25" d="M532.1,326l37.2,18.3c1.8,0.9,3.9,1.3,5.9,1.1l56.5-5.1c8.1-0.7,12.7-9.7,8.7-16.7v0
		c-1.4-2.5-3.8-4.3-6.5-5.1l-83.8-24.7c-4.2-1.2-8.8,0.1-11.6,3.4l-9.9,11.6C523.7,314.2,525.5,322.7,532.1,326z"/>
	<path class="st25" d="M630.5,843.1l19-12.6c0.9-0.6,1.7-1.5,2.2-2.5l13.2-28.2c1.9-4.1-1-8.7-5.5-8.7l0,0c-1.6,0-3.1,0.6-4.2,1.7
		l-34.9,32.9c-1.8,1.7-2.4,4.2-1.6,6.5l2.7,7.9C622.6,843.8,627.2,845.3,630.5,843.1z"/>
	<path class="st26" d="M631.1,85l13.8-10.2c6.4-4.8,15-5.5,22.1-1.8l8.3,4.3c5.7,2.9,9.7,8.3,10.9,14.6l6.7,34.6
		c0.3,1.3,0.6,2.6,1.1,3.8l9,22.6c4.5,11.2-1.4,23.8-12.8,27.6l0,0c-8.9,3-18.6-0.3-23.9-8.1l-40-58.9
		C620,104.3,622.1,91.7,631.1,85z"/>
	<polygon class="st2" points="553,632.8 675.4,568.3 520.8,457.6 	"/>
	<polygon class="st27" points="1053.9,207.8 913.1,258.8 829,438.1 1035.9,354.4 	"/>
	<g>
		<path class="st27" d="M1059.5,36.8h46.3c7,0,10.9,7.9,6.8,13.5l-8.7,11.6c-0.8,1-1.8,1.9-3,2.5l-21.2,10.6
			c-3.7,1.8-8.1,0.8-10.6-2.5l-16.4-22.2C1048.5,44.7,1052.5,36.8,1059.5,36.8z"/>
		<path class="st27" d="M784.5,22.1l33.7,31.8c5.1,4.8,2.5,13.3-4.4,14.5l-14.2,2.4c-1.3,0.2-2.6,0.1-3.9-0.2L773,63.7
			c-3.9-1.2-6.4-5-5.9-9.1l3.3-27.4C771.1,20.4,779.4,17.3,784.5,22.1z"/>
		<path class="st27" d="M854,108.2l10.9,14.2c1.6,2.1,1.6,5.1-0.2,7.2l-10.7,12.4c-2.5,2.9-7.1,2.6-9.1-0.7l-8.6-13.5
			c-1.2-1.9-1.2-4.3,0-6.1l8.3-13.1C846.8,105.3,851.6,105,854,108.2z"/>
		<path class="st27" d="M1009.8,153.3l-0.5,3.5c-0.3,1.8-1.1,3.4-2.4,4.6L984,183.7c-6,5.8-0.2,15.8,7.8,13.5l39.3-11.3
			c4.8-1.4,7.2-6.7,5.1-11.1l-11.1-23.7C1021.7,143.9,1011,145.5,1009.8,153.3z"/>
		<path class="st27" d="M833.2,281.9c-5,0.1-8,2.9-12.6,3s-7.7-2.7-12.7-2.6c-9.7,0.2-17.5,8.2-17.4,17.9
			c0.2,9.7,8.2,17.5,17.9,17.4c5-0.1,8-2.1,12.6-2.2c4.6-0.1,7.7,1.8,12.7,1.7c9.7-0.2,17.5-8.2,17.4-17.9
			C850.9,289.5,842.9,281.7,833.2,281.9z"/>
		<path class="st28" d="M930.5,348.3l-1.2,2.1c-0.6,1-1.5,1.8-2.6,2.3l-19.9,8.3c-5.2,2.2-4.1,9.9,1.6,10.4l27.4,2.6
			c3.3,0.3,6.1-2.4,5.9-5.7l-1.1-17.7C940.2,345.3,933.1,343.6,930.5,348.3z"/>
	</g>
	<polygon class="st29" points="1035.9,354.4 1400,503 995.6,691 732.8,477 	"/>
	<polygon class="st30" points="995.6,691 995.6,980 660.8,980 732.8,726.5 732.8,477 	"/>
	<polygon class="st31" points="995.6,691 1400,503 1400,985.1 995.6,980 	"/>
	<polygon class="st32" points="1053.9,207.8 1035.9,354.4 1400,503 1400,0 1269.9,0 	"/>
	<path class="st33" d="M1314.9,615.2l19-6.9c4.3-1.6,8.8,1.8,8.4,6.4l-3,42c-0.5,6.5-9.3,8.1-12,2.1l-15.9-35.2
		C1309.8,620.4,1311.5,616.4,1314.9,615.2z"/>
	<circle class="st34" cx="1323.6" cy="621.6" r="5.1"/>
	<path class="st35" d="M1146,752.7l-28.2,35c-5,6.2-1.9,15.5,5.8,17.5l15.2,3.8c3.5,0.9,7.1,0,9.8-2.4l18.4-16.1
		c2.1-1.8,4.8-2.8,7.6-2.7l0,0c10.4,0.4,15.4-12.6,7.4-19.3l-20.6-17.3C1156.8,747.3,1149.8,747.9,1146,752.7z"/>
	<circle class="st36" cx="1155.8" cy="762.3" r="5.7"/>
	<path class="st35" d="M950.4,432.5l-41.9,16.3c-7.4,2.9-9.4,12.5-3.6,18.1l11.3,10.9c2.6,2.5,6.2,3.5,9.7,2.8l24-4.8
		c2.7-0.5,5.6,0,7.9,1.4l0,0c8.8,5.5,19.6-3.3,16-13l-9.2-25.3C962.5,433.1,956.1,430.2,950.4,432.5z"/>
	<circle class="st36" cx="954.1" cy="445.7" r="5.7"/>
	<path class="st33" d="M1266.4,892h74.2c7.7,0,9.8,10.6,2.7,13.5l-54.6,22.5c-2.8,1.2-6,0.4-8-1.9l-19.6-22.5
		C1257.2,899.1,1260.4,892,1266.4,892z"/>
	<circle class="st34" cx="1288" cy="916" r="5.7"/>
	<path class="st37" d="M623.4,77.4l13.8-10.2c6.4-4.8,15-5.5,22.1-1.8l8.3,4.3c5.7,2.9,9.7,8.3,10.9,14.6l6.7,34.6
		c0.3,1.3,0.6,2.6,1.1,3.8l9,22.6c4.5,11.2-1.4,23.8-12.8,27.6l0,0c-8.9,3-18.6-0.3-23.9-8.1l-40-58.9
		C612.3,96.6,614.4,84.1,623.4,77.4z"/>
	<path class="st32" d="M1003.5,575l104.8,4.7c4.4,0.2,8.3,2.6,10.6,6.3v0c5.4,9.1-1.8,20.6-12.3,19.6l-43.4-4
		c-3.9-0.4-7.7,1.1-10.5,3.9l-24.6,25.2c-6.3,6.5-17.2,4.7-21-3.5l-15.9-33.6C987,584.6,993.7,574.5,1003.5,575z"/>
	<path class="st31" d="M799.1,743.6l51.2,55.3c7.4,8,3.3,20.9-7.3,23.2l-66.6,14.3c-10,2.1-18.8-6.8-16.6-16.7l15.5-69.6
		C777.7,739.1,791.5,735.3,799.1,743.6z"/>
	<circle class="st30" cx="830.5" cy="799.4" r="11.5"/>
	<circle class="st38" cx="1021" cy="614.9" r="7"/>
	<ellipse class="st35" cx="931.7" cy="717.5" rx="22" ry="26.5"/>
	<ellipse class="st36" cx="923" cy="721.9" rx="8.7" ry="10.4"/>
	<ellipse class="st39" cx="1099.7" cy="938.2" rx="11" ry="13.3"/>
	<ellipse class="st40" cx="1104" cy="940.4" rx="4.3" ry="5.2"/>
	<path class="st41" d="M1342.6,270.3l21.6-7.8c8.4-3.1,16.9,4.4,14.9,13.2l-5.5,24c-2,8.7-12.8,11.8-19.1,5.5l-16.2-16.1
		C1332.6,283.1,1334.8,273.1,1342.6,270.3z"/>
	<path class="st41" d="M1239,132l11.9,19.7c4.6,7.7-1,17.5-10,17.2l-24.6-0.7c-8.9-0.2-14.1-10.2-9.1-17.7l12.7-19
		C1224.4,124.7,1234.7,124.9,1239,132z"/>
	<path class="st41" d="M1367.4,51.6l11.9,19.7c4.6,7.7-1,17.5-10,17.2l-24.6-0.7c-8.9-0.2-14.1-10.2-9.1-17.7l12.7-19
		C1352.9,44.3,1363.1,44.5,1367.4,51.6z"/>
	<path class="st41" d="M1129,307.2L1129,307.2c4.5-3.6,10.7-4.1,15.8-1.5l19.9,10.5c4.8,2.5,10.6,2.2,15-0.9l7.9-5.5
		c4.8-3.3,11.1-3.4,16-0.3l35.2,22.5c4.2,2.7,6.7,7.2,6.7,12.2v28c0,11.1-12.1,18.1-21.7,12.5l-93-53.8
		C1121.9,325.9,1121,313.5,1129,307.2z"/>
	<ellipse class="st39" cx="1033" cy="864.8" rx="16" ry="19.3"/>
	<ellipse class="st40" cx="1039.3" cy="868" rx="6.3" ry="7.6"/>
	
		<ellipse transform="matrix(0.5049 0.8632 -0.8632 0.5049 1085.7941 -833.9738)" class="st35" cx="1269.9" cy="529.5" rx="22" ry="26.5"/>
	
		<ellipse transform="matrix(0.5049 0.8632 -0.8632 0.5049 1094.0979 -840.7122)" class="st36" cx="1279.9" cy="533.4" rx="8.7" ry="10.4"/>
	<g>
		<path class="st42" d="M1053,30.3h46.3c7,0,10.9,7.9,6.8,13.5l-8.7,11.6c-0.8,1-1.8,1.9-3,2.5l-21.2,10.6
			c-3.7,1.8-8.1,0.8-10.6-2.5l-16.4-22.2C1042,38.2,1046,30.3,1053,30.3z"/>
		<path class="st42" d="M778,15.6l33.7,31.8c5.1,4.8,2.5,13.3-4.4,14.5L793,64.3c-1.3,0.2-2.6,0.1-3.9-0.2l-22.7-6.9
			c-3.9-1.2-6.4-5-5.9-9.1l3.3-27.4C764.6,13.9,772.9,10.9,778,15.6z"/>
		<path class="st43" d="M847.5,101.7l10.9,14.2c1.6,2.1,1.6,5.1-0.2,7.2l-10.7,12.4c-2.5,2.9-7.1,2.6-9.1-0.7l-8.6-13.5
			c-1.2-1.9-1.2-4.3,0-6.1l8.3-13.1C840.3,98.8,845.1,98.6,847.5,101.7z"/>
		<path class="st44" d="M1003.3,146.8l-0.5,3.5c-0.3,1.8-1.1,3.4-2.4,4.6l-22.9,22.2c-6,5.8-0.2,15.8,7.8,13.5l39.3-11.3
			c4.8-1.4,7.2-6.7,5.1-11.1l-11.1-23.7C1015.2,137.4,1004.5,139,1003.3,146.8z"/>
		<path class="st42" d="M826.7,275.4c-5,0.1-8,2.9-12.6,3c-4.6,0.1-7.7-2.7-12.7-2.6c-9.7,0.2-17.5,8.2-17.4,17.9
			c0.2,9.7,8.2,17.5,17.9,17.4c5-0.1,8-2.1,12.6-2.2c4.6-0.1,7.7,1.8,12.7,1.7c9.7-0.2,17.5-8.2,17.4-17.9
			C844.4,283,836.4,275.2,826.7,275.4z"/>
		<path class="st45" d="M766,30.3c0,0,0.7,0.3,1.8,0.9c1.1,0.6,2.7,1.4,4.5,2.5c3.7,2.2,8.4,5.4,12.9,8.8c4.5,3.5,8.8,7.2,11.9,10.2
			c1.5,1.5,2.8,2.8,3.6,3.7c0.8,0.9,1.3,1.5,1.3,1.5s-0.7-0.3-1.8-0.9c-1.1-0.6-2.7-1.4-4.5-2.5c-3.7-2.2-8.4-5.4-12.9-8.9
			c-4.5-3.5-8.8-7.2-11.9-10.2c-1.5-1.5-2.8-2.8-3.6-3.7C766.5,30.9,766,30.3,766,30.3z"/>
		<path class="st45" d="M1053.5,48.3c0,0,0.7-0.2,1.9-0.6c1.2-0.3,3-0.8,5.1-1.2c4.2-0.9,9.8-1.7,15.5-2.1
			c5.7-0.5,11.3-0.6,15.6-0.4c2.1,0.1,3.9,0.2,5.2,0.3c1.3,0.1,2,0.2,2,0.2s-0.7,0.2-1.9,0.6c-1.2,0.3-3,0.8-5.1,1.2
			c-4.2,0.9-9.8,1.7-15.5,2.1c-5.7,0.5-11.3,0.6-15.6,0.4c-2.1-0.1-3.9-0.2-5.2-0.3C1054.2,48.4,1053.5,48.3,1053.5,48.3z"/>
		<path class="st45" d="M791.7,295.1c0,0,0.6-0.2,1.6-0.5c1-0.3,2.5-0.6,4.2-1c3.5-0.7,8.2-1.4,12.9-1.8c4.7-0.4,9.4-0.5,13-0.4
			c1.8,0,3.3,0.2,4.3,0.3c1,0.1,1.6,0.2,1.6,0.2s-0.6,0.2-1.6,0.5c-1,0.3-2.5,0.6-4.2,1c-3.5,0.7-8.2,1.4-12.9,1.8
			c-4.7,0.4-9.4,0.5-13,0.4c-1.8,0-3.3-0.2-4.3-0.3C792.3,295.2,791.7,295.1,791.7,295.1z"/>
		<path class="st46" d="M991.1,182.6c0,0,0.5-0.4,1.3-1c0.8-0.6,2-1.5,3.5-2.5c2.9-2,7-4.4,11.2-6.6c4.2-2.2,8.5-4.1,11.9-5.3
			c1.7-0.6,3.1-1.1,4.1-1.4c1-0.3,1.6-0.5,1.6-0.5s-0.5,0.4-1.3,1c-0.8,0.6-2,1.5-3.5,2.5c-2.9,2-7,4.4-11.2,6.6
			c-4.2,2.2-8.5,4.1-11.9,5.3c-1.7,0.6-3.1,1.1-4.1,1.4C991.7,182.4,991.1,182.6,991.1,182.6z"/>
		<path class="st47" d="M833.3,118.4c0,0,0.3-0.3,0.8-0.6c0.5-0.4,1.2-0.8,2.1-1.3c0.9-0.5,1.9-0.9,3-1.3c0.6-0.2,1.1-0.4,1.7-0.5
			c0.6-0.2,1.2-0.3,1.8-0.4c0.6-0.1,1.2-0.2,1.8-0.2c0.6-0.1,1.2-0.1,1.8-0.1c1.2,0,2.3,0.1,3.3,0.3c1,0.2,1.8,0.4,2.4,0.6
			c0.6,0.2,0.9,0.4,0.9,0.4s-0.3,0.3-0.8,0.6c-0.5,0.4-1.2,0.8-2.1,1.3c-0.9,0.5-1.9,0.9-3,1.3c-0.6,0.2-1.1,0.4-1.7,0.5
			c-0.6,0.2-1.2,0.3-1.8,0.4c-0.6,0.1-1.2,0.2-1.8,0.2c-0.6,0.1-1.2,0.1-1.8,0.1c-1.2,0-2.3-0.1-3.3-0.3c-1-0.2-1.8-0.4-2.4-0.6
			C833.7,118.6,833.3,118.4,833.3,118.4z"/>
	</g>
	<path class="st48" d="M924,341.8l-1.2,2.1c-0.6,1-1.5,1.8-2.6,2.3l-19.9,8.3c-5.2,2.2-4.1,9.9,1.6,10.4l27.4,2.6
		c3.3,0.3,6.1-2.4,5.9-5.7l-1.1-17.7C933.8,338.8,926.7,337.1,924,341.8z"/>
	<path class="st49" d="M903.5,361.7c0,0,0.3-0.3,0.9-0.8c0.6-0.5,1.5-1.1,2.6-1.9c1.1-0.7,2.4-1.6,3.7-2.4c1.4-0.8,2.9-1.7,4.4-2.5
		c0.8-0.4,1.5-0.8,2.3-1.2c0.8-0.4,1.5-0.7,2.3-1.1c1.5-0.7,2.9-1.3,4.1-1.7c1.2-0.5,2.3-0.8,3-1.1c0.7-0.2,1.2-0.3,1.2-0.3
		s-0.3,0.3-0.9,0.8c-0.6,0.5-1.5,1.1-2.6,1.9c-1.1,0.7-2.4,1.6-3.7,2.4c-0.7,0.4-1.4,0.9-2.2,1.3c-0.7,0.4-1.5,0.8-2.3,1.2
		c-1.5,0.8-3.1,1.6-4.6,2.2c-1.5,0.7-2.9,1.3-4.1,1.7c-1.2,0.5-2.3,0.8-3,1.1C903.9,361.6,903.5,361.7,903.5,361.7z"/>
	<path class="st33" d="M1119.6,297.8L1119.6,297.8c4.5-3.6,10.7-4.1,15.8-1.5l19.9,10.5c4.8,2.5,10.6,2.2,15-0.9l7.9-5.5
		c4.8-3.3,11.1-3.4,16-0.3l35.2,22.5c4.2,2.7,6.7,7.2,6.7,12.2v28c0,11.1-12.1,18.1-21.7,12.5l-93-53.8
		C1112.5,316.6,1111.6,304.2,1119.6,297.8z"/>
	<path class="st50" d="M1333.3,260.9l21.6-7.8c8.4-3.1,16.9,4.4,14.9,13.2l-5.5,24c-2,8.7-12.8,11.8-19.1,5.5l-16.2-16.1
		C1323.2,273.8,1325.5,263.8,1333.3,260.9z"/>
	<path class="st50" d="M1229.6,122.7l11.9,19.7c4.6,7.7-1,17.5-10,17.2l-24.6-0.7c-8.9-0.2-14.1-10.2-9.1-17.7l12.7-19
		C1215.1,115.3,1225.3,115.6,1229.6,122.7z"/>
	<path class="st33" d="M1358.1,42.3L1370,62c4.6,7.7-1,17.5-10,17.2l-24.6-0.7c-8.9-0.2-14.1-10.2-9.1-17.7l12.7-19
		C1343.5,34.9,1353.8,35.2,1358.1,42.3z"/>
</g>
</svg>
