<!DOCTYPE svg PUBLIC "-//W3C//DTD SVG 1.1//EN" "http://www.w3.org/Graphics/SVG/1.1/DTD/svg11.dtd">
<!-- Uploaded to: SVG Repo, www.svgrepo.com, Transformed by: SVG Repo Mixer Tools -->
<svg fill="#ffffff" height="800px" width="800px" version="1.2" baseProfile="tiny" id="Layer_1" xmlns="http://www.w3.org/2000/svg" xmlns:xlink="http://www.w3.org/1999/xlink" viewBox="0 0 256 256" xml:space="preserve" stroke="#ffffff">
<g id="SVGRepo_bgCarrier" stroke-width="0"/>
<g id="SVGRepo_tracerCarrier" stroke-linecap="round" stroke-linejoin="round"/>
<g id="SVGRepo_iconCarrier"> <path id="_x31_" d="M157.7,7.8L92.1,172.3l-25.3-47.9L0,251.4h66.8l-0.1,0.3h121.3l66.5,0.3L157.7,7.8z M76,157.6l-8.8-5l-8.5,4.1 l-0.6-3.9l9-17.2l9.7,18.7L76,157.6z M174.9,126l-15-12.3L142,130l-15.4-22.4l31-77.8l26.7,67.1L174.9,126z M107.9,32.5 c2.4-3.1,6.8-3.7,9.9-1.3c3.1,2.4,3.7,6.8,1.3,9.9s-6.8,3.7-9.9,1.3C106.1,40,105.5,35.6,107.9,32.5z M93,75.6 c1.9,1.4,4.1,1.9,6.3,1.7l12.5-0.5l0.5,13c0.1,2.4,2.2,4.3,4.6,4.2c2.3,0,4.2-2.2,4.1-4.5l-0.8-17.4c-0.1-1.5-1.2-3.2-2.7-3.8 c-0.6-0.3-1.3-0.4-1.8-0.4l-10.7,0.4L118,51.4l10.5,0.5c0.8,0,1.5-0.3,2.2-0.8l10.4-9.5c1.3-1.2,1.4-3.1,0.3-4.3 c-1.2-1.3-3.1-1.4-4.3-0.3l-9.3,8.6L110.2,45c-2.7-0.1-5.5,1-7.3,3.3l-11.5,15C88.4,67.3,89.2,72.6,93,75.6z"/> </g>
</svg>