<svg xml:space="preserve" viewBox="669.6796499292785 101.43911999999999 123.84384724186704 110.72579999999999" y="0px" x="0px" xmlns:xlink="http://www.w3.org/1999/xlink" xmlns="http://www.w3.org/2000/svg" id="Layer_1" version="1.1" style="max-height: 500px" width="123.84384724186704" height="110.72579999999999">
<g>
	


	
	
	<g>
		<path d="M675.5,137.1c0,0,3.4-18.8,28.8-25.5s71.1-6.7,77.1,9.4s8.6,77.1-17.5,83.8c-26.1,6.7-32.1-29.5-41.5-36.9&#10;&#9;&#9;&#9;C713.1,160.6,668.1,167.3,675.5,137.1z" fill="#955BA5"/>
		<g>
			<circle r="11.7" cy="144.8" cx="752.2" fill="#E6E7E8"/>
			<circle r="7.8" cy="144.8" cx="752.2" fill="#414042"/>
		</g>
		<path d="M783.5,174.9c-10.1,17.8-25.8,21.5-31.3,6.4c-7.4-20.1-18.7-27.5-48.2-28.8c-14.5-0.6-23.6-4.4-29.3-8.1&#10;&#9;&#9;&#9;c1.3,21.7,39.2,16.8,47.7,23.5c9.4,7.4,15.4,43.6,41.5,36.9C774.9,202,780.8,189.6,783.5,174.9z" fill="#884B9D"/>
	</g>
	
</g>
</svg>