<svg xml:space="preserve" viewBox="482.262230834512 324.79567999999995 122.65304101838755 186.92419999999998" y="0px" x="0px" xmlns:xlink="http://www.w3.org/1999/xlink" xmlns="http://www.w3.org/2000/svg" id="Layer_1" version="1.1" style="max-height: 500px" width="122.65304101838755" height="186.92419999999998">
<g>

	<g>
		<path d="M495,499.4c0,0-21.7-33-0.7-87.4c21-54.4,67.6-85.6,77.8-80.4s-4,38.1,14.7,56.7&#10;&#9;&#9;&#9;c18.7,18.6,13.7,14.9,0.8,48.1c-12.9,33.3-10.7,53.8-41.8,61.7S505.5,513,495,499.4z" fill="#4EBA6E"/>
		<path d="M563.9,367.1c-17.1,20-61.9,34.3-52,72.6c9.9,38.3,38,49.2,48.4,18.7c10.3-30.5,24.4-64.8,33.2-63.4&#10;&#9;&#9;&#9;c-1.7-1.9-3.9-4.1-6.6-6.7c-12.8-12.7-10.2-32.1-10.6-44.8C575.7,348.5,573,356.4,563.9,367.1z" fill="#75C485"/>
		<g>
			<circle r="11.7" cy="431.9" cx="538.8" fill="#E6E7E8"/>
			<circle r="7.8" cy="431.9" cx="538.8" fill="#414042"/>
		</g>
	</g>

</g>
</svg>